G04*
G04 #@! TF.GenerationSoftware,Altium Limited,Altium Designer,20.0.2 (26)*
G04*
G04 Layer_Color=65535*
%FSLAX25Y25*%
%MOIN*%
G70*
G01*
G75*
%ADD10C,0.00984*%
%ADD11C,0.01181*%
%ADD12C,0.00591*%
%ADD13C,0.00787*%
%ADD14C,0.00394*%
%ADD15C,0.00500*%
%ADD16C,0.01000*%
D10*
X192283Y438248D02*
G03*
X192283Y438248I-492J0D01*
G01*
X99421Y316854D02*
G03*
X99421Y316854I-492J0D01*
G01*
D11*
X216866Y478850D02*
G03*
X216866Y478850I-394J0D01*
G01*
D12*
X338295Y423500D02*
G03*
X338295Y423500I-5295J0D01*
G01*
X397795Y424000D02*
G03*
X397795Y424000I-5295J0D01*
G01*
X259795Y370000D02*
G03*
X259795Y370000I-5295J0D01*
G01*
X241295D02*
G03*
X241295Y370000I-5295J0D01*
G01*
X221795Y369500D02*
G03*
X221795Y369500I-5295J0D01*
G01*
D13*
X242051Y474677D02*
G03*
X241264Y474677I-394J0D01*
G01*
D02*
G03*
X242051Y474677I394J0D01*
G01*
X274689Y469764D02*
G03*
X274689Y470551I0J394D01*
G01*
D02*
G03*
X274689Y469764I0J-394D01*
G01*
X323732Y492410D02*
G03*
X324520Y492410I394J0D01*
G01*
D02*
G03*
X323732Y492410I-394J0D01*
G01*
D02*
G03*
X324520Y492410I394J0D01*
G01*
X214193Y410142D02*
G03*
X214193Y410142I-394J0D01*
G01*
X251193D02*
G03*
X251193Y410142I-394J0D01*
G01*
X189284Y432138D02*
G03*
X189284Y431744I0J-197D01*
G01*
D02*
G03*
X189284Y432138I0J197D01*
G01*
D02*
G03*
X189284Y431744I0J-197D01*
G01*
X301500Y499000D02*
X311500D01*
Y409000D02*
Y499000D01*
X301500Y409000D02*
X311500D01*
X301500D02*
Y499000D01*
X306000Y286000D02*
X316000D01*
X306000D02*
Y326000D01*
X316000Y286000D02*
Y326000D01*
X306000D02*
X316000D01*
X414000Y409000D02*
X424000D01*
X414000D02*
Y499000D01*
X424000D01*
Y409000D02*
Y499000D01*
X178996Y438445D02*
X189232D01*
X178996D02*
Y442382D01*
Y456555D02*
X189232D01*
X178996Y452618D02*
Y456555D01*
X306000Y387000D02*
X316000D01*
Y347000D02*
Y387000D01*
X306000Y347000D02*
Y387000D01*
Y347000D02*
X316000D01*
X271012Y443669D02*
Y463276D01*
X229988D02*
X271012D01*
X229988Y450500D02*
Y463276D01*
X201500Y457000D02*
Y467000D01*
X221500D01*
Y457000D02*
Y467000D01*
X201500Y457000D02*
X221500D01*
X233587Y485012D02*
Y498988D01*
Y485012D02*
X269413D01*
Y498988D01*
X233587D02*
X269413D01*
X335347Y441622D02*
X392433D01*
X335347D02*
X392433D01*
X328457Y520362D02*
X399323D01*
X328457D02*
X399323D01*
Y496740D02*
Y520362D01*
Y496740D02*
Y520362D01*
X328457Y496740D02*
Y520362D01*
Y496740D02*
Y520362D01*
X351720Y429850D02*
X354279D01*
X351720Y436150D02*
X354279D01*
X218500Y393000D02*
Y403000D01*
X258500D01*
X218500Y393000D02*
X258500D01*
Y403000D01*
X302500Y264000D02*
Y274000D01*
X362500Y264000D02*
Y274000D01*
X302500Y264000D02*
X362500D01*
X302500Y274000D02*
X362500D01*
X313000Y243000D02*
Y253000D01*
X353000D01*
X313000Y243000D02*
X353000D01*
Y253000D01*
X266000Y381000D02*
X296000D01*
X266000Y371000D02*
Y381000D01*
Y371000D02*
X296000D01*
Y381000D01*
X101291Y242398D02*
Y360602D01*
Y242398D02*
X300709D01*
Y360602D01*
X101291D02*
X300709D01*
X105886Y426842D02*
X129114D01*
X105886Y377630D02*
Y426842D01*
Y377630D02*
X129114D01*
Y426842D01*
X102000Y466556D02*
X142000D01*
X102000Y498445D02*
X142000D01*
Y466556D02*
Y498445D01*
X102000Y466556D02*
Y498445D01*
X147500Y466056D02*
X187500D01*
X147500Y497945D02*
X187500D01*
Y466056D02*
Y497945D01*
X147500Y466056D02*
Y497945D01*
X367000Y385000D02*
X377000D01*
Y345000D02*
Y385000D01*
X367000Y345000D02*
Y385000D01*
Y345000D02*
X377000D01*
X367000Y258000D02*
X377000D01*
X367000D02*
Y298000D01*
X377000Y258000D02*
Y298000D01*
X367000D02*
X377000D01*
D14*
X117500Y429205D02*
G03*
X117500Y429598I0J197D01*
G01*
D02*
G03*
X117500Y429205I0J-197D01*
G01*
X276992Y498760D02*
X296008D01*
Y461240D02*
Y498760D01*
X276992Y461240D02*
X296008D01*
X276992D02*
Y498760D01*
X139284Y366783D02*
Y429776D01*
Y366783D02*
X206213D01*
Y429776D01*
X139284D02*
X206213D01*
D15*
X225724Y488496D02*
Y489874D01*
X196197Y488496D02*
Y489874D01*
X225724Y499126D02*
Y500209D01*
X196197D02*
X225724D01*
X196197Y499126D02*
Y500209D01*
X217732Y483083D02*
X218165D01*
X203756D02*
X204189D01*
X244311Y414345D02*
Y423656D01*
X220689Y414345D02*
Y423656D01*
X223907Y430811D02*
X241092D01*
X223907Y407189D02*
X241092D01*
X281311Y414345D02*
Y423656D01*
X257689Y414345D02*
Y423656D01*
X260908Y430811D02*
X278093D01*
X260908Y407189D02*
X278093D01*
X102079Y437157D02*
Y456843D01*
X170976Y437157D02*
Y456843D01*
X102079Y437157D02*
X170976D01*
X102079Y456843D02*
X170976D01*
D16*
X318500Y323998D02*
X319500Y324998D01*
X321499D01*
X322499Y323998D01*
Y322999D01*
X321499Y321999D01*
X320499D01*
X321499D01*
X322499Y320999D01*
Y320000D01*
X321499Y319000D01*
X319500D01*
X318500Y320000D01*
X324498Y319000D02*
Y320000D01*
X325498D01*
Y319000D01*
X324498D01*
X329496Y323998D02*
X330496Y324998D01*
X332495D01*
X333495Y323998D01*
Y322999D01*
X332495Y321999D01*
X331496D01*
X332495D01*
X333495Y320999D01*
Y320000D01*
X332495Y319000D01*
X330496D01*
X329496Y320000D01*
X335494Y324998D02*
Y320999D01*
X337494Y319000D01*
X339493Y320999D01*
Y324998D01*
X322499Y313498D02*
X321499Y314498D01*
X319500D01*
X318500Y313498D01*
Y309500D01*
X319500Y308500D01*
X321499D01*
X322499Y309500D01*
Y311499D01*
X320499D01*
X324498Y308500D02*
Y314498D01*
X328497Y308500D01*
Y314498D01*
X330496D02*
Y308500D01*
X333495D01*
X334495Y309500D01*
Y313498D01*
X333495Y314498D01*
X330496D01*
X321999Y303498D02*
X320999Y304498D01*
X319000D01*
X318000Y303498D01*
Y302499D01*
X319000Y301499D01*
X320999D01*
X321999Y300499D01*
Y299500D01*
X320999Y298500D01*
X319000D01*
X318000Y299500D01*
X327997Y303498D02*
X326997Y304498D01*
X324998D01*
X323998Y303498D01*
Y299500D01*
X324998Y298500D01*
X326997D01*
X327997Y299500D01*
X329996Y304498D02*
Y298500D01*
X333995D01*
X321499Y293498D02*
X320499Y294498D01*
X318500D01*
X317500Y293498D01*
Y292499D01*
X318500Y291499D01*
X320499D01*
X321499Y290499D01*
Y289500D01*
X320499Y288500D01*
X318500D01*
X317500Y289500D01*
X323498Y294498D02*
Y288500D01*
X326497D01*
X327497Y289500D01*
Y293498D01*
X326497Y294498D01*
X323498D01*
X329496Y288500D02*
Y292499D01*
X331495Y294498D01*
X333495Y292499D01*
Y288500D01*
Y291499D01*
X329496D01*
X318000Y383998D02*
X319000Y384998D01*
X320999D01*
X321999Y383998D01*
Y382999D01*
X320999Y381999D01*
X319999D01*
X320999D01*
X321999Y380999D01*
Y380000D01*
X320999Y379000D01*
X319000D01*
X318000Y380000D01*
X323998Y379000D02*
Y380000D01*
X324998D01*
Y379000D01*
X323998D01*
X328996Y383998D02*
X329996Y384998D01*
X331996D01*
X332995Y383998D01*
Y382999D01*
X331996Y381999D01*
X330996D01*
X331996D01*
X332995Y380999D01*
Y380000D01*
X331996Y379000D01*
X329996D01*
X328996Y380000D01*
X334995Y384998D02*
Y380999D01*
X336994Y379000D01*
X338993Y380999D01*
Y384998D01*
X322499Y373498D02*
X321499Y374498D01*
X319500D01*
X318500Y373498D01*
Y369500D01*
X319500Y368500D01*
X321499D01*
X322499Y369500D01*
Y371499D01*
X320499D01*
X324498Y368500D02*
Y374498D01*
X328497Y368500D01*
Y374498D01*
X330496D02*
Y368500D01*
X333495D01*
X334495Y369500D01*
Y373498D01*
X333495Y374498D01*
X330496D01*
X322499Y363998D02*
X321499Y364998D01*
X319500D01*
X318500Y363998D01*
Y362999D01*
X319500Y361999D01*
X321499D01*
X322499Y360999D01*
Y360000D01*
X321499Y359000D01*
X319500D01*
X318500Y360000D01*
X328497Y363998D02*
X327497Y364998D01*
X325498D01*
X324498Y363998D01*
Y360000D01*
X325498Y359000D01*
X327497D01*
X328497Y360000D01*
X330496Y364998D02*
Y359000D01*
X334495D01*
X322999Y353998D02*
X321999Y354998D01*
X320000D01*
X319000Y353998D01*
Y352999D01*
X320000Y351999D01*
X321999D01*
X322999Y350999D01*
Y350000D01*
X321999Y349000D01*
X320000D01*
X319000Y350000D01*
X324998Y354998D02*
Y349000D01*
X327997D01*
X328997Y350000D01*
Y353998D01*
X327997Y354998D01*
X324998D01*
X330996Y349000D02*
Y352999D01*
X332996Y354998D01*
X334995Y352999D01*
Y349000D01*
Y351999D01*
X330996D01*
X382999Y383498D02*
X379000D01*
Y380499D01*
X380999Y381499D01*
X381999D01*
X382999Y380499D01*
Y378500D01*
X381999Y377500D01*
X380000D01*
X379000Y378500D01*
X384998Y383498D02*
Y379499D01*
X386997Y377500D01*
X388997Y379499D01*
Y383498D01*
X382999Y372498D02*
X381999Y373498D01*
X380000D01*
X379000Y372498D01*
Y368500D01*
X380000Y367500D01*
X381999D01*
X382999Y368500D01*
Y370499D01*
X380999D01*
X384998Y367500D02*
Y373498D01*
X388997Y367500D01*
Y373498D01*
X390996D02*
Y367500D01*
X393995D01*
X394995Y368500D01*
Y372498D01*
X393995Y373498D01*
X390996D01*
X379000Y363498D02*
Y357500D01*
X381999D01*
X382999Y358500D01*
Y362498D01*
X381999Y363498D01*
X379000D01*
X387997D02*
X385998D01*
X384998Y362498D01*
Y358500D01*
X385998Y357500D01*
X387997D01*
X388997Y358500D01*
Y362498D01*
X387997Y363498D01*
X379500Y348000D02*
Y351999D01*
X381499Y353998D01*
X383499Y351999D01*
Y348000D01*
Y350999D01*
X379500D01*
X388497Y353998D02*
X386498D01*
X385498Y352998D01*
Y349000D01*
X386498Y348000D01*
X388497D01*
X389497Y349000D01*
Y352998D01*
X388497Y353998D01*
X383999Y265998D02*
X380000D01*
Y262999D01*
X381999Y263999D01*
X382999D01*
X383999Y262999D01*
Y261000D01*
X382999Y260000D01*
X381000D01*
X380000Y261000D01*
X385998Y265998D02*
Y261999D01*
X387997Y260000D01*
X389997Y261999D01*
Y265998D01*
X380000Y276998D02*
Y271000D01*
X382999D01*
X383999Y272000D01*
Y275998D01*
X382999Y276998D01*
X380000D01*
X388997D02*
X386998D01*
X385998Y275998D01*
Y272000D01*
X386998Y271000D01*
X388997D01*
X389997Y272000D01*
Y275998D01*
X388997Y276998D01*
X380000Y281000D02*
Y284999D01*
X381999Y286998D01*
X383999Y284999D01*
Y281000D01*
Y283999D01*
X380000D01*
X388997Y286998D02*
X386998D01*
X385998Y285998D01*
Y282000D01*
X386998Y281000D01*
X388997D01*
X389997Y282000D01*
Y285998D01*
X388997Y286998D01*
X383999Y295498D02*
X382999Y296498D01*
X381000D01*
X380000Y295498D01*
Y291500D01*
X381000Y290500D01*
X382999D01*
X383999Y291500D01*
Y293499D01*
X381999D01*
X385998Y290500D02*
Y296498D01*
X389997Y290500D01*
Y296498D01*
X391996D02*
Y290500D01*
X394995D01*
X395995Y291500D01*
Y295498D01*
X394995Y296498D01*
X391996D01*
X349000Y426498D02*
Y425498D01*
X350999Y423499D01*
X352999Y425498D01*
Y426498D01*
X350999Y423499D02*
Y420500D01*
X354998D02*
X356997D01*
X355998D01*
Y426498D01*
X354998Y425498D01*
X303000Y250998D02*
Y246000D01*
X304000Y245000D01*
X305999D01*
X306999Y246000D01*
Y250998D01*
X308998Y245000D02*
X310997D01*
X309998D01*
Y250998D01*
X308998Y249998D01*
X263000Y400998D02*
Y395000D01*
X265999D01*
X266999Y396000D01*
Y399998D01*
X265999Y400998D01*
X263000D01*
X268998Y395000D02*
X270997D01*
X269998D01*
Y400998D01*
X268998Y399998D01*
X220499Y439498D02*
X219499Y440498D01*
X217500D01*
X216500Y439498D01*
Y438499D01*
X217500Y437499D01*
X219499D01*
X220499Y436499D01*
Y435500D01*
X219499Y434500D01*
X217500D01*
X216500Y435500D01*
X222498Y439498D02*
X223498Y440498D01*
X225497D01*
X226497Y439498D01*
Y438499D01*
X225497Y437499D01*
X224497D01*
X225497D01*
X226497Y436499D01*
Y435500D01*
X225497Y434500D01*
X223498D01*
X222498Y435500D01*
X276499Y439498D02*
X275499Y440498D01*
X273500D01*
X272500Y439498D01*
Y438499D01*
X273500Y437499D01*
X275499D01*
X276499Y436499D01*
Y435500D01*
X275499Y434500D01*
X273500D01*
X272500Y435500D01*
X282497Y434500D02*
X278498D01*
X282497Y438499D01*
Y439498D01*
X281497Y440498D01*
X279498D01*
X278498Y439498D01*
X265999Y472998D02*
X264999Y473998D01*
X263000D01*
X262000Y472998D01*
Y471999D01*
X263000Y470999D01*
X264999D01*
X265999Y469999D01*
Y469000D01*
X264999Y468000D01*
X263000D01*
X262000Y469000D01*
X267998Y468000D02*
X269997D01*
X268998D01*
Y473998D01*
X267998Y472998D01*
X237999Y467500D02*
Y471498D01*
X236999Y472498D01*
X235000D01*
X234000Y471498D01*
Y467500D01*
X235000Y466500D01*
X236999D01*
X235999Y468499D02*
X237999Y466500D01*
X236999D02*
X237999Y467500D01*
X239998Y466500D02*
X241997D01*
X240998D01*
Y472498D01*
X239998Y471498D01*
X410500Y400500D02*
Y406498D01*
X413499D01*
X414499Y405498D01*
Y403499D01*
X413499Y402499D01*
X410500D01*
X416498Y400500D02*
X418497D01*
X417498D01*
Y406498D01*
X416498Y405498D01*
X425495Y400500D02*
X421496D01*
X425495Y404499D01*
Y405498D01*
X424496Y406498D01*
X422496D01*
X421496Y405498D01*
X301000Y401000D02*
Y406998D01*
X303999D01*
X304999Y405998D01*
Y403999D01*
X303999Y402999D01*
X301000D01*
X306998Y401000D02*
X308997D01*
X307998D01*
Y406998D01*
X306998Y405998D01*
X311996Y401000D02*
X313996D01*
X312996D01*
Y406998D01*
X311996Y405998D01*
X207000Y448000D02*
Y453998D01*
X209999D01*
X210999Y452998D01*
Y450999D01*
X209999Y449999D01*
X207000D01*
X212998Y448000D02*
X214997D01*
X213998D01*
Y453998D01*
X212998Y452998D01*
X217996D02*
X218996Y453998D01*
X220995D01*
X221995Y452998D01*
Y449000D01*
X220995Y448000D01*
X218996D01*
X217996Y449000D01*
Y452998D01*
X349500Y277500D02*
Y283498D01*
X352499D01*
X353499Y282498D01*
Y280499D01*
X352499Y279499D01*
X349500D01*
X355498Y278500D02*
X356498Y277500D01*
X358497D01*
X359497Y278500D01*
Y282498D01*
X358497Y283498D01*
X356498D01*
X355498Y282498D01*
Y281499D01*
X356498Y280499D01*
X359497D01*
X367650Y301350D02*
Y307348D01*
X370649D01*
X371649Y306348D01*
Y304349D01*
X370649Y303349D01*
X367650D01*
X373648Y306348D02*
X374648Y307348D01*
X376647D01*
X377647Y306348D01*
Y305349D01*
X376647Y304349D01*
X377647Y303349D01*
Y302350D01*
X376647Y301350D01*
X374648D01*
X373648Y302350D01*
Y303349D01*
X374648Y304349D01*
X373648Y305349D01*
Y306348D01*
X374648Y304349D02*
X376647D01*
X367600Y388400D02*
Y394398D01*
X370599D01*
X371599Y393398D01*
Y391399D01*
X370599Y390399D01*
X367600D01*
X373598Y394398D02*
X377597D01*
Y393398D01*
X373598Y389400D01*
Y388400D01*
X355000Y245500D02*
Y251498D01*
X357999D01*
X358999Y250498D01*
Y248499D01*
X357999Y247499D01*
X355000D01*
X364997Y251498D02*
X362997Y250498D01*
X360998Y248499D01*
Y246500D01*
X361998Y245500D01*
X363997D01*
X364997Y246500D01*
Y247499D01*
X363997Y248499D01*
X360998D01*
X306000Y277500D02*
Y283498D01*
X308999D01*
X309999Y282498D01*
Y280499D01*
X308999Y279499D01*
X306000D01*
X315997Y283498D02*
X311998D01*
Y280499D01*
X313997Y281499D01*
X314997D01*
X315997Y280499D01*
Y278500D01*
X314997Y277500D01*
X312998D01*
X311998Y278500D01*
X306500Y339000D02*
Y344998D01*
X309499D01*
X310499Y343998D01*
Y341999D01*
X309499Y340999D01*
X306500D01*
X315497Y339000D02*
Y344998D01*
X312498Y341999D01*
X316497D01*
X277000Y362500D02*
Y368498D01*
X279999D01*
X280999Y367498D01*
Y365499D01*
X279999Y364499D01*
X277000D01*
X282998Y367498D02*
X283998Y368498D01*
X285997D01*
X286997Y367498D01*
Y366499D01*
X285997Y365499D01*
X284997D01*
X285997D01*
X286997Y364499D01*
Y363500D01*
X285997Y362500D01*
X283998D01*
X282998Y363500D01*
X147500Y458500D02*
Y464498D01*
X150499D01*
X151499Y463498D01*
Y461499D01*
X150499Y460499D01*
X147500D01*
X157497Y458500D02*
X153498D01*
X157497Y462499D01*
Y463498D01*
X156497Y464498D01*
X154498D01*
X153498Y463498D01*
X102000Y458500D02*
Y464498D01*
X104999D01*
X105999Y463498D01*
Y461499D01*
X104999Y460499D01*
X102000D01*
X107998Y458500D02*
X109997D01*
X108998D01*
Y464498D01*
X107998Y463498D01*
X195735Y478498D02*
X193736D01*
X194735D01*
Y473500D01*
X193736Y472500D01*
X192736D01*
X191736Y473500D01*
X201733Y478498D02*
X199734Y477498D01*
X197734Y475499D01*
Y473500D01*
X198734Y472500D01*
X200733D01*
X201733Y473500D01*
Y474499D01*
X200733Y475499D01*
X197734D01*
X333499Y415498D02*
X331499D01*
X332499D01*
Y410500D01*
X331499Y409500D01*
X330500D01*
X329500Y410500D01*
X339497Y415498D02*
X335498D01*
Y412499D01*
X337497Y413499D01*
X338497D01*
X339497Y412499D01*
Y410500D01*
X338497Y409500D01*
X336498D01*
X335498Y410500D01*
X391499Y416498D02*
X389499D01*
X390499D01*
Y411500D01*
X389499Y410500D01*
X388500D01*
X387500Y411500D01*
X396497Y410500D02*
Y416498D01*
X393498Y413499D01*
X397497D01*
X214999Y384498D02*
X212999D01*
X213999D01*
Y379500D01*
X212999Y378500D01*
X212000D01*
X211000Y379500D01*
X216998Y383498D02*
X217998Y384498D01*
X219997D01*
X220997Y383498D01*
Y382499D01*
X219997Y381499D01*
X218997D01*
X219997D01*
X220997Y380499D01*
Y379500D01*
X219997Y378500D01*
X217998D01*
X216998Y379500D01*
X234999Y384498D02*
X232999D01*
X233999D01*
Y379500D01*
X232999Y378500D01*
X232000D01*
X231000Y379500D01*
X240997Y378500D02*
X236998D01*
X240997Y382499D01*
Y383498D01*
X239997Y384498D01*
X237998D01*
X236998Y383498D01*
X254499Y384498D02*
X252499D01*
X253499D01*
Y379500D01*
X252499Y378500D01*
X251500D01*
X250500Y379500D01*
X256498Y378500D02*
X258497D01*
X257498D01*
Y384498D01*
X256498Y383498D01*
X319999Y434998D02*
X318999Y435998D01*
X317000D01*
X316000Y434998D01*
Y431000D01*
X317000Y430000D01*
X318999D01*
X319999Y431000D01*
X321998Y430000D02*
X323997D01*
X322998D01*
Y435998D01*
X321998Y434998D01*
X326996Y430000D02*
X328996D01*
X327996D01*
Y435998D01*
X326996Y434998D01*
X380459Y435998D02*
X379460Y436998D01*
X377460D01*
X376461Y435998D01*
Y432000D01*
X377460Y431000D01*
X379460D01*
X380459Y432000D01*
X382459Y431000D02*
X384458D01*
X383458D01*
Y436998D01*
X382459Y435998D01*
X387457D02*
X388457Y436998D01*
X390456D01*
X391456Y435998D01*
Y432000D01*
X390456Y431000D01*
X388457D01*
X387457Y432000D01*
Y435998D01*
X293999Y432498D02*
X292999Y433498D01*
X291000D01*
X290000Y432498D01*
Y428500D01*
X291000Y427500D01*
X292999D01*
X293999Y428500D01*
X295998Y432498D02*
X296998Y433498D01*
X298997D01*
X299997Y432498D01*
Y431499D01*
X298997Y430499D01*
X299997Y429499D01*
Y428500D01*
X298997Y427500D01*
X296998D01*
X295998Y428500D01*
Y429499D01*
X296998Y430499D01*
X295998Y431499D01*
Y432498D01*
X296998Y430499D02*
X298997D01*
X293499Y413998D02*
X292499Y414998D01*
X290500D01*
X289500Y413998D01*
Y410000D01*
X290500Y409000D01*
X292499D01*
X293499Y410000D01*
X295498Y414998D02*
X299497D01*
Y413998D01*
X295498Y410000D01*
Y409000D01*
X128499Y463498D02*
X127499Y464498D01*
X125500D01*
X124500Y463498D01*
Y459500D01*
X125500Y458500D01*
X127499D01*
X128499Y459500D01*
X130498Y458500D02*
X132497D01*
X131498D01*
Y464498D01*
X130498Y463498D01*
X397500Y438998D02*
Y433000D01*
X400499D01*
X401499Y434000D01*
Y434999D01*
X400499Y435999D01*
X397500D01*
X400499D01*
X401499Y436999D01*
Y437998D01*
X400499Y438998D01*
X397500D01*
X406497Y433000D02*
Y438998D01*
X403498Y435999D01*
X407497D01*
X273500Y455498D02*
Y449500D01*
X276499D01*
X277499Y450500D01*
Y451499D01*
X276499Y452499D01*
X273500D01*
X276499D01*
X277499Y453499D01*
Y454498D01*
X276499Y455498D01*
X273500D01*
X279498Y454498D02*
X280498Y455498D01*
X282497D01*
X283497Y454498D01*
Y453499D01*
X282497Y452499D01*
X281497D01*
X282497D01*
X283497Y451499D01*
Y450500D01*
X282497Y449500D01*
X280498D01*
X279498Y450500D01*
X122000Y369998D02*
Y364000D01*
X124999D01*
X125999Y365000D01*
Y365999D01*
X124999Y366999D01*
X122000D01*
X124999D01*
X125999Y367999D01*
Y368998D01*
X124999Y369998D01*
X122000D01*
X131997Y364000D02*
X127998D01*
X131997Y367999D01*
Y368998D01*
X130997Y369998D01*
X128998D01*
X127998Y368998D01*
X104000Y370998D02*
Y365000D01*
X106999D01*
X107999Y366000D01*
Y366999D01*
X106999Y367999D01*
X104000D01*
X106999D01*
X107999Y368999D01*
Y369998D01*
X106999Y370998D01*
X104000D01*
X109998Y365000D02*
X111997D01*
X110998D01*
Y370998D01*
X109998Y369998D01*
X198500Y436000D02*
Y439999D01*
X200499Y441998D01*
X202499Y439999D01*
Y436000D01*
Y438999D01*
X198500D01*
X208497Y436000D02*
X204498D01*
X208497Y439999D01*
Y440998D01*
X207497Y441998D01*
X205498D01*
X204498Y440998D01*
M02*
