G04*
G04 #@! TF.GenerationSoftware,Altium Limited,Altium Designer,20.0.2 (26)*
G04*
G04 Layer_Color=32768*
%FSLAX25Y25*%
%MOIN*%
G70*
G01*
G75*
%ADD13C,0.00787*%
G36*
X212898Y321317D02*
X212848Y321244D01*
X212798Y321178D01*
X212752Y321121D01*
X212709Y321071D01*
X212675Y321032D01*
X212648Y321002D01*
X212629Y320986D01*
X212621Y320979D01*
X212594Y320955D01*
X212560Y320933D01*
X212494Y320890D01*
X212468Y320875D01*
X212444Y320863D01*
X212429Y320856D01*
X212421Y320852D01*
X212487Y320840D01*
X212548Y320829D01*
X212606Y320813D01*
X212656Y320794D01*
X212706Y320775D01*
X212748Y320756D01*
X212790Y320737D01*
X212825Y320718D01*
X212855Y320698D01*
X212882Y320683D01*
X212905Y320664D01*
X212924Y320652D01*
X212936Y320637D01*
X212948Y320629D01*
X212955Y320621D01*
X212986Y320587D01*
X213013Y320549D01*
X213059Y320472D01*
X213090Y320399D01*
X213109Y320326D01*
X213124Y320264D01*
X213128Y320237D01*
Y320214D01*
X213132Y320195D01*
Y320180D01*
Y320172D01*
Y320168D01*
X213128Y320092D01*
X213116Y320022D01*
X213097Y319957D01*
X213078Y319900D01*
X213059Y319853D01*
X213040Y319819D01*
X213028Y319796D01*
X213024Y319788D01*
X212982Y319727D01*
X212936Y319677D01*
X212890Y319635D01*
X212844Y319604D01*
X212805Y319577D01*
X212775Y319558D01*
X212752Y319550D01*
X212748Y319546D01*
X212744D01*
X212709Y319535D01*
X212671Y319523D01*
X212590Y319508D01*
X212506Y319493D01*
X212425Y319485D01*
X212349Y319481D01*
X212318D01*
X212287Y319477D01*
X211116D01*
Y322000D01*
X211450D01*
Y320879D01*
X211880D01*
X211918Y320883D01*
X211949D01*
X211976Y320886D01*
X211995Y320890D01*
X212011D01*
X212018Y320894D01*
X212022D01*
X212080Y320913D01*
X212126Y320936D01*
X212145Y320948D01*
X212160Y320955D01*
X212168Y320959D01*
X212172Y320963D01*
X212203Y320982D01*
X212229Y321009D01*
X212287Y321063D01*
X212306Y321090D01*
X212325Y321113D01*
X212337Y321128D01*
X212341Y321132D01*
X212379Y321182D01*
X212418Y321236D01*
X212460Y321293D01*
X212498Y321351D01*
X212533Y321401D01*
X212560Y321439D01*
X212567Y321455D01*
X212575Y321466D01*
X212583Y321474D01*
Y321478D01*
X212917Y322000D01*
X213335D01*
X212898Y321317D01*
D02*
G37*
G36*
X215156Y321704D02*
X213915D01*
X213957Y321643D01*
X214000Y321593D01*
X214019Y321570D01*
X214034Y321555D01*
X214042Y321543D01*
X214046Y321539D01*
X214065Y321520D01*
X214084Y321501D01*
X214134Y321455D01*
X214195Y321401D01*
X214253Y321347D01*
X214311Y321297D01*
X214357Y321259D01*
X214376Y321244D01*
X214391Y321232D01*
X214399Y321224D01*
X214403Y321220D01*
X214464Y321167D01*
X214518Y321121D01*
X214572Y321075D01*
X214618Y321032D01*
X214660Y320990D01*
X214699Y320955D01*
X214737Y320921D01*
X214768Y320890D01*
X214794Y320863D01*
X214818Y320840D01*
X214852Y320806D01*
X214871Y320783D01*
X214879Y320775D01*
X214929Y320714D01*
X214975Y320660D01*
X215010Y320606D01*
X215037Y320560D01*
X215059Y320522D01*
X215075Y320495D01*
X215083Y320476D01*
X215086Y320468D01*
X215109Y320414D01*
X215125Y320360D01*
X215136Y320310D01*
X215144Y320264D01*
X215148Y320226D01*
X215152Y320195D01*
Y320176D01*
Y320168D01*
X215148Y320115D01*
X215144Y320061D01*
X215117Y319965D01*
X215083Y319880D01*
X215044Y319807D01*
X215006Y319750D01*
X214986Y319727D01*
X214971Y319704D01*
X214956Y319688D01*
X214944Y319677D01*
X214941Y319673D01*
X214937Y319669D01*
X214894Y319635D01*
X214852Y319600D01*
X214806Y319573D01*
X214756Y319550D01*
X214660Y319515D01*
X214568Y319493D01*
X214526Y319481D01*
X214487Y319477D01*
X214453Y319473D01*
X214422Y319469D01*
X214395Y319466D01*
X214361D01*
X214295Y319469D01*
X214234Y319473D01*
X214119Y319496D01*
X214069Y319508D01*
X214019Y319523D01*
X213977Y319542D01*
X213938Y319558D01*
X213904Y319577D01*
X213873Y319592D01*
X213846Y319612D01*
X213823Y319623D01*
X213808Y319635D01*
X213796Y319646D01*
X213789Y319650D01*
X213785Y319654D01*
X213746Y319692D01*
X213716Y319731D01*
X213658Y319819D01*
X213616Y319907D01*
X213585Y319996D01*
X213562Y320072D01*
X213558Y320107D01*
X213550Y320138D01*
X213546Y320161D01*
X213543Y320180D01*
Y320191D01*
Y320195D01*
X213861Y320230D01*
X213869Y320145D01*
X213884Y320072D01*
X213904Y320011D01*
X213931Y319957D01*
X213954Y319915D01*
X213977Y319884D01*
X213992Y319869D01*
X213996Y319861D01*
X214050Y319815D01*
X214107Y319780D01*
X214169Y319758D01*
X214226Y319738D01*
X214276Y319731D01*
X214315Y319727D01*
X214330Y319723D01*
X214353D01*
X214430Y319727D01*
X214499Y319742D01*
X214556Y319761D01*
X214606Y319784D01*
X214645Y319811D01*
X214675Y319830D01*
X214691Y319846D01*
X214699Y319850D01*
X214745Y319900D01*
X214775Y319953D01*
X214798Y320003D01*
X214818Y320053D01*
X214825Y320095D01*
X214829Y320130D01*
X214833Y320153D01*
Y320157D01*
Y320161D01*
X214825Y320226D01*
X214810Y320295D01*
X214787Y320356D01*
X214760Y320414D01*
X214733Y320464D01*
X214710Y320502D01*
X214702Y320518D01*
X214695Y320529D01*
X214687Y320533D01*
Y320537D01*
X214656Y320575D01*
X214622Y320618D01*
X214583Y320660D01*
X214537Y320702D01*
X214445Y320790D01*
X214353Y320879D01*
X214268Y320952D01*
X214230Y320986D01*
X214195Y321013D01*
X214169Y321040D01*
X214149Y321055D01*
X214134Y321067D01*
X214130Y321071D01*
X214038Y321151D01*
X213954Y321224D01*
X213884Y321290D01*
X213827Y321343D01*
X213781Y321390D01*
X213750Y321424D01*
X213731Y321447D01*
X213723Y321451D01*
Y321455D01*
X213673Y321516D01*
X213635Y321574D01*
X213597Y321631D01*
X213570Y321681D01*
X213546Y321727D01*
X213531Y321758D01*
X213524Y321781D01*
X213520Y321785D01*
Y321789D01*
X213508Y321827D01*
X213497Y321866D01*
X213493Y321900D01*
X213489Y321931D01*
X213485Y321958D01*
Y321981D01*
Y321996D01*
Y322000D01*
X215156D01*
Y321704D01*
D02*
G37*
G36*
X235166Y300816D02*
X235116Y300744D01*
X235066Y300678D01*
X235020Y300621D01*
X234978Y300571D01*
X234943Y300532D01*
X234916Y300502D01*
X234897Y300486D01*
X234889Y300479D01*
X234862Y300455D01*
X234828Y300432D01*
X234763Y300390D01*
X234736Y300375D01*
X234713Y300363D01*
X234697Y300356D01*
X234690Y300352D01*
X234755Y300340D01*
X234816Y300329D01*
X234874Y300313D01*
X234924Y300294D01*
X234974Y300275D01*
X235016Y300256D01*
X235058Y300237D01*
X235093Y300218D01*
X235123Y300198D01*
X235150Y300183D01*
X235174Y300164D01*
X235193Y300152D01*
X235204Y300137D01*
X235216Y300129D01*
X235223Y300121D01*
X235254Y300087D01*
X235281Y300048D01*
X235327Y299972D01*
X235358Y299899D01*
X235377Y299826D01*
X235392Y299764D01*
X235396Y299738D01*
Y299714D01*
X235400Y299695D01*
Y299680D01*
Y299672D01*
Y299668D01*
X235396Y299592D01*
X235385Y299522D01*
X235366Y299457D01*
X235346Y299399D01*
X235327Y299354D01*
X235308Y299319D01*
X235296Y299296D01*
X235293Y299288D01*
X235250Y299227D01*
X235204Y299177D01*
X235158Y299135D01*
X235112Y299104D01*
X235074Y299077D01*
X235043Y299058D01*
X235020Y299050D01*
X235016Y299046D01*
X235012D01*
X234978Y299035D01*
X234939Y299023D01*
X234859Y299008D01*
X234774Y298992D01*
X234694Y298985D01*
X234617Y298981D01*
X234586D01*
X234555Y298977D01*
X233384D01*
Y301500D01*
X233718D01*
Y300379D01*
X234148D01*
X234187Y300383D01*
X234217D01*
X234244Y300386D01*
X234263Y300390D01*
X234279D01*
X234286Y300394D01*
X234290D01*
X234348Y300413D01*
X234394Y300436D01*
X234413Y300448D01*
X234429Y300455D01*
X234436Y300459D01*
X234440Y300463D01*
X234471Y300482D01*
X234498Y300509D01*
X234555Y300563D01*
X234574Y300590D01*
X234594Y300613D01*
X234605Y300628D01*
X234609Y300632D01*
X234647Y300682D01*
X234686Y300736D01*
X234728Y300794D01*
X234766Y300851D01*
X234801Y300901D01*
X234828Y300939D01*
X234836Y300955D01*
X234843Y300966D01*
X234851Y300974D01*
Y300978D01*
X235185Y301500D01*
X235603D01*
X235166Y300816D01*
D02*
G37*
G36*
X236963Y298966D02*
X236759D01*
X236725Y299027D01*
X236683Y299089D01*
X236636Y299146D01*
X236590Y299200D01*
X236548Y299242D01*
X236514Y299277D01*
X236491Y299300D01*
X236487Y299304D01*
X236483Y299307D01*
X236410Y299369D01*
X236333Y299426D01*
X236256Y299476D01*
X236187Y299519D01*
X236126Y299553D01*
X236099Y299565D01*
X236076Y299576D01*
X236061Y299588D01*
X236045Y299595D01*
X236037Y299599D01*
X236034D01*
Y299903D01*
X236087Y299880D01*
X236145Y299853D01*
X236199Y299830D01*
X236249Y299803D01*
X236291Y299780D01*
X236326Y299761D01*
X236349Y299745D01*
X236352Y299741D01*
X236356D01*
X236421Y299703D01*
X236479Y299661D01*
X236529Y299626D01*
X236571Y299592D01*
X236606Y299565D01*
X236633Y299546D01*
X236648Y299530D01*
X236652Y299526D01*
Y301500D01*
X236963D01*
Y298966D01*
D02*
G37*
%LPC*%
G36*
X212203Y320591D02*
X211450D01*
Y319758D01*
X212245D01*
X212345Y319761D01*
X212429Y319777D01*
X212498Y319792D01*
X212556Y319815D01*
X212598Y319834D01*
X212633Y319853D01*
X212648Y319869D01*
X212656Y319873D01*
X212698Y319919D01*
X212733Y319969D01*
X212755Y320019D01*
X212771Y320065D01*
X212778Y320107D01*
X212786Y320138D01*
Y320161D01*
Y320164D01*
Y320168D01*
X212782Y320214D01*
X212775Y320257D01*
X212763Y320295D01*
X212752Y320326D01*
X212740Y320356D01*
X212729Y320376D01*
X212721Y320391D01*
X212717Y320395D01*
X212690Y320429D01*
X212660Y320460D01*
X212625Y320487D01*
X212594Y320510D01*
X212567Y320526D01*
X212544Y320537D01*
X212529Y320541D01*
X212521Y320545D01*
X212471Y320560D01*
X212414Y320571D01*
X212352Y320579D01*
X212295Y320583D01*
X212245Y320587D01*
X212203Y320591D01*
D02*
G37*
G36*
X234471Y300091D02*
X233718D01*
Y299257D01*
X234513D01*
X234613Y299261D01*
X234697Y299277D01*
X234766Y299292D01*
X234824Y299315D01*
X234866Y299334D01*
X234901Y299354D01*
X234916Y299369D01*
X234924Y299373D01*
X234966Y299419D01*
X235001Y299469D01*
X235024Y299519D01*
X235039Y299565D01*
X235047Y299607D01*
X235054Y299638D01*
Y299661D01*
Y299664D01*
Y299668D01*
X235051Y299714D01*
X235043Y299757D01*
X235031Y299795D01*
X235020Y299826D01*
X235008Y299856D01*
X234997Y299876D01*
X234989Y299891D01*
X234985Y299895D01*
X234958Y299929D01*
X234928Y299960D01*
X234893Y299987D01*
X234862Y300010D01*
X234836Y300026D01*
X234812Y300037D01*
X234797Y300041D01*
X234789Y300045D01*
X234740Y300060D01*
X234682Y300072D01*
X234620Y300079D01*
X234563Y300083D01*
X234513Y300087D01*
X234471Y300091D01*
D02*
G37*
%LPD*%
D13*
X228889Y490196D02*
X233111D01*
Y482036D02*
Y490196D01*
X228889Y482036D02*
X233111D01*
X228889D02*
Y490196D01*
X215389Y482420D02*
X219611D01*
X215389D02*
Y490580D01*
X219611D01*
Y482420D02*
Y490580D01*
X204389Y482420D02*
X208611D01*
X204389D02*
Y490580D01*
X208611D01*
Y482420D02*
Y490580D01*
X193477Y448968D02*
Y459032D01*
X176523Y448968D02*
X193477D01*
X176523D02*
Y459032D01*
X193477D01*
X188080Y434389D02*
Y438611D01*
X179920Y434389D02*
X188080D01*
X179920D02*
Y438611D01*
X188080D01*
X298908Y449024D02*
Y451976D01*
X293111Y449024D02*
X298908D01*
X293111D02*
Y451976D01*
X298908D01*
X194389Y482420D02*
X198611D01*
X194389D02*
Y490580D01*
X198611D01*
Y482420D02*
Y490580D01*
X356536Y417889D02*
Y422111D01*
X364696D01*
Y417889D02*
Y422111D01*
X356536Y417889D02*
X364696D01*
X345889Y432080D02*
X350111D01*
Y423920D02*
Y432080D01*
X345889Y423920D02*
X350111D01*
X345889D02*
Y432080D01*
X371889Y432580D02*
X376111D01*
Y424420D02*
Y432580D01*
X371889Y424420D02*
X376111D01*
X371889D02*
Y432580D01*
X207036Y319889D02*
Y324111D01*
X215196D01*
Y319889D02*
Y324111D01*
X207036Y319889D02*
X215196D01*
X219968Y317523D02*
X230032D01*
X219968D02*
Y334477D01*
X230032D01*
Y317523D02*
Y334477D01*
X229304Y299389D02*
Y303611D01*
X237464D01*
Y299389D02*
Y303611D01*
X229304Y299389D02*
X237464D01*
M02*
