G04*
G04 #@! TF.GenerationSoftware,Altium Limited,Altium Designer,20.0.2 (26)*
G04*
G04 Layer_Color=32896*
%FSLAX25Y25*%
%MOIN*%
G70*
G01*
G75*
%ADD14C,0.00394*%
D14*
X229031Y486116D02*
X232968D01*
X231000Y484147D02*
Y488084D01*
X215531Y486500D02*
X219468D01*
X217500Y484531D02*
Y488469D01*
X204532Y486500D02*
X208469D01*
X206500Y484531D02*
Y488469D01*
X185000Y452032D02*
Y455969D01*
X183031Y454000D02*
X186969D01*
X184000Y434531D02*
Y438469D01*
X182032Y436500D02*
X185968D01*
X296010Y448531D02*
Y452468D01*
X294041Y450500D02*
X297978D01*
X296010Y448531D02*
Y452468D01*
X294041Y450500D02*
X297978D01*
X194532Y486500D02*
X198468D01*
X196500Y484531D02*
Y488469D01*
X360616Y418032D02*
Y421969D01*
X358647Y420000D02*
X362584D01*
X346031Y428000D02*
X349969D01*
X348000Y426031D02*
Y429969D01*
X372031Y428500D02*
X375969D01*
X374000Y426532D02*
Y430469D01*
X211116Y320031D02*
Y323969D01*
X209147Y322000D02*
X213084D01*
X223031Y326000D02*
X226969D01*
X225000Y324031D02*
Y327969D01*
X233384Y299532D02*
Y303468D01*
X231416Y301500D02*
X235353D01*
M02*
