G04*
G04 #@! TF.GenerationSoftware,Altium Limited,Altium Designer,20.0.2 (26)*
G04*
G04 Layer_Color=16711935*
%FSLAX25Y25*%
%MOIN*%
G70*
G01*
G75*
%ADD13C,0.00787*%
D13*
X228889Y490196D02*
X233111D01*
Y482036D02*
Y490196D01*
X228889Y482036D02*
X233111D01*
X228889D02*
Y490196D01*
X215389Y482420D02*
X219611D01*
X215389D02*
Y490580D01*
X219611D01*
Y482420D02*
Y490580D01*
X204389Y482420D02*
X208611D01*
X204389D02*
Y490580D01*
X208611D01*
Y482420D02*
Y490580D01*
X193477Y448968D02*
Y459032D01*
X176523Y448968D02*
X193477D01*
X176523D02*
Y459032D01*
X193477D01*
X188080Y434389D02*
Y438611D01*
X179920Y434389D02*
X188080D01*
X179920D02*
Y438611D01*
X188080D01*
X298908Y449024D02*
Y451976D01*
X293111Y449024D02*
X298908D01*
X293111D02*
Y451976D01*
X298908D01*
X194389Y482420D02*
X198611D01*
X194389D02*
Y490580D01*
X198611D01*
Y482420D02*
Y490580D01*
X356536Y417889D02*
Y422111D01*
X364696D01*
Y417889D02*
Y422111D01*
X356536Y417889D02*
X364696D01*
X345889Y432080D02*
X350111D01*
Y423920D02*
Y432080D01*
X345889Y423920D02*
X350111D01*
X345889D02*
Y432080D01*
X371889Y432580D02*
X376111D01*
Y424420D02*
Y432580D01*
X371889Y424420D02*
X376111D01*
X371889D02*
Y432580D01*
X207036Y319889D02*
Y324111D01*
X215196D01*
Y319889D02*
Y324111D01*
X207036Y319889D02*
X215196D01*
X219968Y317523D02*
X230032D01*
X219968D02*
Y334477D01*
X230032D01*
Y317523D02*
Y334477D01*
X229304Y299389D02*
Y303611D01*
X237464D01*
Y299389D02*
Y303611D01*
X229304Y299389D02*
X237464D01*
M02*
