G04*
G04 #@! TF.GenerationSoftware,Altium Limited,Altium Designer,20.0.2 (26)*
G04*
G04 Layer_Color=8421504*
%FSLAX25Y25*%
%MOIN*%
G70*
G01*
G75*
%ADD17R,0.05118X0.02362*%
%ADD18R,0.03150X0.02362*%
%ADD19R,0.01575X0.05315*%
%ADD20R,0.08268X0.06299*%
%ADD21R,0.07087X0.07480*%
%ADD22R,0.07480X0.07480*%
%ADD23R,0.02756X0.04724*%
%ADD24R,0.05906X0.03543*%
%ADD25R,0.02756X0.02756*%
%ADD26R,0.02717X0.02835*%
%ADD27R,0.02717X0.02835*%
%ADD28R,0.02953X0.03347*%
%ADD29R,0.04331X0.07480*%
G36*
X190512Y448681D02*
Y446319D01*
X188150Y443957D01*
X178701D01*
X176339Y446319D01*
Y448681D01*
X178701Y451043D01*
X188150D01*
X190512Y448681D01*
D02*
G37*
D17*
X191102Y441595D02*
D03*
Y453406D02*
D03*
D18*
X192087Y447500D02*
D03*
D19*
X210961Y483968D02*
D03*
X213520D02*
D03*
X208402D02*
D03*
X216079D02*
D03*
X205842D02*
D03*
D20*
X223165Y484461D02*
D03*
X198756D02*
D03*
D21*
X225921Y494500D02*
D03*
X196000D02*
D03*
D22*
X215685D02*
D03*
X206236D02*
D03*
D23*
X261343Y479205D02*
D03*
X251500D02*
D03*
X241657D02*
D03*
D24*
X329441Y492410D02*
D03*
Y486504D02*
D03*
Y480598D02*
D03*
Y474693D02*
D03*
Y468787D02*
D03*
Y462882D02*
D03*
Y456976D02*
D03*
Y451071D02*
D03*
Y445165D02*
D03*
X398339D02*
D03*
Y451071D02*
D03*
Y456976D02*
D03*
Y462882D02*
D03*
Y468787D02*
D03*
Y474693D02*
D03*
Y480598D02*
D03*
Y486504D02*
D03*
Y492410D02*
D03*
D25*
X367669Y468000D02*
D03*
X372000D02*
D03*
Y472331D02*
D03*
X367669D02*
D03*
X363339D02*
D03*
Y468000D02*
D03*
Y463669D02*
D03*
X367669D02*
D03*
X372000D02*
D03*
D26*
X294500Y419000D02*
D03*
X298122D02*
D03*
D27*
X295000Y436500D02*
D03*
X298858D02*
D03*
D28*
X371921Y433000D02*
D03*
X367000D02*
D03*
X332039D02*
D03*
X336961D02*
D03*
D29*
X357921D02*
D03*
X348079D02*
D03*
M02*
