M48
;Layer_Color=9474304
;FILE_FORMAT=2:5
INCH,TZ
;TYPE=PLATED
T1F00S00C0.02800
T2F00S00C0.02913
T3F00S00C0.03000
T4F00S00C0.03346
T5F00S00C0.03543
T6F00S00C0.03740
T7F00S00C0.03937
T8F00S00C0.04016
T9F00S00C0.05118
T10F00S00C0.05157
%
T01
X346500Y265500
X298729Y382500
X291000Y390500
X279000Y393000
X293500Y404000
X302500Y399500
X295000Y427358
X278000Y443500
X266893Y418607
X230500Y468000
X196500Y468500
X200500Y447500
X359461Y448961
X386712Y449212
X318500Y379500
X364000Y496000
X381500Y485500
X390500Y488000
X245000Y495000
X226000Y475500
X217000Y471500
X206500
T02
X286500Y470000
Y480000
Y490000
T03
X426500Y246500
X107000Y248500
X428000Y495000
X106500Y493500
T04
X107000Y447000
X166055
T05
X318000Y247500
X328000
X338000
X348000
X378000Y263000
Y273000
Y283000
Y293000
X309000Y297000
Y287000
Y277000
Y307000
X308500Y335500
Y345500
Y355500
Y365500
X291000Y376000
X281000
X271000
X253500Y399500
X243500
X233500
X223500
X188496Y412059
Y384500
X157000
Y412059
X206500Y462000
X216500
X306500Y464000
Y454000
Y444000
Y434000
Y424000
Y414000
X312500Y390500
X322500
X332500
X342500
X352500
X362500
X378000Y380000
Y370000
Y360000
Y350000
X419000Y414000
Y424000
Y434000
Y444000
Y454000
Y464000
Y474000
Y484000
Y494000
X306500
Y484000
Y474000
T06
X284661Y256618
X117339Y286146
Y316854
X284661Y346382
T07
X117500Y387472
Y417000
X217410Y410000
Y427716
X243000
X254705Y427858
Y410142
X243000Y410000
X280295Y410142
Y427858
X332705Y422858
Y405142
X358295
Y422858
T08
X362500Y251500
X363500Y300500
X254500Y370000
X236000
X216500Y369500
T09
X157500Y482000
X177500
X132000Y482500
X112000
T10
X238532Y450500
X250500
X262469
M30
