G04*
G04 #@! TF.GenerationSoftware,Altium Limited,Altium Designer,20.0.2 (26)*
G04*
G04 Layer_Color=128*
%FSLAX25Y25*%
%MOIN*%
G70*
G01*
G75*
%ADD17R,0.01968X0.01772*%
%ADD18R,0.02816X0.02648*%
%ADD24R,0.02717X0.02835*%
%ADD76R,0.02029X0.01860*%
%ADD77R,0.04331X0.07480*%
%ADD78R,0.03150X0.02362*%
%ADD79R,0.05727X0.06127*%
%ADD80R,0.08071X0.10433*%
%ADD81R,0.08465X0.15748*%
%ADD82R,0.02362X0.05118*%
%ADD83R,0.02362X0.03150*%
%ADD84R,0.06127X0.05727*%
%ADD85R,0.02835X0.02717*%
%ADD86R,0.02648X0.02816*%
G36*
X229043Y287650D02*
Y278201D01*
X226681Y275839D01*
X224319D01*
X221957Y278201D01*
Y287650D01*
X224319Y290012D01*
X226681D01*
X229043Y287650D01*
D02*
G37*
D17*
X282524Y450500D02*
D03*
X285476D02*
D03*
D18*
X290000Y418500D02*
D03*
X293768D02*
D03*
X192384Y433500D02*
D03*
X188616D02*
D03*
X320116Y401000D02*
D03*
X323884D02*
D03*
X359384Y435000D02*
D03*
X355616D02*
D03*
X386616D02*
D03*
X390384D02*
D03*
X231500Y301500D02*
D03*
X235268D02*
D03*
X209116Y322500D02*
D03*
X212884D02*
D03*
D24*
X231689Y310000D02*
D03*
X235311D02*
D03*
D76*
X295990Y450500D02*
D03*
X293010D02*
D03*
D77*
X377421Y435000D02*
D03*
X367579D02*
D03*
D78*
X256000Y490059D02*
D03*
Y484941D02*
D03*
D79*
X188645Y454000D02*
D03*
X181355D02*
D03*
D80*
X131244Y465500D02*
D03*
X111756D02*
D03*
D81*
X260500Y300811D02*
D03*
Y327189D02*
D03*
D82*
X231406Y290602D02*
D03*
X219594D02*
D03*
D83*
X225500Y291587D02*
D03*
D84*
Y322355D02*
D03*
Y329645D02*
D03*
D85*
X241000Y485189D02*
D03*
Y488811D02*
D03*
D86*
X206500Y484616D02*
D03*
Y488384D02*
D03*
X217500Y484616D02*
D03*
Y488384D02*
D03*
X231000Y488000D02*
D03*
Y484232D02*
D03*
X196500Y484616D02*
D03*
Y488384D02*
D03*
M02*
