G04*
G04 #@! TF.GenerationSoftware,Altium Limited,Altium Designer,20.0.2 (26)*
G04*
G04 Layer_Physical_Order=2*
G04 Layer_Color=16711680*
%FSLAX25Y25*%
%MOIN*%
G70*
G01*
G75*
%ADD16C,0.01000*%
%ADD17R,0.01968X0.01772*%
%ADD18R,0.02816X0.02648*%
%ADD24R,0.02717X0.02835*%
%ADD55R,0.05709X0.05709*%
%ADD56C,0.05709*%
%ADD57C,0.06181*%
%ADD62C,0.05937*%
%ADD63R,0.05937X0.05937*%
%ADD64C,0.05512*%
%ADD65C,0.07736*%
%ADD66R,0.07736X0.07736*%
%ADD67R,0.07087X0.07087*%
%ADD68C,0.07087*%
%ADD69C,0.04724*%
%ADD70C,0.05906*%
%ADD71R,0.05906X0.05906*%
%ADD72R,0.05906X0.05906*%
%ADD73C,0.04996*%
%ADD74C,0.06000*%
%ADD75C,0.05000*%
%ADD76R,0.02029X0.01860*%
%ADD77R,0.04331X0.07480*%
%ADD78R,0.03150X0.02362*%
%ADD79R,0.05727X0.06127*%
%ADD80R,0.08071X0.10433*%
%ADD81R,0.08465X0.15748*%
%ADD82R,0.02362X0.05118*%
%ADD83R,0.02362X0.03150*%
%ADD84R,0.06127X0.05727*%
%ADD85R,0.02835X0.02717*%
%ADD86R,0.02648X0.02816*%
G36*
X432500Y240000D02*
X100000D01*
Y500000D01*
X212386D01*
X212593Y499500D01*
X205708Y492615D01*
X205465Y492252D01*
X205380Y491823D01*
Y490391D01*
X204578D01*
Y486378D01*
Y482609D01*
X205380D01*
Y474390D01*
X204937Y474206D01*
X204290Y473710D01*
X203794Y473063D01*
X203481Y472309D01*
X203375Y471500D01*
X203481Y470691D01*
X203794Y469937D01*
X204290Y469290D01*
X204937Y468793D01*
X205691Y468481D01*
X206500Y468375D01*
X207309Y468481D01*
X208063Y468793D01*
X208710Y469290D01*
X209206Y469937D01*
X209519Y470691D01*
X209625Y471500D01*
X209519Y472309D01*
X209206Y473063D01*
X208710Y473710D01*
X208063Y474206D01*
X207620Y474390D01*
Y482609D01*
X208422D01*
Y486378D01*
Y490391D01*
X207620D01*
Y491359D01*
X214141Y497880D01*
X242842D01*
X243012Y497380D01*
X242790Y497210D01*
X242294Y496563D01*
X242110Y496120D01*
X220677D01*
X220248Y496035D01*
X219885Y495792D01*
X216708Y492615D01*
X216465Y492252D01*
X216380Y491823D01*
Y490391D01*
X215578D01*
Y486378D01*
Y482609D01*
X215880D01*
Y474390D01*
X215437Y474206D01*
X214790Y473710D01*
X214294Y473063D01*
X213981Y472309D01*
X213875Y471500D01*
X213981Y470691D01*
X214294Y469937D01*
X214790Y469290D01*
X215437Y468793D01*
X216191Y468481D01*
X217000Y468375D01*
X217809Y468481D01*
X218563Y468793D01*
X219210Y469290D01*
X219706Y469937D01*
X220019Y470691D01*
X220125Y471500D01*
X220019Y472309D01*
X219706Y473063D01*
X219210Y473710D01*
X218563Y474206D01*
X218120Y474390D01*
Y482609D01*
X219422D01*
Y486378D01*
Y490391D01*
X218620D01*
Y491359D01*
X221141Y493880D01*
X242110D01*
X242294Y493437D01*
X242790Y492790D01*
X243437Y492294D01*
X244191Y491981D01*
X245000Y491875D01*
X245809Y491981D01*
X246563Y492294D01*
X247210Y492790D01*
X247706Y493437D01*
X248019Y494191D01*
X248125Y495000D01*
X248019Y495809D01*
X247706Y496563D01*
X247210Y497210D01*
X246988Y497380D01*
X247158Y497880D01*
X305281D01*
X305381Y497380D01*
X304709Y497102D01*
X303967Y496533D01*
X303398Y495791D01*
X303040Y494927D01*
X302918Y494000D01*
X303040Y493073D01*
X303318Y492402D01*
X290619Y479703D01*
X290376Y479340D01*
X290291Y478911D01*
Y471294D01*
X289791Y471195D01*
X289556Y471764D01*
X288995Y472495D01*
X288264Y473056D01*
X287413Y473408D01*
X287000Y473462D01*
Y470000D01*
Y466538D01*
X287413Y466592D01*
X288264Y466945D01*
X288995Y467505D01*
X289556Y468236D01*
X289791Y468805D01*
X290291Y468706D01*
Y463875D01*
X281830Y455414D01*
X281587Y455051D01*
X281502Y454622D01*
Y451984D01*
X280941D01*
Y449016D01*
X281404D01*
Y448488D01*
X279252Y446335D01*
X278809Y446519D01*
X278000Y446625D01*
X277191Y446519D01*
X276437Y446207D01*
X275790Y445710D01*
X275294Y445063D01*
X274981Y444309D01*
X274875Y443500D01*
X274981Y442691D01*
X275165Y442248D01*
X274036Y441120D01*
X198884D01*
X198456Y441035D01*
X198092Y440792D01*
X192723Y435422D01*
X189765D01*
Y450338D01*
X192107D01*
Y452880D01*
X193536D01*
X197665Y448751D01*
X197481Y448309D01*
X197375Y447500D01*
X197481Y446691D01*
X197794Y445937D01*
X198290Y445290D01*
X198937Y444794D01*
X199691Y444481D01*
X200500Y444375D01*
X201309Y444481D01*
X202063Y444794D01*
X202710Y445290D01*
X203206Y445937D01*
X203519Y446691D01*
X203625Y447500D01*
X203519Y448309D01*
X203206Y449063D01*
X202710Y449710D01*
X202063Y450207D01*
X201309Y450519D01*
X200500Y450625D01*
X199691Y450519D01*
X199249Y450335D01*
X194792Y454792D01*
X194429Y455035D01*
X194000Y455120D01*
X192107D01*
Y457662D01*
X185219D01*
Y458063D01*
X181855D01*
Y454000D01*
Y449937D01*
X185219D01*
Y450338D01*
X187525D01*
Y435422D01*
X186609D01*
Y431578D01*
X194391D01*
Y433923D01*
X199348Y438880D01*
X274500D01*
X274929Y438965D01*
X275292Y439208D01*
X276748Y440665D01*
X277191Y440481D01*
X277711Y440413D01*
X277890Y439885D01*
X275125Y437120D01*
X251284D01*
X250855Y437035D01*
X250492Y436792D01*
X244610Y430910D01*
X243931Y431191D01*
X243000Y431314D01*
X242069Y431191D01*
X241201Y430832D01*
X240456Y430260D01*
X239884Y429515D01*
X239603Y428836D01*
X220807D01*
X220525Y429515D01*
X219953Y430260D01*
X219208Y430832D01*
X218341Y431191D01*
X217410Y431314D01*
X216478Y431191D01*
X215611Y430832D01*
X214866Y430260D01*
X214294Y429515D01*
X213934Y428648D01*
X213812Y427716D01*
X213934Y426785D01*
X214294Y425918D01*
X214866Y425173D01*
X215611Y424601D01*
X216478Y424241D01*
X217410Y424119D01*
X218341Y424241D01*
X219208Y424601D01*
X219953Y425173D01*
X220525Y425918D01*
X220807Y426596D01*
X239603D01*
X239884Y425918D01*
X240456Y425173D01*
X241201Y424601D01*
X242069Y424241D01*
X243000Y424119D01*
X243931Y424241D01*
X244799Y424601D01*
X245544Y425173D01*
X246116Y425918D01*
X246475Y426785D01*
X246598Y427716D01*
X246475Y428648D01*
X246194Y429326D01*
X251747Y434880D01*
X275589D01*
X276017Y434965D01*
X276381Y435208D01*
X286268Y445096D01*
X286511Y445459D01*
X286596Y445888D01*
Y449016D01*
X287059D01*
Y449380D01*
X291397D01*
Y448972D01*
X293976D01*
Y448570D01*
X295490D01*
Y450500D01*
Y452430D01*
X294129D01*
Y471546D01*
X304015Y481431D01*
X304709Y480898D01*
X305573Y480540D01*
X306500Y480418D01*
X307427Y480540D01*
X308291Y480898D01*
X309033Y481467D01*
X309602Y482209D01*
X309960Y483073D01*
X310082Y484000D01*
X309960Y484927D01*
X309602Y485791D01*
X309033Y486533D01*
X308291Y487102D01*
X307427Y487460D01*
X306500Y487582D01*
X305573Y487460D01*
X304709Y487102D01*
X303967Y486533D01*
X303398Y485791D01*
X303040Y484927D01*
X302918Y484000D01*
X302976Y483560D01*
X292993Y473577D01*
X292531Y473768D01*
Y478447D01*
X304902Y490818D01*
X305573Y490540D01*
X306500Y490418D01*
X307427Y490540D01*
X308291Y490898D01*
X309033Y491467D01*
X309602Y492209D01*
X309960Y493073D01*
X310082Y494000D01*
X309960Y494927D01*
X309602Y495791D01*
X309033Y496533D01*
X308291Y497102D01*
X307619Y497380D01*
X307719Y497880D01*
X360536D01*
X361165Y497252D01*
X360981Y496809D01*
X360875Y496000D01*
X360981Y495191D01*
X361294Y494437D01*
X361790Y493790D01*
X362437Y493294D01*
X363191Y492981D01*
X364000Y492875D01*
X364809Y492981D01*
X365563Y493294D01*
X366210Y493790D01*
X366706Y494437D01*
X367019Y495191D01*
X367125Y496000D01*
X367019Y496809D01*
X366706Y497563D01*
X366210Y498210D01*
X365563Y498706D01*
X364809Y499019D01*
X364000Y499125D01*
X363191Y499019D01*
X362749Y498835D01*
X362084Y499500D01*
X362291Y500000D01*
X432500D01*
Y240000D01*
D02*
G37*
G36*
X291890Y461653D02*
Y452029D01*
X291397D01*
Y451620D01*
X287059D01*
Y451984D01*
X283742D01*
Y454158D01*
X291428Y461844D01*
X291890Y461653D01*
D02*
G37*
%LPC*%
G36*
X428000Y498629D02*
X427061Y498506D01*
X426185Y498143D01*
X425434Y497566D01*
X424857Y496815D01*
X424494Y495939D01*
X424371Y495000D01*
X424494Y494061D01*
X424857Y493185D01*
X425434Y492434D01*
X426185Y491857D01*
X427061Y491494D01*
X428000Y491371D01*
X428939Y491494D01*
X429815Y491857D01*
X430566Y492434D01*
X431143Y493185D01*
X431506Y494061D01*
X431629Y495000D01*
X431506Y495939D01*
X431143Y496815D01*
X430566Y497566D01*
X429815Y498143D01*
X428939Y498506D01*
X428000Y498629D01*
D02*
G37*
G36*
X286500Y493123D02*
X285692Y493017D01*
X284938Y492705D01*
X284292Y492208D01*
X283795Y491562D01*
X283625Y491149D01*
X258173D01*
Y491839D01*
X253827D01*
Y488279D01*
X258173D01*
Y488910D01*
X283600D01*
X283795Y488438D01*
X284292Y487792D01*
X284938Y487295D01*
X285692Y486983D01*
X286500Y486877D01*
X287308Y486983D01*
X288062Y487295D01*
X288708Y487792D01*
X289205Y488438D01*
X289517Y489192D01*
X289623Y490000D01*
X289517Y490808D01*
X289205Y491562D01*
X288708Y492208D01*
X288062Y492705D01*
X287308Y493017D01*
X286500Y493123D01*
D02*
G37*
G36*
X422551Y497551D02*
X415449D01*
Y490449D01*
X422551D01*
Y497551D01*
D02*
G37*
G36*
X106500Y497129D02*
X105561Y497006D01*
X104685Y496643D01*
X103934Y496066D01*
X103357Y495315D01*
X102994Y494439D01*
X102871Y493500D01*
X102994Y492561D01*
X103357Y491685D01*
X103934Y490934D01*
X104685Y490357D01*
X105561Y489994D01*
X106500Y489871D01*
X107439Y489994D01*
X108315Y490357D01*
X109066Y490934D01*
X109643Y491685D01*
X110006Y492561D01*
X110129Y493500D01*
X110006Y494439D01*
X109643Y495315D01*
X109066Y496066D01*
X108315Y496643D01*
X107439Y497006D01*
X106500Y497129D01*
D02*
G37*
G36*
X243417Y491169D02*
X241500D01*
Y489311D01*
X243417D01*
Y491169D01*
D02*
G37*
G36*
X240500D02*
X238583D01*
Y489311D01*
X240500D01*
Y491169D01*
D02*
G37*
G36*
X198824Y490792D02*
X197000D01*
Y488884D01*
X198824D01*
Y490792D01*
D02*
G37*
G36*
X196000D02*
X194176D01*
Y488884D01*
X196000D01*
Y490792D01*
D02*
G37*
G36*
X381500Y488625D02*
X380691Y488519D01*
X379937Y488206D01*
X379290Y487710D01*
X378794Y487063D01*
X378481Y486309D01*
X378375Y485500D01*
X378481Y484691D01*
X378701Y484160D01*
X354824Y460283D01*
X354581Y459920D01*
X354496Y459491D01*
Y436922D01*
X353609D01*
Y433078D01*
X361391D01*
Y433880D01*
X364815D01*
Y430661D01*
X370342D01*
Y439339D01*
X364815D01*
Y436120D01*
X361391D01*
Y436922D01*
X360542D01*
Y446055D01*
X361023Y446254D01*
X361670Y446751D01*
X362167Y447398D01*
X362479Y448152D01*
X362586Y448961D01*
X362479Y449769D01*
X362167Y450523D01*
X361670Y451170D01*
X361023Y451667D01*
X360269Y451979D01*
X359461Y452086D01*
X358652Y451979D01*
X357898Y451667D01*
X357251Y451170D01*
X357236Y451151D01*
X356736Y451321D01*
Y459027D01*
X380337Y482628D01*
X380691Y482481D01*
X381500Y482375D01*
X382309Y482481D01*
X383063Y482794D01*
X383710Y483290D01*
X384206Y483937D01*
X384519Y484691D01*
X384625Y485500D01*
X384519Y486309D01*
X384206Y487063D01*
X383710Y487710D01*
X383063Y488206D01*
X382309Y488519D01*
X381500Y488625D01*
D02*
G37*
G36*
X419000Y487582D02*
X418073Y487460D01*
X417209Y487102D01*
X416467Y486533D01*
X415898Y485791D01*
X415540Y484927D01*
X415418Y484000D01*
X415540Y483073D01*
X415898Y482209D01*
X416467Y481467D01*
X417209Y480898D01*
X418073Y480540D01*
X419000Y480418D01*
X419927Y480540D01*
X420791Y480898D01*
X421533Y481467D01*
X422102Y482209D01*
X422460Y483073D01*
X422582Y484000D01*
X422460Y484927D01*
X422102Y485791D01*
X421533Y486533D01*
X420791Y487102D01*
X419927Y487460D01*
X419000Y487582D01*
D02*
G37*
G36*
X136142Y486642D02*
X127858D01*
Y478358D01*
X136142D01*
Y486642D01*
D02*
G37*
G36*
X181642Y486142D02*
X173358D01*
Y477858D01*
X181642D01*
Y486142D01*
D02*
G37*
G36*
X157500Y486177D02*
X156419Y486035D01*
X155411Y485618D01*
X154546Y484954D01*
X153882Y484089D01*
X153465Y483081D01*
X153323Y482000D01*
X153465Y480919D01*
X153882Y479911D01*
X154546Y479046D01*
X155411Y478382D01*
X156419Y477965D01*
X157500Y477823D01*
X158581Y477965D01*
X159589Y478382D01*
X160454Y479046D01*
X161118Y479911D01*
X161535Y480919D01*
X161677Y482000D01*
X161535Y483081D01*
X161118Y484089D01*
X160454Y484954D01*
X159589Y485618D01*
X158581Y486035D01*
X157500Y486177D01*
D02*
G37*
G36*
X286500Y483123D02*
X285692Y483017D01*
X284938Y482705D01*
X284292Y482208D01*
X283795Y481562D01*
X283483Y480808D01*
X283377Y480000D01*
X283483Y479192D01*
X283795Y478438D01*
X284292Y477792D01*
X284938Y477295D01*
X285692Y476983D01*
X286500Y476877D01*
X287308Y476983D01*
X288062Y477295D01*
X288708Y477792D01*
X289205Y478438D01*
X289517Y479192D01*
X289623Y480000D01*
X289517Y480808D01*
X289205Y481562D01*
X288708Y482208D01*
X288062Y482705D01*
X287308Y483017D01*
X286500Y483123D01*
D02*
G37*
G36*
X232922Y490007D02*
X229078D01*
Y485993D01*
Y482225D01*
X229880D01*
Y480964D01*
X227252Y478335D01*
X226809Y478519D01*
X226000Y478625D01*
X225191Y478519D01*
X224437Y478206D01*
X223790Y477710D01*
X223294Y477063D01*
X222981Y476309D01*
X222875Y475500D01*
X222981Y474691D01*
X223294Y473937D01*
X223790Y473290D01*
X224437Y472793D01*
X225191Y472481D01*
X226000Y472375D01*
X226809Y472481D01*
X227563Y472793D01*
X228210Y473290D01*
X228706Y473937D01*
X229019Y474691D01*
X229125Y475500D01*
X229019Y476309D01*
X228835Y476752D01*
X231792Y479708D01*
X232035Y480071D01*
X232120Y480500D01*
Y482225D01*
X232922D01*
Y486880D01*
X234513D01*
X236996Y484397D01*
X237359Y484154D01*
X237788Y484069D01*
X238984D01*
Y483232D01*
X239880D01*
Y478964D01*
X231751Y470835D01*
X231309Y471019D01*
X230500Y471125D01*
X229691Y471019D01*
X228937Y470707D01*
X228290Y470210D01*
X227794Y469563D01*
X227481Y468809D01*
X227375Y468000D01*
X227481Y467191D01*
X227794Y466437D01*
X228290Y465790D01*
X228937Y465294D01*
X229691Y464981D01*
X230500Y464875D01*
X231309Y464981D01*
X232063Y465294D01*
X232710Y465790D01*
X233206Y466437D01*
X233519Y467191D01*
X233625Y468000D01*
X233519Y468809D01*
X233335Y469251D01*
X241792Y477708D01*
X242035Y478071D01*
X242120Y478500D01*
Y483232D01*
X243016D01*
Y486453D01*
X243417D01*
Y488311D01*
X241000D01*
X238583D01*
Y486685D01*
X238083Y486478D01*
X235769Y488792D01*
X235405Y489035D01*
X234977Y489120D01*
X232922D01*
Y490007D01*
D02*
G37*
G36*
X286000Y473462D02*
X285587Y473408D01*
X284736Y473056D01*
X284005Y472495D01*
X283444Y471764D01*
X283092Y470913D01*
X283038Y470500D01*
X286000D01*
Y473462D01*
D02*
G37*
G36*
X419000Y477582D02*
X418073Y477460D01*
X417209Y477102D01*
X416467Y476533D01*
X415898Y475791D01*
X415540Y474927D01*
X415418Y474000D01*
X415540Y473073D01*
X415898Y472209D01*
X416467Y471467D01*
X417209Y470898D01*
X418073Y470540D01*
X419000Y470418D01*
X419927Y470540D01*
X420791Y470898D01*
X421533Y471467D01*
X422102Y472209D01*
X422460Y473073D01*
X422582Y474000D01*
X422460Y474927D01*
X422102Y475791D01*
X421533Y476533D01*
X420791Y477102D01*
X419927Y477460D01*
X419000Y477582D01*
D02*
G37*
G36*
X306500D02*
X305573Y477460D01*
X304709Y477102D01*
X303967Y476533D01*
X303398Y475791D01*
X303040Y474927D01*
X302918Y474000D01*
X303040Y473073D01*
X303398Y472209D01*
X303967Y471467D01*
X304709Y470898D01*
X305573Y470540D01*
X306500Y470418D01*
X307427Y470540D01*
X308291Y470898D01*
X309033Y471467D01*
X309602Y472209D01*
X309960Y473073D01*
X310082Y474000D01*
X309960Y474927D01*
X309602Y475791D01*
X309033Y476533D01*
X308291Y477102D01*
X307427Y477460D01*
X306500Y477582D01*
D02*
G37*
G36*
X286000Y469500D02*
X283038D01*
X283092Y469087D01*
X283444Y468236D01*
X284005Y467505D01*
X284736Y466945D01*
X285587Y466592D01*
X286000Y466538D01*
Y469500D01*
D02*
G37*
G36*
X198824Y487884D02*
X196500D01*
X194176D01*
Y485976D01*
X194578D01*
Y482609D01*
X195380D01*
Y471390D01*
X194937Y471207D01*
X194290Y470710D01*
X193794Y470063D01*
X193481Y469309D01*
X193375Y468500D01*
X193481Y467691D01*
X193794Y466937D01*
X194290Y466290D01*
X194937Y465794D01*
X195691Y465481D01*
X196500Y465375D01*
X197309Y465481D01*
X198063Y465794D01*
X198710Y466290D01*
X199206Y466937D01*
X199519Y467691D01*
X199625Y468500D01*
X199519Y469309D01*
X199206Y470063D01*
X198710Y470710D01*
X198063Y471207D01*
X197620Y471390D01*
Y482609D01*
X198422D01*
Y485976D01*
X198824D01*
Y487884D01*
D02*
G37*
G36*
X207000Y465921D02*
Y462500D01*
X210421D01*
X210351Y463032D01*
X209953Y463993D01*
X209319Y464819D01*
X208493Y465453D01*
X207532Y465851D01*
X207000Y465921D01*
D02*
G37*
G36*
X206000D02*
X205468Y465851D01*
X204507Y465453D01*
X203681Y464819D01*
X203047Y463993D01*
X202649Y463032D01*
X202579Y462500D01*
X206000D01*
Y465921D01*
D02*
G37*
G36*
X419000Y467582D02*
X418073Y467460D01*
X417209Y467102D01*
X416467Y466533D01*
X415898Y465791D01*
X415540Y464927D01*
X415418Y464000D01*
X415540Y463073D01*
X415898Y462209D01*
X416467Y461467D01*
X417209Y460898D01*
X418073Y460540D01*
X419000Y460418D01*
X419927Y460540D01*
X420791Y460898D01*
X421533Y461467D01*
X422102Y462209D01*
X422460Y463073D01*
X422582Y464000D01*
X422460Y464927D01*
X422102Y465791D01*
X421533Y466533D01*
X420791Y467102D01*
X419927Y467460D01*
X419000Y467582D01*
D02*
G37*
G36*
X306500D02*
X305573Y467460D01*
X304709Y467102D01*
X303967Y466533D01*
X303398Y465791D01*
X303040Y464927D01*
X302918Y464000D01*
X303040Y463073D01*
X303398Y462209D01*
X303967Y461467D01*
X304709Y460898D01*
X305573Y460540D01*
X306500Y460418D01*
X307427Y460540D01*
X308291Y460898D01*
X309033Y461467D01*
X309602Y462209D01*
X309960Y463073D01*
X310082Y464000D01*
X309960Y464927D01*
X309602Y465791D01*
X309033Y466533D01*
X308291Y467102D01*
X307427Y467460D01*
X306500Y467582D01*
D02*
G37*
G36*
X112000Y486677D02*
X110919Y486535D01*
X109911Y486118D01*
X109046Y485454D01*
X108382Y484589D01*
X107965Y483581D01*
X107823Y482500D01*
X107965Y481419D01*
X108382Y480411D01*
X109046Y479546D01*
X109911Y478882D01*
X110880Y478481D01*
Y471315D01*
X107122D01*
Y459685D01*
X116390D01*
Y471315D01*
X113120D01*
Y478481D01*
X114089Y478882D01*
X114954Y479546D01*
X115618Y480411D01*
X116035Y481419D01*
X116177Y482500D01*
X116035Y483581D01*
X115618Y484589D01*
X114954Y485454D01*
X114089Y486118D01*
X113081Y486535D01*
X112000Y486677D01*
D02*
G37*
G36*
X210421Y461500D02*
X207000D01*
Y458079D01*
X207532Y458149D01*
X208493Y458547D01*
X209319Y459181D01*
X209953Y460007D01*
X210351Y460968D01*
X210421Y461500D01*
D02*
G37*
G36*
X206000D02*
X202579D01*
X202649Y460968D01*
X203047Y460007D01*
X203681Y459181D01*
X204507Y458547D01*
X205468Y458149D01*
X206000Y458079D01*
Y461500D01*
D02*
G37*
G36*
X180855Y458063D02*
X177492D01*
Y454500D01*
X180855D01*
Y458063D01*
D02*
G37*
G36*
X390500Y491125D02*
X389691Y491019D01*
X388937Y490706D01*
X388290Y490210D01*
X387794Y489563D01*
X387481Y488809D01*
X387375Y488000D01*
X387481Y487191D01*
X387794Y486437D01*
X388290Y485790D01*
X388937Y485293D01*
X389322Y485134D01*
Y451652D01*
X388822Y451498D01*
X388275Y451918D01*
X387521Y452231D01*
X386712Y452337D01*
X385903Y452231D01*
X385149Y451918D01*
X384502Y451422D01*
X384005Y450774D01*
X383693Y450021D01*
X383587Y449212D01*
X383693Y448403D01*
X384005Y447649D01*
X384502Y447002D01*
X385149Y446505D01*
X385496Y446362D01*
Y436922D01*
X384609D01*
Y436120D01*
X380185D01*
Y439339D01*
X374658D01*
Y430661D01*
X380185D01*
Y433880D01*
X384609D01*
Y433078D01*
X392391D01*
Y436922D01*
X391562D01*
Y485086D01*
X392063Y485293D01*
X392710Y485790D01*
X393206Y486437D01*
X393519Y487191D01*
X393625Y488000D01*
X393519Y488809D01*
X393206Y489563D01*
X392710Y490210D01*
X392063Y490706D01*
X391309Y491019D01*
X390500Y491125D01*
D02*
G37*
G36*
X298005Y452430D02*
X296490D01*
Y451000D01*
X298005D01*
Y452430D01*
D02*
G37*
G36*
X419000Y457582D02*
X418073Y457460D01*
X417209Y457102D01*
X416467Y456533D01*
X415898Y455791D01*
X415540Y454927D01*
X415418Y454000D01*
X415540Y453073D01*
X415898Y452209D01*
X416467Y451467D01*
X417209Y450898D01*
X418073Y450540D01*
X419000Y450418D01*
X419927Y450540D01*
X420791Y450898D01*
X421533Y451467D01*
X422102Y452209D01*
X422460Y453073D01*
X422582Y454000D01*
X422460Y454927D01*
X422102Y455791D01*
X421533Y456533D01*
X420791Y457102D01*
X419927Y457460D01*
X419000Y457582D01*
D02*
G37*
G36*
X306500D02*
X305573Y457460D01*
X304709Y457102D01*
X303967Y456533D01*
X303398Y455791D01*
X303040Y454927D01*
X302918Y454000D01*
X303040Y453073D01*
X303398Y452209D01*
X303967Y451467D01*
X304709Y450898D01*
X305573Y450540D01*
X306500Y450418D01*
X307427Y450540D01*
X308291Y450898D01*
X309033Y451467D01*
X309602Y452209D01*
X309960Y453073D01*
X310082Y454000D01*
X309960Y454927D01*
X309602Y455791D01*
X309033Y456533D01*
X308291Y457102D01*
X307427Y457460D01*
X306500Y457582D01*
D02*
G37*
G36*
X180855Y453500D02*
X177492D01*
Y449937D01*
X180855D01*
Y453500D01*
D02*
G37*
G36*
X298005Y450000D02*
X296490D01*
Y448570D01*
X298005D01*
Y450000D01*
D02*
G37*
G36*
X135878Y471315D02*
X126610D01*
Y459685D01*
X130124D01*
Y458208D01*
X120036Y448120D01*
X109741D01*
X109586Y448493D01*
X109111Y449112D01*
X108493Y449586D01*
X107773Y449884D01*
X107000Y449986D01*
X106227Y449884D01*
X105507Y449586D01*
X104888Y449112D01*
X104414Y448493D01*
X104116Y447773D01*
X104014Y447000D01*
X104116Y446227D01*
X104414Y445507D01*
X104888Y444888D01*
X105507Y444414D01*
X105880Y444259D01*
Y427500D01*
X105965Y427071D01*
X106208Y426708D01*
X113949Y418967D01*
Y413449D01*
X121051D01*
Y420551D01*
X115533D01*
X108120Y427964D01*
Y444259D01*
X108493Y444414D01*
X109111Y444888D01*
X109586Y445507D01*
X109741Y445880D01*
X120500D01*
X120929Y445965D01*
X121292Y446208D01*
X132036Y456952D01*
X132279Y457316D01*
X132364Y457744D01*
Y459685D01*
X135878D01*
Y471315D01*
D02*
G37*
G36*
X258173Y486721D02*
X253827D01*
Y483161D01*
X254880D01*
Y463464D01*
X249708Y458292D01*
X249465Y457929D01*
X249380Y457500D01*
Y454858D01*
X249334Y454851D01*
X248248Y454401D01*
X247314Y453686D01*
X246599Y452752D01*
X246148Y451666D01*
X245995Y450500D01*
X246148Y449334D01*
X246599Y448247D01*
X247314Y447315D01*
X248248Y446598D01*
X249334Y446148D01*
X249551Y446120D01*
X249518Y445620D01*
X243207D01*
X242998Y446033D01*
X242998Y446120D01*
Y454966D01*
X234065D01*
Y446120D01*
X234065Y446033D01*
X233856Y445620D01*
X226464D01*
X217620Y454464D01*
Y458449D01*
X220051D01*
Y465551D01*
X212949D01*
Y458449D01*
X215380D01*
Y454000D01*
X215465Y453571D01*
X215708Y453208D01*
X225208Y443708D01*
X225571Y443465D01*
X226000Y443380D01*
X256469D01*
X256897Y443465D01*
X257260Y443708D01*
X260179Y446627D01*
X260216Y446598D01*
X261303Y446148D01*
X262469Y445995D01*
X263635Y446148D01*
X264721Y446598D01*
X265654Y447315D01*
X266370Y448247D01*
X266820Y449334D01*
X266974Y450500D01*
X266820Y451666D01*
X266370Y452752D01*
X265654Y453686D01*
X264721Y454401D01*
X263635Y454851D01*
X262469Y455005D01*
X261303Y454851D01*
X260216Y454401D01*
X259283Y453686D01*
X258567Y452752D01*
X258117Y451666D01*
X257963Y450500D01*
X258117Y449334D01*
X258567Y448247D01*
X258595Y448211D01*
X256005Y445620D01*
X251482D01*
X251449Y446120D01*
X251666Y446148D01*
X252752Y446598D01*
X253686Y447315D01*
X254401Y448247D01*
X254852Y449334D01*
X255005Y450500D01*
X254852Y451666D01*
X254401Y452752D01*
X253686Y453686D01*
X252752Y454401D01*
X251666Y454851D01*
X251620Y454858D01*
Y457036D01*
X256792Y462208D01*
X257035Y462571D01*
X257120Y463000D01*
Y483161D01*
X258173D01*
Y486721D01*
D02*
G37*
G36*
X419000Y447582D02*
X418073Y447460D01*
X417209Y447102D01*
X416467Y446533D01*
X415898Y445791D01*
X415540Y444927D01*
X415418Y444000D01*
X415540Y443073D01*
X415898Y442209D01*
X416467Y441467D01*
X417209Y440898D01*
X418073Y440540D01*
X419000Y440418D01*
X419927Y440540D01*
X420791Y440898D01*
X421533Y441467D01*
X422102Y442209D01*
X422460Y443073D01*
X422582Y444000D01*
X422460Y444927D01*
X422102Y445791D01*
X421533Y446533D01*
X420791Y447102D01*
X419927Y447460D01*
X419000Y447582D01*
D02*
G37*
G36*
X306500D02*
X305573Y447460D01*
X304709Y447102D01*
X303967Y446533D01*
X303398Y445791D01*
X303040Y444927D01*
X302918Y444000D01*
X303040Y443073D01*
X303398Y442209D01*
X303967Y441467D01*
X304709Y440898D01*
X305573Y440540D01*
X306500Y440418D01*
X307427Y440540D01*
X308291Y440898D01*
X309033Y441467D01*
X309602Y442209D01*
X309960Y443073D01*
X310082Y444000D01*
X309960Y444927D01*
X309602Y445791D01*
X309033Y446533D01*
X308291Y447102D01*
X307427Y447460D01*
X306500Y447582D01*
D02*
G37*
G36*
X280295Y431456D02*
X279364Y431333D01*
X278496Y430974D01*
X277751Y430402D01*
X277180Y429657D01*
X276898Y428978D01*
X258102D01*
X257821Y429657D01*
X257249Y430402D01*
X256504Y430974D01*
X255636Y431333D01*
X254705Y431456D01*
X253774Y431333D01*
X252906Y430974D01*
X252161Y430402D01*
X251589Y429657D01*
X251230Y428789D01*
X251107Y427858D01*
X251230Y426927D01*
X251589Y426059D01*
X252161Y425314D01*
X252906Y424743D01*
X253774Y424383D01*
X254705Y424261D01*
X255636Y424383D01*
X256504Y424743D01*
X257249Y425314D01*
X257821Y426059D01*
X258102Y426738D01*
X276898D01*
X277180Y426059D01*
X277751Y425314D01*
X278496Y424743D01*
X279364Y424383D01*
X280295Y424261D01*
X281226Y424383D01*
X282094Y424743D01*
X282839Y425314D01*
X283411Y426059D01*
X283770Y426927D01*
X283893Y427858D01*
X283770Y428789D01*
X283411Y429657D01*
X282839Y430402D01*
X282094Y430974D01*
X281226Y431333D01*
X280295Y431456D01*
D02*
G37*
G36*
X358795Y426795D02*
Y423358D01*
X362232D01*
X362161Y423894D01*
X361762Y424860D01*
X361126Y425689D01*
X360297Y426325D01*
X359331Y426724D01*
X358795Y426795D01*
D02*
G37*
G36*
X357795D02*
X357259Y426724D01*
X356294Y426325D01*
X355465Y425689D01*
X354829Y424860D01*
X354429Y423894D01*
X354358Y423358D01*
X357795D01*
Y426795D01*
D02*
G37*
G36*
X333205D02*
Y423358D01*
X336642D01*
X336571Y423894D01*
X336171Y424860D01*
X335535Y425689D01*
X334706Y426325D01*
X333741Y426724D01*
X333205Y426795D01*
D02*
G37*
G36*
X332205D02*
X331669Y426724D01*
X330703Y426325D01*
X329874Y425689D01*
X329238Y424860D01*
X328838Y423894D01*
X328768Y423358D01*
X332205D01*
Y426795D01*
D02*
G37*
G36*
X295000Y430483D02*
X294191Y430377D01*
X293437Y430065D01*
X292790Y429568D01*
X292294Y428921D01*
X291981Y428167D01*
X291875Y427358D01*
X291981Y426549D01*
X292294Y425796D01*
X292790Y425148D01*
X293437Y424652D01*
X294191Y424339D01*
X295000Y424233D01*
X295809Y424339D01*
X296563Y424652D01*
X296880Y424895D01*
X298566Y423208D01*
X298930Y422965D01*
X299358Y422880D01*
X303120D01*
X303398Y422209D01*
X303967Y421467D01*
X304709Y420898D01*
X305573Y420540D01*
X306500Y420418D01*
X307427Y420540D01*
X308291Y420898D01*
X309033Y421467D01*
X309602Y422209D01*
X309960Y423073D01*
X310082Y424000D01*
X309960Y424927D01*
X309602Y425791D01*
X309033Y426533D01*
X308291Y427102D01*
X307427Y427460D01*
X306500Y427582D01*
X305573Y427460D01*
X304709Y427102D01*
X303967Y426533D01*
X303398Y425791D01*
X303120Y425120D01*
X299822D01*
X298062Y426880D01*
X298125Y427358D01*
X298019Y428167D01*
X297706Y428921D01*
X297210Y429568D01*
X296563Y430065D01*
X295809Y430377D01*
X295000Y430483D01*
D02*
G37*
G36*
X362232Y422358D02*
X358795D01*
Y418921D01*
X359331Y418992D01*
X360297Y419392D01*
X361126Y420028D01*
X361762Y420857D01*
X362161Y421822D01*
X362232Y422358D01*
D02*
G37*
G36*
X357795D02*
X354358D01*
X354429Y421822D01*
X354829Y420857D01*
X355465Y420028D01*
X356294Y419392D01*
X357259Y418992D01*
X357795Y418921D01*
Y422358D01*
D02*
G37*
G36*
X336642D02*
X333205D01*
Y418921D01*
X333741Y418992D01*
X334706Y419392D01*
X335535Y420028D01*
X336171Y420857D01*
X336571Y421822D01*
X336642Y422358D01*
D02*
G37*
G36*
X332205D02*
X328768D01*
X328838Y421822D01*
X329238Y420857D01*
X329874Y420028D01*
X330703Y419392D01*
X331669Y418992D01*
X332205Y418921D01*
Y422358D01*
D02*
G37*
G36*
X266893Y421732D02*
X266084Y421626D01*
X265330Y421314D01*
X264683Y420817D01*
X264186Y420170D01*
X263874Y419416D01*
X263768Y418607D01*
X263874Y417798D01*
X264186Y417045D01*
X264683Y416397D01*
X265330Y415901D01*
X266084Y415589D01*
X266893Y415482D01*
X267702Y415589D01*
X268455Y415901D01*
X269103Y416397D01*
X269599Y417045D01*
X269911Y417798D01*
X270018Y418607D01*
X269911Y419416D01*
X269599Y420170D01*
X269103Y420817D01*
X268455Y421314D01*
X267702Y421626D01*
X266893Y421732D01*
D02*
G37*
G36*
X166055Y449986D02*
X165282Y449884D01*
X164562Y449586D01*
X163944Y449112D01*
X163469Y448493D01*
X163171Y447773D01*
X163069Y447000D01*
X163171Y446227D01*
X163469Y445507D01*
X163944Y444888D01*
X164562Y444414D01*
X164935Y444259D01*
Y421578D01*
X158447Y415090D01*
X157876Y415327D01*
X157000Y415442D01*
X156124Y415327D01*
X155308Y414989D01*
X154608Y414451D01*
X154070Y413751D01*
X153732Y412935D01*
X153617Y412059D01*
X153732Y411183D01*
X153969Y410612D01*
X131949Y388592D01*
X120880D01*
X120602Y389263D01*
X120033Y390005D01*
X119291Y390574D01*
X118427Y390932D01*
X117500Y391054D01*
X116573Y390932D01*
X115709Y390574D01*
X114967Y390005D01*
X114398Y389263D01*
X114040Y388399D01*
X113918Y387472D01*
X114040Y386545D01*
X114398Y385682D01*
X114967Y384940D01*
X115709Y384370D01*
X116573Y384013D01*
X117500Y383891D01*
X118427Y384013D01*
X119291Y384370D01*
X120033Y384940D01*
X120602Y385682D01*
X120880Y386352D01*
X132413D01*
X132842Y386438D01*
X133205Y386681D01*
X155553Y409028D01*
X156124Y408791D01*
X157000Y408676D01*
X157876Y408791D01*
X158692Y409129D01*
X159392Y409667D01*
X159930Y410367D01*
X160268Y411183D01*
X160383Y412059D01*
X160268Y412935D01*
X160031Y413506D01*
X166847Y420322D01*
X167090Y420686D01*
X167175Y421114D01*
Y444259D01*
X167548Y444414D01*
X168167Y444888D01*
X168641Y445507D01*
X168940Y446227D01*
X169041Y447000D01*
X168940Y447773D01*
X168641Y448493D01*
X168167Y449112D01*
X167548Y449586D01*
X166828Y449884D01*
X166055Y449986D01*
D02*
G37*
G36*
X310453Y417953D02*
X307000D01*
Y414500D01*
X310453D01*
Y417953D01*
D02*
G37*
G36*
X306000D02*
X302547D01*
Y414500D01*
X306000D01*
Y417953D01*
D02*
G37*
G36*
X280795Y414079D02*
Y410642D01*
X284232D01*
X284161Y411178D01*
X283762Y412143D01*
X283126Y412972D01*
X282297Y413608D01*
X281331Y414008D01*
X280795Y414079D01*
D02*
G37*
G36*
X279795D02*
X279259Y414008D01*
X278294Y413608D01*
X277465Y412972D01*
X276829Y412143D01*
X276429Y411178D01*
X276358Y410642D01*
X279795D01*
Y414079D01*
D02*
G37*
G36*
X258673Y414110D02*
X255205D01*
Y410642D01*
X258673D01*
Y414110D01*
D02*
G37*
G36*
X254205D02*
X250736D01*
Y410642D01*
X254205D01*
Y414110D01*
D02*
G37*
G36*
X243500Y413937D02*
Y410500D01*
X246937D01*
X246866Y411036D01*
X246466Y412001D01*
X245830Y412830D01*
X245001Y413467D01*
X244036Y413866D01*
X243500Y413937D01*
D02*
G37*
G36*
X242500D02*
X241964Y413866D01*
X240999Y413467D01*
X240170Y412830D01*
X239533Y412001D01*
X239134Y411036D01*
X239063Y410500D01*
X242500D01*
Y413937D01*
D02*
G37*
G36*
X221378Y413969D02*
X217910D01*
Y410500D01*
X221378D01*
Y413969D01*
D02*
G37*
G36*
X216910D02*
X213441D01*
Y410500D01*
X216910D01*
Y413969D01*
D02*
G37*
G36*
X419000Y417582D02*
X418073Y417460D01*
X417209Y417102D01*
X416467Y416533D01*
X415898Y415791D01*
X415540Y414927D01*
X415418Y414000D01*
X415540Y413073D01*
X415898Y412209D01*
X416467Y411467D01*
X417209Y410898D01*
X418073Y410540D01*
X419000Y410418D01*
X419927Y410540D01*
X420791Y410898D01*
X421533Y411467D01*
X422102Y412209D01*
X422460Y413073D01*
X422582Y414000D01*
X422460Y414927D01*
X422102Y415791D01*
X421533Y416533D01*
X420791Y417102D01*
X419927Y417460D01*
X419000Y417582D01*
D02*
G37*
G36*
X310453Y413500D02*
X307000D01*
Y410047D01*
X310453D01*
Y413500D01*
D02*
G37*
G36*
X306000D02*
X302547D01*
Y410047D01*
X306000D01*
Y413500D01*
D02*
G37*
G36*
X188496Y415442D02*
X187620Y415327D01*
X186804Y414989D01*
X186104Y414451D01*
X185566Y413751D01*
X185228Y412935D01*
X185113Y412059D01*
X185228Y411183D01*
X185566Y410367D01*
X186104Y409667D01*
X186804Y409129D01*
X187620Y408791D01*
X188496Y408676D01*
X189372Y408791D01*
X190188Y409129D01*
X190888Y409667D01*
X191426Y410367D01*
X191764Y411183D01*
X191879Y412059D01*
X191764Y412935D01*
X191426Y413751D01*
X190888Y414451D01*
X190188Y414989D01*
X189372Y415327D01*
X188496Y415442D01*
D02*
G37*
G36*
X358295Y408740D02*
X357364Y408617D01*
X356496Y408257D01*
X355751Y407686D01*
X355180Y406941D01*
X354898Y406262D01*
X336272D01*
Y408709D01*
X329138D01*
Y401575D01*
X336272D01*
Y404022D01*
X354898D01*
X355180Y403343D01*
X355751Y402598D01*
X356496Y402026D01*
X357364Y401667D01*
X358295Y401544D01*
X359226Y401667D01*
X360094Y402026D01*
X360839Y402598D01*
X361411Y403343D01*
X361770Y404211D01*
X361893Y405142D01*
X361770Y406073D01*
X361411Y406941D01*
X360839Y407686D01*
X360094Y408257D01*
X359226Y408617D01*
X358295Y408740D01*
D02*
G37*
G36*
X284232Y409642D02*
X280795D01*
Y406205D01*
X281331Y406276D01*
X282297Y406675D01*
X283126Y407311D01*
X283762Y408140D01*
X284161Y409106D01*
X284232Y409642D01*
D02*
G37*
G36*
X279795D02*
X276358D01*
X276429Y409106D01*
X276829Y408140D01*
X277465Y407311D01*
X278294Y406675D01*
X279259Y406276D01*
X279795Y406205D01*
Y409642D01*
D02*
G37*
G36*
X258673D02*
X255205D01*
Y406173D01*
X258673D01*
Y409642D01*
D02*
G37*
G36*
X254205D02*
X250736D01*
Y406173D01*
X254205D01*
Y409642D01*
D02*
G37*
G36*
X246937Y409500D02*
X243500D01*
Y406063D01*
X244036Y406134D01*
X245001Y406533D01*
X245830Y407170D01*
X246466Y407999D01*
X246866Y408964D01*
X246937Y409500D01*
D02*
G37*
G36*
X242500D02*
X239063D01*
X239134Y408964D01*
X239533Y407999D01*
X240170Y407170D01*
X240999Y406533D01*
X241964Y406134D01*
X242500Y406063D01*
Y409500D01*
D02*
G37*
G36*
X221378D02*
X217910D01*
Y406032D01*
X221378D01*
Y409500D01*
D02*
G37*
G36*
X216910D02*
X213441D01*
Y406032D01*
X216910D01*
Y409500D01*
D02*
G37*
G36*
X227453Y403453D02*
X224000D01*
Y400000D01*
X227453D01*
Y403453D01*
D02*
G37*
G36*
X223000D02*
X219547D01*
Y400000D01*
X223000D01*
Y403453D01*
D02*
G37*
G36*
X233500Y403082D02*
X232573Y402960D01*
X231709Y402602D01*
X230967Y402033D01*
X230398Y401291D01*
X230040Y400427D01*
X229918Y399500D01*
X230040Y398573D01*
X230398Y397709D01*
X230967Y396967D01*
X231709Y396398D01*
X232573Y396040D01*
X233500Y395918D01*
X234427Y396040D01*
X235291Y396398D01*
X236033Y396967D01*
X236602Y397709D01*
X236960Y398573D01*
X237082Y399500D01*
X236960Y400427D01*
X236602Y401291D01*
X236033Y402033D01*
X235291Y402602D01*
X234427Y402960D01*
X233500Y403082D01*
D02*
G37*
G36*
X227453Y399000D02*
X224000D01*
Y395547D01*
X227453D01*
Y399000D01*
D02*
G37*
G36*
X223000D02*
X219547D01*
Y395547D01*
X223000D01*
Y399000D01*
D02*
G37*
G36*
X419000Y437582D02*
X418073Y437460D01*
X417209Y437102D01*
X416467Y436533D01*
X415898Y435791D01*
X415540Y434927D01*
X415418Y434000D01*
X415540Y433073D01*
X415898Y432209D01*
X416467Y431467D01*
X417209Y430898D01*
X417880Y430620D01*
Y429964D01*
X417029Y429113D01*
X416893Y429086D01*
X416530Y428843D01*
X414157Y426470D01*
X413914Y426107D01*
X413887Y425971D01*
X388634Y400718D01*
X351598D01*
X351170Y400633D01*
X350806Y400390D01*
X344098Y393682D01*
X343427Y393960D01*
X342500Y394082D01*
X341573Y393960D01*
X340709Y393602D01*
X339967Y393033D01*
X339398Y392291D01*
X339040Y391427D01*
X338918Y390500D01*
X339040Y389573D01*
X339398Y388709D01*
X339889Y388069D01*
X339734Y387569D01*
X335266D01*
X335111Y388069D01*
X335602Y388709D01*
X335960Y389573D01*
X336082Y390500D01*
X335960Y391427D01*
X335602Y392291D01*
X335033Y393033D01*
X334291Y393602D01*
X333427Y393960D01*
X332500Y394082D01*
X331573Y393960D01*
X330902Y393682D01*
X325778Y398806D01*
X325891Y399078D01*
X325891D01*
Y402922D01*
X321151D01*
Y427468D01*
X321066Y427897D01*
X320823Y428260D01*
X314292Y434792D01*
X313929Y435035D01*
X313500Y435120D01*
X309880D01*
X309602Y435791D01*
X309033Y436533D01*
X308291Y437102D01*
X307427Y437460D01*
X306500Y437582D01*
X305573Y437460D01*
X304709Y437102D01*
X303967Y436533D01*
X303398Y435791D01*
X303120Y435120D01*
X294500D01*
X294071Y435035D01*
X293708Y434792D01*
X289208Y430292D01*
X288965Y429929D01*
X288880Y429500D01*
Y420422D01*
X287993D01*
Y416578D01*
X292648D01*
Y407001D01*
X291937Y406706D01*
X291290Y406210D01*
X290794Y405563D01*
X290481Y404809D01*
X290375Y404000D01*
X290481Y403191D01*
X290794Y402437D01*
X291290Y401790D01*
X291937Y401294D01*
X292594Y401021D01*
X292495Y400522D01*
X256921D01*
X256602Y401291D01*
X256033Y402033D01*
X255291Y402602D01*
X254427Y402960D01*
X253500Y403082D01*
X252573Y402960D01*
X251709Y402602D01*
X250967Y402033D01*
X250398Y401291D01*
X250040Y400427D01*
X249918Y399500D01*
X250040Y398573D01*
X250398Y397709D01*
X250967Y396967D01*
X251709Y396398D01*
X252573Y396040D01*
X253500Y395918D01*
X254427Y396040D01*
X255291Y396398D01*
X256033Y396967D01*
X256602Y397709D01*
X256839Y398282D01*
X299651D01*
X299794Y397937D01*
X300290Y397290D01*
X300937Y396794D01*
X301691Y396481D01*
X302500Y396375D01*
X303309Y396481D01*
X304063Y396794D01*
X304710Y397290D01*
X305206Y397937D01*
X305519Y398691D01*
X305625Y399500D01*
X305519Y400309D01*
X305206Y401063D01*
X304710Y401710D01*
X304063Y402206D01*
X303309Y402519D01*
X302500Y402625D01*
X301691Y402519D01*
X300937Y402206D01*
X300290Y401710D01*
X299794Y401063D01*
X299569Y400522D01*
X294505D01*
X294406Y401021D01*
X295063Y401294D01*
X295710Y401790D01*
X296206Y402437D01*
X296519Y403191D01*
X296625Y404000D01*
X296519Y404809D01*
X296206Y405563D01*
X295710Y406210D01*
X295063Y406706D01*
X294888Y406779D01*
Y416578D01*
X295775D01*
Y420422D01*
X291120D01*
Y429036D01*
X294964Y432880D01*
X303120D01*
X303398Y432209D01*
X303967Y431467D01*
X304709Y430898D01*
X305573Y430540D01*
X306500Y430418D01*
X307427Y430540D01*
X308291Y430898D01*
X309033Y431467D01*
X309602Y432209D01*
X309880Y432880D01*
X313036D01*
X318912Y427005D01*
Y402922D01*
X318109D01*
Y399078D01*
X322772D01*
X322849Y398687D01*
X323092Y398324D01*
X329318Y392098D01*
X329040Y391427D01*
X328918Y390500D01*
X329040Y389573D01*
X329398Y388709D01*
X329889Y388069D01*
X329734Y387569D01*
X325863D01*
X325617Y388069D01*
X325953Y388507D01*
X326351Y389468D01*
X326421Y390000D01*
X322500D01*
X318579D01*
X318649Y389468D01*
X319047Y388507D01*
X319383Y388069D01*
X319137Y387569D01*
X315266D01*
X315111Y388069D01*
X315602Y388709D01*
X315960Y389573D01*
X316082Y390500D01*
X315960Y391427D01*
X315602Y392291D01*
X315033Y393033D01*
X314291Y393602D01*
X313427Y393960D01*
X312500Y394082D01*
X311573Y393960D01*
X310709Y393602D01*
X309967Y393033D01*
X309398Y392291D01*
X309120Y391620D01*
X293890D01*
X293706Y392063D01*
X293210Y392710D01*
X292563Y393206D01*
X291809Y393519D01*
X291000Y393625D01*
X290191Y393519D01*
X289437Y393206D01*
X288790Y392710D01*
X288294Y392063D01*
X287981Y391309D01*
X287875Y390500D01*
X287981Y389691D01*
X288294Y388937D01*
X288790Y388290D01*
X289079Y388069D01*
X288909Y387569D01*
X286015D01*
X281835Y391748D01*
X282019Y392191D01*
X282125Y393000D01*
X282019Y393809D01*
X281706Y394563D01*
X281210Y395210D01*
X280563Y395706D01*
X279809Y396019D01*
X279000Y396125D01*
X278191Y396019D01*
X277437Y395706D01*
X276790Y395210D01*
X276294Y394563D01*
X275981Y393809D01*
X275875Y393000D01*
X275981Y392191D01*
X276294Y391437D01*
X276790Y390790D01*
X277437Y390294D01*
X278191Y389981D01*
X279000Y389875D01*
X279809Y389981D01*
X280252Y390165D01*
X284759Y385657D01*
X285123Y385414D01*
X285551Y385329D01*
X296505D01*
X296675Y384829D01*
X296520Y384710D01*
X296023Y384063D01*
X295840Y383620D01*
X256464D01*
X244620Y395464D01*
Y396120D01*
X245291Y396398D01*
X246033Y396967D01*
X246602Y397709D01*
X246960Y398573D01*
X247082Y399500D01*
X246960Y400427D01*
X246602Y401291D01*
X246033Y402033D01*
X245291Y402602D01*
X244427Y402960D01*
X243500Y403082D01*
X242573Y402960D01*
X241709Y402602D01*
X240967Y402033D01*
X240398Y401291D01*
X240040Y400427D01*
X239918Y399500D01*
X240040Y398573D01*
X240398Y397709D01*
X240967Y396967D01*
X241709Y396398D01*
X242380Y396120D01*
Y395000D01*
X242465Y394571D01*
X242708Y394208D01*
X254708Y382208D01*
X255208Y381708D01*
X255263Y381671D01*
X255112Y381171D01*
X227051D01*
X226623Y381086D01*
X226259Y380843D01*
X218203Y372787D01*
X217463Y373094D01*
X216500Y373221D01*
X215537Y373094D01*
X214640Y372722D01*
X213869Y372131D01*
X213278Y371360D01*
X212906Y370463D01*
X212779Y369500D01*
X212906Y368537D01*
X213278Y367640D01*
X213869Y366869D01*
X214640Y366278D01*
X215537Y365906D01*
X216500Y365779D01*
X217463Y365906D01*
X218360Y366278D01*
X219131Y366869D01*
X219722Y367640D01*
X220094Y368537D01*
X220221Y369500D01*
X220094Y370463D01*
X219787Y371203D01*
X227515Y378931D01*
X268234D01*
X268389Y378431D01*
X267898Y377791D01*
X267620Y377120D01*
X242000D01*
X241571Y377035D01*
X241208Y376792D01*
X237703Y373287D01*
X236963Y373594D01*
X236000Y373721D01*
X235037Y373594D01*
X234140Y373222D01*
X233369Y372631D01*
X232778Y371860D01*
X232406Y370963D01*
X232279Y370000D01*
X232406Y369037D01*
X232778Y368140D01*
X233369Y367369D01*
X234140Y366778D01*
X235037Y366406D01*
X236000Y366279D01*
X236963Y366406D01*
X237860Y366778D01*
X238631Y367369D01*
X239222Y368140D01*
X239594Y369037D01*
X239721Y370000D01*
X239594Y370963D01*
X239287Y371704D01*
X242464Y374880D01*
X267620D01*
X267898Y374209D01*
X268467Y373467D01*
X269209Y372898D01*
X270073Y372540D01*
X271000Y372418D01*
X271927Y372540D01*
X272791Y372898D01*
X273533Y373467D01*
X274102Y374209D01*
X274460Y375073D01*
X274582Y376000D01*
X274460Y376927D01*
X274102Y377791D01*
X273611Y378431D01*
X273766Y378931D01*
X276485D01*
X277818Y377598D01*
X277540Y376927D01*
X277418Y376000D01*
X277540Y375073D01*
X277898Y374209D01*
X278467Y373467D01*
X279209Y372898D01*
X279880Y372620D01*
Y365964D01*
X265536Y351620D01*
X223500D01*
X223071Y351535D01*
X222708Y351292D01*
X208324Y336908D01*
X208081Y336544D01*
X207996Y336116D01*
Y324422D01*
X207109D01*
Y320578D01*
X214891D01*
Y321380D01*
X221838D01*
Y318893D01*
X224380D01*
Y293760D01*
X223721D01*
Y290329D01*
X222237Y288846D01*
X221776Y289038D01*
Y290102D01*
X220094D01*
Y287043D01*
X221309D01*
Y278201D01*
X221499Y277743D01*
X223861Y275381D01*
X224319Y275191D01*
X226681D01*
X227139Y275381D01*
X229501Y277743D01*
X229691Y278201D01*
Y287333D01*
X229691Y287445D01*
X229918Y287445D01*
X233185D01*
Y293760D01*
X232573D01*
Y299578D01*
X237275D01*
Y300380D01*
X255669D01*
Y292339D01*
X259380D01*
Y280780D01*
X259465Y280351D01*
X259708Y279988D01*
X281555Y258141D01*
X281297Y257520D01*
X281179Y256618D01*
X281297Y255717D01*
X281645Y254877D01*
X282199Y254156D01*
X282920Y253602D01*
X283760Y253254D01*
X284661Y253136D01*
X285563Y253254D01*
X286403Y253602D01*
X287124Y254156D01*
X287677Y254877D01*
X287935Y255498D01*
X318418D01*
X321971Y251945D01*
X321756Y251453D01*
X321534Y251453D01*
X318500D01*
Y248000D01*
X321953D01*
Y251000D01*
X321953Y251256D01*
X322445Y251471D01*
X324818Y249098D01*
X324540Y248427D01*
X324418Y247500D01*
X324540Y246573D01*
X324898Y245709D01*
X325467Y244967D01*
X326209Y244398D01*
X327073Y244040D01*
X328000Y243918D01*
X328927Y244040D01*
X329598Y244318D01*
X332708Y241208D01*
X333071Y240965D01*
X333500Y240880D01*
X368000D01*
X368429Y240965D01*
X368792Y241208D01*
X378792Y251208D01*
X379035Y251571D01*
X379120Y252000D01*
Y259449D01*
X381551D01*
Y266551D01*
X374449D01*
Y259449D01*
X376880D01*
Y252464D01*
X367536Y243120D01*
X333964D01*
X331182Y245902D01*
X331460Y246573D01*
X331582Y247500D01*
X331460Y248427D01*
X331102Y249291D01*
X330533Y250033D01*
X329791Y250602D01*
X328927Y250960D01*
X328000Y251082D01*
X327073Y250960D01*
X326402Y250682D01*
X319674Y257410D01*
X319310Y257653D01*
X318882Y257738D01*
X287935D01*
X287677Y258360D01*
X287124Y259081D01*
X286403Y259634D01*
X285563Y259982D01*
X284661Y260101D01*
X283760Y259982D01*
X283139Y259725D01*
X261620Y281243D01*
Y292339D01*
X265331D01*
Y309283D01*
X255669D01*
Y302620D01*
X237275D01*
Y303422D01*
X232714D01*
Y307181D01*
X232953Y307583D01*
X234811D01*
Y310000D01*
Y312417D01*
X232953D01*
Y312016D01*
X229732D01*
Y307984D01*
X230475D01*
Y303422D01*
X229493D01*
Y299578D01*
X230333D01*
Y293760D01*
X229626D01*
Y288690D01*
X229126Y288483D01*
X227279Y290329D01*
Y293760D01*
X226620D01*
Y318893D01*
X229162D01*
Y325781D01*
X229563D01*
Y329145D01*
X225500D01*
Y329645D01*
D01*
Y329145D01*
X221437D01*
Y325781D01*
X221838D01*
Y323620D01*
X214891D01*
Y324422D01*
X210236D01*
Y335652D01*
X223964Y349380D01*
X266000D01*
X266429Y349465D01*
X266792Y349708D01*
X281792Y364708D01*
X282035Y365071D01*
X282120Y365500D01*
Y372620D01*
X282791Y372898D01*
X283533Y373467D01*
X284102Y374209D01*
X284460Y375073D01*
X284582Y376000D01*
X284460Y376927D01*
X284102Y377791D01*
X283533Y378533D01*
X282791Y379102D01*
X281927Y379460D01*
X281000Y379582D01*
X280073Y379460D01*
X279402Y379182D01*
X277741Y380843D01*
X277685Y380880D01*
X277837Y381380D01*
X295840D01*
X296023Y380937D01*
X296520Y380290D01*
X297167Y379794D01*
X297609Y379610D01*
Y355271D01*
X297695Y354842D01*
X297938Y354479D01*
X305318Y347098D01*
X305040Y346427D01*
X304918Y345500D01*
X305040Y344573D01*
X305398Y343709D01*
X305967Y342967D01*
X306709Y342398D01*
X307573Y342040D01*
X308500Y341918D01*
X309427Y342040D01*
X310291Y342398D01*
X311033Y342967D01*
X311602Y343709D01*
X311960Y344573D01*
X312082Y345500D01*
X311960Y346427D01*
X311602Y347291D01*
X311033Y348033D01*
X310291Y348602D01*
X309427Y348960D01*
X308500Y349082D01*
X307573Y348960D01*
X306902Y348682D01*
X299849Y355734D01*
Y379610D01*
X300292Y379794D01*
X300939Y380290D01*
X301436Y380937D01*
X301748Y381691D01*
X301855Y382500D01*
X301748Y383309D01*
X301436Y384063D01*
X300939Y384710D01*
X300784Y384829D01*
X300954Y385329D01*
X358449D01*
X358877Y385414D01*
X359241Y385657D01*
X360533Y386949D01*
X366051D01*
Y394051D01*
X358949D01*
Y388533D01*
X357985Y387569D01*
X355266D01*
X355111Y388069D01*
X355602Y388709D01*
X355960Y389573D01*
X356082Y390500D01*
X355960Y391427D01*
X355682Y392098D01*
X360464Y396880D01*
X393000D01*
X393429Y396965D01*
X393792Y397208D01*
X417402Y420818D01*
X418073Y420540D01*
X419000Y420418D01*
X419927Y420540D01*
X420791Y420898D01*
X421533Y421467D01*
X422102Y422209D01*
X422460Y423073D01*
X422582Y424000D01*
X422460Y424927D01*
X422102Y425791D01*
X421533Y426533D01*
X420791Y427102D01*
X419927Y427460D01*
X419329Y427538D01*
X419150Y428066D01*
X419792Y428708D01*
X420035Y429071D01*
X420120Y429500D01*
Y430620D01*
X420791Y430898D01*
X421533Y431467D01*
X422102Y432209D01*
X422460Y433073D01*
X422582Y434000D01*
X422460Y434927D01*
X422102Y435791D01*
X421533Y436533D01*
X420791Y437102D01*
X419927Y437460D01*
X419000Y437582D01*
D02*
G37*
G36*
X323000Y394421D02*
Y391000D01*
X326421D01*
X326351Y391532D01*
X325953Y392493D01*
X325319Y393319D01*
X324493Y393953D01*
X323532Y394351D01*
X323000Y394421D01*
D02*
G37*
G36*
X322000D02*
X321468Y394351D01*
X320507Y393953D01*
X319681Y393319D01*
X319047Y392493D01*
X318649Y391532D01*
X318579Y391000D01*
X322000D01*
Y394421D01*
D02*
G37*
G36*
X157000Y387883D02*
X156124Y387768D01*
X155308Y387430D01*
X154608Y386892D01*
X154070Y386192D01*
X153732Y385376D01*
X153617Y384500D01*
X153732Y383624D01*
X154070Y382808D01*
X154608Y382108D01*
X155308Y381570D01*
X156124Y381232D01*
X157000Y381117D01*
X157876Y381232D01*
X158692Y381570D01*
X159392Y382108D01*
X159930Y382808D01*
X160268Y383624D01*
X160383Y384500D01*
X160268Y385376D01*
X159930Y386192D01*
X159392Y386892D01*
X158692Y387430D01*
X157876Y387768D01*
X157000Y387883D01*
D02*
G37*
G36*
X294953Y379953D02*
X291500D01*
Y376500D01*
X294953D01*
Y379953D01*
D02*
G37*
G36*
X290500D02*
X287047D01*
Y376500D01*
X290500D01*
Y379953D01*
D02*
G37*
G36*
X381551Y383551D02*
X374449D01*
Y376449D01*
X381551D01*
Y383551D01*
D02*
G37*
G36*
X294953Y375500D02*
X291500D01*
Y372047D01*
X294953D01*
Y375500D01*
D02*
G37*
G36*
X290500D02*
X287047D01*
Y372047D01*
X290500D01*
Y375500D01*
D02*
G37*
G36*
X378500Y373921D02*
Y370500D01*
X381921D01*
X381851Y371032D01*
X381453Y371993D01*
X380819Y372819D01*
X379993Y373453D01*
X379032Y373851D01*
X378500Y373921D01*
D02*
G37*
G36*
X255000Y374060D02*
Y370500D01*
X258560D01*
X258485Y371068D01*
X258073Y372063D01*
X257417Y372917D01*
X256563Y373573D01*
X255568Y373985D01*
X255000Y374060D01*
D02*
G37*
G36*
X254000D02*
X253432Y373985D01*
X252437Y373573D01*
X251583Y372917D01*
X250927Y372063D01*
X250515Y371068D01*
X250440Y370500D01*
X254000D01*
Y374060D01*
D02*
G37*
G36*
X377500Y373921D02*
X376968Y373851D01*
X376007Y373453D01*
X375181Y372819D01*
X374547Y371993D01*
X374149Y371032D01*
X374079Y370500D01*
X377500D01*
Y373921D01*
D02*
G37*
G36*
X378000Y370000D02*
D01*
D01*
D01*
D02*
G37*
G36*
X381921Y369500D02*
X378500D01*
Y366079D01*
X379032Y366149D01*
X379993Y366547D01*
X380819Y367181D01*
X381453Y368007D01*
X381851Y368968D01*
X381921Y369500D01*
D02*
G37*
G36*
X377500D02*
X374079D01*
X374149Y368968D01*
X374547Y368007D01*
X375181Y367181D01*
X376007Y366547D01*
X376968Y366149D01*
X377500Y366079D01*
Y369500D01*
D02*
G37*
G36*
X258560D02*
X255000D01*
Y365940D01*
X255568Y366015D01*
X256563Y366427D01*
X257417Y367083D01*
X258073Y367937D01*
X258485Y368932D01*
X258560Y369500D01*
D02*
G37*
G36*
X254000D02*
X250440D01*
X250515Y368932D01*
X250927Y367937D01*
X251583Y367083D01*
X252437Y366427D01*
X253432Y366015D01*
X254000Y365940D01*
Y369500D01*
D02*
G37*
G36*
X312051Y369051D02*
X304949D01*
Y361949D01*
X312051D01*
Y369051D01*
D02*
G37*
G36*
X378000Y363582D02*
X377073Y363460D01*
X376209Y363102D01*
X375467Y362533D01*
X374898Y361791D01*
X374540Y360927D01*
X374418Y360000D01*
X374540Y359073D01*
X374818Y358402D01*
X362708Y346292D01*
X362465Y345929D01*
X362380Y345500D01*
Y304029D01*
X361640Y303722D01*
X360869Y303131D01*
X360278Y302360D01*
X359906Y301463D01*
X359779Y300500D01*
X359906Y299537D01*
X360278Y298640D01*
X360869Y297869D01*
X361640Y297278D01*
X362537Y296906D01*
X363500Y296779D01*
X364463Y296906D01*
X365360Y297278D01*
X366131Y297869D01*
X366722Y298640D01*
X367094Y299537D01*
X367221Y300500D01*
X367094Y301463D01*
X366722Y302360D01*
X366131Y303131D01*
X365360Y303722D01*
X364620Y304029D01*
Y345036D01*
X376402Y356818D01*
X377073Y356540D01*
X378000Y356418D01*
X378927Y356540D01*
X379791Y356898D01*
X380533Y357467D01*
X381102Y358209D01*
X381460Y359073D01*
X381582Y360000D01*
X381460Y360927D01*
X381102Y361791D01*
X380533Y362533D01*
X379791Y363102D01*
X378927Y363460D01*
X378000Y363582D01*
D02*
G37*
G36*
X309000Y359421D02*
Y356000D01*
X312421D01*
X312351Y356532D01*
X311953Y357493D01*
X311319Y358319D01*
X310493Y358953D01*
X309532Y359351D01*
X309000Y359421D01*
D02*
G37*
G36*
X308000D02*
X307468Y359351D01*
X306507Y358953D01*
X305681Y358319D01*
X305047Y357493D01*
X304649Y356532D01*
X304579Y356000D01*
X308000D01*
Y359421D01*
D02*
G37*
G36*
X312421Y355000D02*
X309000D01*
Y351579D01*
X309532Y351649D01*
X310493Y352047D01*
X311319Y352681D01*
X311953Y353507D01*
X312351Y354468D01*
X312421Y355000D01*
D02*
G37*
G36*
X308000D02*
X304579D01*
X304649Y354468D01*
X305047Y353507D01*
X305681Y352681D01*
X306507Y352047D01*
X307468Y351649D01*
X308000Y351579D01*
Y355000D01*
D02*
G37*
G36*
X285161Y350204D02*
Y346882D01*
X288483D01*
X288417Y347388D01*
X288028Y348326D01*
X287410Y349131D01*
X286605Y349748D01*
X285668Y350137D01*
X285161Y350204D01*
D02*
G37*
G36*
X284161D02*
X283655Y350137D01*
X282718Y349748D01*
X281912Y349131D01*
X281295Y348326D01*
X280906Y347388D01*
X280840Y346882D01*
X284161D01*
Y350204D01*
D02*
G37*
G36*
X378000Y353582D02*
X377073Y353460D01*
X376209Y353102D01*
X375467Y352533D01*
X374898Y351791D01*
X374540Y350927D01*
X374418Y350000D01*
X374540Y349073D01*
X374898Y348209D01*
X375467Y347467D01*
X376209Y346898D01*
X377073Y346540D01*
X378000Y346418D01*
X378927Y346540D01*
X379791Y346898D01*
X380533Y347467D01*
X381102Y348209D01*
X381460Y349073D01*
X381582Y350000D01*
X381460Y350927D01*
X381102Y351791D01*
X380533Y352533D01*
X379791Y353102D01*
X378927Y353460D01*
X378000Y353582D01*
D02*
G37*
G36*
X288483Y345882D02*
X285161D01*
Y342560D01*
X285668Y342627D01*
X286605Y343015D01*
X287410Y343633D01*
X288028Y344438D01*
X288417Y345376D01*
X288483Y345882D01*
D02*
G37*
G36*
X284161D02*
X280840D01*
X280906Y345376D01*
X281295Y344438D01*
X281912Y343633D01*
X282718Y343015D01*
X283655Y342627D01*
X284161Y342560D01*
Y345882D01*
D02*
G37*
G36*
X318500Y382625D02*
X317691Y382519D01*
X316937Y382206D01*
X316290Y381710D01*
X315794Y381063D01*
X315481Y380309D01*
X315375Y379500D01*
X315481Y378691D01*
X315794Y377937D01*
X316290Y377290D01*
X316937Y376794D01*
X317380Y376610D01*
Y341081D01*
X312919Y336620D01*
X311880D01*
X311602Y337291D01*
X311033Y338033D01*
X310291Y338602D01*
X309427Y338960D01*
X308500Y339082D01*
X307573Y338960D01*
X306709Y338602D01*
X305967Y338033D01*
X305398Y337291D01*
X305040Y336427D01*
X304918Y335500D01*
X305040Y334573D01*
X305398Y333709D01*
X305967Y332967D01*
X306709Y332398D01*
X307573Y332040D01*
X308500Y331918D01*
X309427Y332040D01*
X310291Y332398D01*
X311033Y332967D01*
X311602Y333709D01*
X311880Y334380D01*
X313383D01*
X313811Y334465D01*
X314175Y334708D01*
X319292Y339825D01*
X319535Y340189D01*
X319620Y340617D01*
Y376610D01*
X320063Y376794D01*
X320710Y377290D01*
X321206Y377937D01*
X321519Y378691D01*
X321625Y379500D01*
X321519Y380309D01*
X321206Y381063D01*
X320710Y381710D01*
X320063Y382206D01*
X319309Y382519D01*
X318500Y382625D01*
D02*
G37*
G36*
X229563Y333508D02*
X226000D01*
Y330145D01*
X229563D01*
Y333508D01*
D02*
G37*
G36*
X225000D02*
X221437D01*
Y330145D01*
X225000D01*
Y333508D01*
D02*
G37*
G36*
X265732Y336063D02*
X261000D01*
Y327689D01*
X265732D01*
Y336063D01*
D02*
G37*
G36*
X260000D02*
X255268D01*
Y327689D01*
X260000D01*
Y336063D01*
D02*
G37*
G36*
X265732Y326689D02*
X261000D01*
Y318315D01*
X265732D01*
Y326689D01*
D02*
G37*
G36*
X260000D02*
X255268D01*
Y318315D01*
X260000D01*
Y326689D01*
D02*
G37*
G36*
X188496Y387883D02*
X187620Y387768D01*
X186804Y387430D01*
X186104Y386892D01*
X185566Y386192D01*
X185228Y385376D01*
X185113Y384500D01*
X185228Y383624D01*
X185566Y382808D01*
X186104Y382108D01*
X186804Y381570D01*
X187223Y381397D01*
X187287Y380871D01*
X124390Y317974D01*
X120791D01*
Y320307D01*
X113886D01*
Y313402D01*
X120791D01*
Y315735D01*
X124854D01*
X125283Y315820D01*
X125646Y316062D01*
X189288Y379704D01*
X189531Y380067D01*
X189616Y380496D01*
Y381333D01*
X190188Y381570D01*
X190888Y382108D01*
X191426Y382808D01*
X191764Y383624D01*
X191879Y384500D01*
X191764Y385376D01*
X191426Y386192D01*
X190888Y386892D01*
X190188Y387430D01*
X189372Y387768D01*
X188496Y387883D01*
D02*
G37*
G36*
X237669Y312417D02*
X235811D01*
Y310500D01*
X237669D01*
Y312417D01*
D02*
G37*
G36*
Y309500D02*
X235811D01*
Y307583D01*
X237669D01*
Y309500D01*
D02*
G37*
G36*
X312551Y310551D02*
X305449D01*
Y303449D01*
X312551D01*
Y310551D01*
D02*
G37*
G36*
X309500Y300921D02*
Y297500D01*
X312921D01*
X312851Y298032D01*
X312453Y298993D01*
X311819Y299819D01*
X310993Y300453D01*
X310032Y300851D01*
X309500Y300921D01*
D02*
G37*
G36*
X308500D02*
X307968Y300851D01*
X307007Y300453D01*
X306181Y299819D01*
X305547Y298993D01*
X305149Y298032D01*
X305079Y297500D01*
X308500D01*
Y300921D01*
D02*
G37*
G36*
X378500Y296921D02*
Y293500D01*
X381921D01*
X381851Y294032D01*
X381453Y294993D01*
X380819Y295819D01*
X379993Y296453D01*
X379032Y296851D01*
X378500Y296921D01*
D02*
G37*
G36*
X377500D02*
X376968Y296851D01*
X376007Y296453D01*
X375181Y295819D01*
X374547Y294993D01*
X374149Y294032D01*
X374079Y293500D01*
X377500D01*
Y296921D01*
D02*
G37*
G36*
X312921Y296500D02*
X309500D01*
Y293079D01*
X310032Y293149D01*
X310993Y293547D01*
X311819Y294181D01*
X312453Y295007D01*
X312851Y295968D01*
X312921Y296500D01*
D02*
G37*
G36*
X308500D02*
X305079D01*
X305149Y295968D01*
X305547Y295007D01*
X306181Y294181D01*
X307007Y293547D01*
X307968Y293149D01*
X308500Y293079D01*
Y296500D01*
D02*
G37*
G36*
X221776Y294162D02*
X220094D01*
Y291102D01*
X221776D01*
Y294162D01*
D02*
G37*
G36*
X219094D02*
X217413D01*
Y291102D01*
X219094D01*
Y294162D01*
D02*
G37*
G36*
X381921Y292500D02*
X378500D01*
Y289079D01*
X379032Y289149D01*
X379993Y289547D01*
X380819Y290181D01*
X381453Y291007D01*
X381851Y291968D01*
X381921Y292500D01*
D02*
G37*
G36*
X377500D02*
X374079D01*
X374149Y291968D01*
X374547Y291007D01*
X375181Y290181D01*
X376007Y289547D01*
X376968Y289149D01*
X377500Y289079D01*
Y292500D01*
D02*
G37*
G36*
X219094Y290102D02*
X217413D01*
Y287043D01*
X219094D01*
Y290102D01*
D02*
G37*
G36*
X309000Y290582D02*
X308073Y290460D01*
X307209Y290102D01*
X306467Y289533D01*
X305898Y288791D01*
X305540Y287927D01*
X305418Y287000D01*
X305540Y286073D01*
X305898Y285209D01*
X306467Y284467D01*
X307209Y283898D01*
X308073Y283540D01*
X309000Y283418D01*
X309927Y283540D01*
X310791Y283898D01*
X311533Y284467D01*
X312102Y285209D01*
X312460Y286073D01*
X312582Y287000D01*
X312460Y287927D01*
X312102Y288791D01*
X311533Y289533D01*
X310791Y290102D01*
X309927Y290460D01*
X309000Y290582D01*
D02*
G37*
G36*
X117339Y289628D02*
X116437Y289510D01*
X115597Y289161D01*
X114876Y288608D01*
X114323Y287887D01*
X113975Y287047D01*
X113856Y286146D01*
X113975Y285244D01*
X114323Y284404D01*
X114876Y283683D01*
X115597Y283130D01*
X116437Y282782D01*
X117339Y282663D01*
X118240Y282782D01*
X119080Y283130D01*
X119801Y283683D01*
X120354Y284404D01*
X120703Y285244D01*
X120821Y286146D01*
X120703Y287047D01*
X120354Y287887D01*
X119801Y288608D01*
X119080Y289161D01*
X118240Y289510D01*
X117339Y289628D01*
D02*
G37*
G36*
X378000Y286582D02*
X377073Y286460D01*
X376209Y286102D01*
X375467Y285533D01*
X374898Y284791D01*
X374540Y283927D01*
X374418Y283000D01*
X374540Y282073D01*
X374898Y281209D01*
X375467Y280467D01*
X376209Y279898D01*
X377073Y279540D01*
X378000Y279418D01*
X378927Y279540D01*
X379791Y279898D01*
X380533Y280467D01*
X381102Y281209D01*
X381460Y282073D01*
X381582Y283000D01*
X381460Y283927D01*
X381102Y284791D01*
X380533Y285533D01*
X379791Y286102D01*
X378927Y286460D01*
X378000Y286582D01*
D02*
G37*
G36*
X309000Y280582D02*
X308073Y280460D01*
X307209Y280102D01*
X306467Y279533D01*
X305898Y278791D01*
X305540Y277927D01*
X305418Y277000D01*
X305540Y276073D01*
X305898Y275209D01*
X306467Y274467D01*
X307209Y273898D01*
X308073Y273540D01*
X309000Y273418D01*
X309927Y273540D01*
X310791Y273898D01*
X311533Y274467D01*
X312102Y275209D01*
X312460Y276073D01*
X312582Y277000D01*
X312460Y277927D01*
X312102Y278791D01*
X311533Y279533D01*
X310791Y280102D01*
X309927Y280460D01*
X309000Y280582D01*
D02*
G37*
G36*
X378000Y276582D02*
X377073Y276460D01*
X376209Y276102D01*
X375467Y275533D01*
X374898Y274791D01*
X374540Y273927D01*
X374418Y273000D01*
X374540Y272073D01*
X374818Y271402D01*
X361708Y258292D01*
X361465Y257929D01*
X361380Y257500D01*
Y255029D01*
X360640Y254722D01*
X359869Y254131D01*
X359278Y253360D01*
X358906Y252463D01*
X358779Y251500D01*
X358906Y250537D01*
X359278Y249640D01*
X359869Y248869D01*
X360640Y248278D01*
X361537Y247906D01*
X362500Y247779D01*
X363463Y247906D01*
X364360Y248278D01*
X365131Y248869D01*
X365722Y249640D01*
X366094Y250537D01*
X366221Y251500D01*
X366094Y252463D01*
X365722Y253360D01*
X365131Y254131D01*
X364360Y254722D01*
X363620Y255029D01*
Y257036D01*
X376402Y269818D01*
X377073Y269540D01*
X378000Y269418D01*
X378927Y269540D01*
X379791Y269898D01*
X380533Y270467D01*
X381102Y271209D01*
X381460Y272073D01*
X381582Y273000D01*
X381460Y273927D01*
X381102Y274791D01*
X380533Y275533D01*
X379791Y276102D01*
X378927Y276460D01*
X378000Y276582D01*
D02*
G37*
G36*
X317500Y251453D02*
X314047D01*
Y248000D01*
X317500D01*
Y251453D01*
D02*
G37*
G36*
X107000Y252129D02*
X106061Y252006D01*
X105185Y251643D01*
X104434Y251066D01*
X103857Y250315D01*
X103494Y249439D01*
X103371Y248500D01*
X103494Y247561D01*
X103857Y246685D01*
X104434Y245934D01*
X105185Y245357D01*
X106061Y244994D01*
X107000Y244871D01*
X107939Y244994D01*
X108815Y245357D01*
X109566Y245934D01*
X110143Y246685D01*
X110506Y247561D01*
X110629Y248500D01*
X110506Y249439D01*
X110143Y250315D01*
X109566Y251066D01*
X108815Y251643D01*
X107939Y252006D01*
X107000Y252129D01*
D02*
G37*
G36*
X348000Y251082D02*
X347073Y250960D01*
X346209Y250602D01*
X345467Y250033D01*
X344898Y249291D01*
X344540Y248427D01*
X344418Y247500D01*
X344540Y246573D01*
X344898Y245709D01*
X345467Y244967D01*
X346209Y244398D01*
X347073Y244040D01*
X348000Y243918D01*
X348927Y244040D01*
X349791Y244398D01*
X350533Y244967D01*
X351102Y245709D01*
X351460Y246573D01*
X351582Y247500D01*
X351460Y248427D01*
X351102Y249291D01*
X350533Y250033D01*
X349791Y250602D01*
X348927Y250960D01*
X348000Y251082D01*
D02*
G37*
G36*
X346500Y268625D02*
X345691Y268519D01*
X344937Y268206D01*
X344290Y267710D01*
X343794Y267063D01*
X343481Y266309D01*
X343375Y265500D01*
X343481Y264691D01*
X343794Y263937D01*
X344290Y263290D01*
X344937Y262794D01*
X344984Y262774D01*
X345101Y262185D01*
X337208Y254292D01*
X336965Y253929D01*
X336880Y253500D01*
Y250880D01*
X336209Y250602D01*
X335467Y250033D01*
X334898Y249291D01*
X334540Y248427D01*
X334418Y247500D01*
X334540Y246573D01*
X334898Y245709D01*
X335467Y244967D01*
X336209Y244398D01*
X337073Y244040D01*
X338000Y243918D01*
X338927Y244040D01*
X339791Y244398D01*
X340533Y244967D01*
X341102Y245709D01*
X341460Y246573D01*
X341582Y247500D01*
X341460Y248427D01*
X341102Y249291D01*
X340533Y250033D01*
X339791Y250602D01*
X339120Y250880D01*
Y253036D01*
X347292Y261208D01*
X347535Y261571D01*
X347620Y262000D01*
Y262610D01*
X348063Y262794D01*
X348710Y263290D01*
X349206Y263937D01*
X349519Y264691D01*
X349625Y265500D01*
X349519Y266309D01*
X349206Y267063D01*
X348710Y267710D01*
X348063Y268206D01*
X347309Y268519D01*
X346500Y268625D01*
D02*
G37*
G36*
X321953Y247000D02*
X318500D01*
Y243547D01*
X321953D01*
Y247000D01*
D02*
G37*
G36*
X317500D02*
X314047D01*
Y243547D01*
X317500D01*
Y247000D01*
D02*
G37*
G36*
X426500Y250129D02*
X425561Y250006D01*
X424685Y249643D01*
X423934Y249066D01*
X423357Y248315D01*
X422994Y247439D01*
X422871Y246500D01*
X422994Y245561D01*
X423357Y244685D01*
X423934Y243934D01*
X424685Y243357D01*
X425561Y242994D01*
X426500Y242871D01*
X427439Y242994D01*
X428315Y243357D01*
X429066Y243934D01*
X429643Y244685D01*
X430006Y245561D01*
X430129Y246500D01*
X430006Y247439D01*
X429643Y248315D01*
X429066Y249066D01*
X428315Y249643D01*
X427439Y250006D01*
X426500Y250129D01*
D02*
G37*
%LPD*%
G36*
X415462Y423671D02*
X415540Y423073D01*
X415818Y422402D01*
X392536Y399120D01*
X390857D01*
X390666Y399582D01*
X414934Y423850D01*
X415462Y423671D01*
D02*
G37*
G36*
X358433Y398017D02*
X354098Y393682D01*
X353427Y393960D01*
X352500Y394082D01*
X351573Y393960D01*
X350709Y393602D01*
X349967Y393033D01*
X349398Y392291D01*
X349040Y391427D01*
X348918Y390500D01*
X349040Y389573D01*
X349398Y388709D01*
X349889Y388069D01*
X349734Y387569D01*
X345266D01*
X345111Y388069D01*
X345602Y388709D01*
X345960Y389573D01*
X346082Y390500D01*
X345960Y391427D01*
X345682Y392098D01*
X352062Y398479D01*
X358241D01*
X358433Y398017D01*
D02*
G37*
G36*
X309398Y388709D02*
X309889Y388069D01*
X309734Y387569D01*
X293091D01*
X292921Y388069D01*
X293210Y388290D01*
X293706Y388937D01*
X293890Y389380D01*
X309120D01*
X309398Y388709D01*
D02*
G37*
G36*
X229043Y287650D02*
Y278201D01*
X226681Y275839D01*
X224319D01*
X221957Y278201D01*
Y287650D01*
X224319Y290012D01*
X226681D01*
X229043Y287650D01*
D02*
G37*
D16*
X217410Y427716D02*
X243000D01*
X285476Y450500D02*
X293010D01*
X282622D02*
Y454622D01*
X291411Y478911D02*
X306500Y494000D01*
X291411Y463411D02*
Y478911D01*
X282622Y454622D02*
X291411Y463411D01*
X293010Y472010D02*
X305000Y484000D01*
X293010Y450500D02*
Y472010D01*
X305000Y484000D02*
X306500D01*
X285476Y445888D02*
Y450500D01*
X282524D02*
X282622D01*
X243000Y427716D02*
X251284Y436000D01*
X275589D01*
X285476Y445888D01*
X274500Y440000D02*
X278000Y443500D01*
X198884Y440000D02*
X274500D01*
X192384Y433500D02*
X198884Y440000D01*
X282524Y448024D02*
Y450500D01*
X278000Y443500D02*
X282524Y448024D01*
X279000Y393000D02*
X285551Y386449D01*
X358449D01*
X291000Y390500D02*
X312500D01*
X358449Y386449D02*
X362500Y390500D01*
X298729Y355271D02*
Y382500D01*
Y355271D02*
X308500Y345500D01*
X256000Y382500D02*
X298729D01*
X255500Y383000D02*
X256000Y382500D01*
X243500Y395000D02*
X255500Y383000D01*
X302402Y399402D02*
X302500Y399500D01*
X253598Y399402D02*
X302402D01*
X253500Y399500D02*
X253598Y399402D01*
X276949Y380051D02*
X281000Y376000D01*
X227051Y380051D02*
X276949D01*
X216500Y369500D02*
X227051Y380051D01*
X318500Y340617D02*
Y379500D01*
X313383Y335500D02*
X318500Y340617D01*
X308500Y335500D02*
X313383D01*
X293500Y404000D02*
X293768Y404268D01*
Y418500D01*
X290000D02*
Y429500D01*
X294500Y434000D01*
X320031Y401000D02*
Y427468D01*
X254705Y427858D02*
X280295D01*
X294500Y434000D02*
X306500D01*
X295000Y427358D02*
X296000D01*
X299358Y424000D01*
X306500D01*
X188616Y433500D02*
X188645Y433529D01*
X256000Y463000D02*
Y484941D01*
X250500Y457500D02*
X256000Y463000D01*
X250500Y450500D02*
Y457500D01*
X256000Y490059D02*
X256030Y490029D01*
X286471D01*
X286500Y490000D01*
X213677Y499000D02*
X361000D01*
X226000Y444500D02*
X256469D01*
X216500Y454000D02*
X226000Y444500D01*
X216500Y454000D02*
Y462000D01*
X256469Y444500D02*
X262469Y450500D01*
X241000Y478500D02*
Y485189D01*
X230500Y468000D02*
X241000Y478500D01*
X231000Y488000D02*
X234977D01*
X237788Y485189D01*
X241000D01*
X188645Y454000D02*
X194000D01*
X200500Y447500D01*
X188645Y433529D02*
Y454000D01*
X196500Y468500D02*
Y484616D01*
X206500Y471500D02*
Y484616D01*
X217000Y471500D02*
Y484116D01*
X217500Y484616D01*
X231000Y480500D02*
Y484232D01*
X226000Y475500D02*
X231000Y480500D01*
X188496Y380496D02*
Y384500D01*
X124854Y316854D02*
X188496Y380496D01*
X117339Y316854D02*
X124854D01*
X166055Y421114D02*
Y447000D01*
X157000Y412059D02*
X166055Y421114D01*
X117500Y387472D02*
X132413D01*
X157000Y412059D01*
X107000Y427500D02*
Y447000D01*
Y427500D02*
X117500Y417000D01*
X111756Y465500D02*
X112000Y465744D01*
Y482500D01*
X131244Y457744D02*
Y465500D01*
X120500Y447000D02*
X131244Y457744D01*
X107000Y447000D02*
X120500D01*
X242000Y376000D02*
X271000D01*
X236000Y370000D02*
X242000Y376000D01*
X281000Y365500D02*
Y376000D01*
X266000Y350500D02*
X281000Y365500D01*
X223500Y350500D02*
X266000D01*
X209116Y336116D02*
X223500Y350500D01*
X209116Y322500D02*
Y336116D01*
X260500Y280780D02*
X284661Y256618D01*
X260500Y280780D02*
Y300811D01*
X284661Y256618D02*
X318882D01*
X328000Y247500D01*
X259811Y301500D02*
X260500Y300811D01*
X235268Y301500D02*
X259811D01*
X231500D02*
X231594Y301594D01*
X231453Y301453D02*
X231500Y301500D01*
X231594Y309906D02*
X231689Y310000D01*
X231594Y301594D02*
Y309906D01*
X212884Y322500D02*
X225355D01*
X225500Y322355D01*
Y291587D02*
Y322355D01*
X231453Y290650D02*
Y301453D01*
X231406Y290602D02*
X231453Y290650D01*
X243500Y395000D02*
Y399500D01*
X313500Y434000D02*
X320031Y427468D01*
X323884Y399116D02*
X332500Y390500D01*
X323884Y399116D02*
Y401000D01*
X320031D02*
X320116D01*
X378000Y252000D02*
Y263000D01*
X368000Y242000D02*
X378000Y252000D01*
X333500Y242000D02*
X368000D01*
X328000Y247500D02*
X333500Y242000D01*
X362500Y251500D02*
Y257500D01*
X346500Y262000D02*
Y265500D01*
X338000Y253500D02*
X346500Y262000D01*
X338000Y247500D02*
Y253500D01*
X363500Y345500D02*
X378000Y360000D01*
X363500Y300500D02*
Y345500D01*
X362500Y257500D02*
X378000Y273000D01*
X306500Y434000D02*
X313500D01*
X332705Y405142D02*
X358295D01*
X417551Y428051D02*
X419000Y429500D01*
X417322Y428051D02*
X417551D01*
X414949Y425678D02*
X417322Y428051D01*
X414949Y425449D02*
Y425678D01*
X389098Y399598D02*
X414949Y425449D01*
X419000Y429500D02*
Y434000D01*
X351598Y399598D02*
X389098D01*
X342500Y390500D02*
X351598Y399598D01*
X393000Y398000D02*
X419000Y424000D01*
X360000Y398000D02*
X393000D01*
X352500Y390500D02*
X360000Y398000D01*
X361000Y499000D02*
X364000Y496000D01*
X206500Y491823D02*
X213677Y499000D01*
X206500Y488384D02*
Y491823D01*
X220677Y495000D02*
X245000D01*
X217500Y491823D02*
X220677Y495000D01*
X217500Y488384D02*
Y491823D01*
X355616Y435000D02*
Y459491D01*
X381500Y485375D01*
X359384Y435000D02*
X367579D01*
X358884D02*
X359384D01*
X358884D02*
X359422Y435538D01*
Y448922D01*
X359461Y448961D01*
X381500Y485375D02*
Y485500D01*
X386616Y435000D02*
Y449116D01*
X386712Y449212D01*
X390442Y435058D02*
Y487942D01*
X390500Y488000D01*
X390384Y435000D02*
X390442Y435058D01*
X377421Y435000D02*
X386616D01*
D17*
X282524Y450500D02*
D03*
X285476D02*
D03*
D18*
X290000Y418500D02*
D03*
X293768D02*
D03*
X192384Y433500D02*
D03*
X188616D02*
D03*
X320116Y401000D02*
D03*
X323884D02*
D03*
X359384Y435000D02*
D03*
X355616D02*
D03*
X386616D02*
D03*
X390384D02*
D03*
X231500Y301500D02*
D03*
X235268D02*
D03*
X209116Y322500D02*
D03*
X212884D02*
D03*
D24*
X231689Y310000D02*
D03*
X235311D02*
D03*
D55*
X117339Y316854D02*
D03*
D56*
Y286146D02*
D03*
X284661Y346382D02*
D03*
Y256618D02*
D03*
D57*
X362500Y251500D02*
D03*
X254500Y370000D02*
D03*
X236000D02*
D03*
X216500Y369500D02*
D03*
X363500Y300500D02*
D03*
D62*
X358295Y422858D02*
D03*
X332705D02*
D03*
X358295Y405142D02*
D03*
X243000Y410000D02*
D03*
X217410Y427716D02*
D03*
X243000D02*
D03*
X280295Y410142D02*
D03*
X254705Y427858D02*
D03*
X280295D02*
D03*
D63*
X332705Y405142D02*
D03*
X217410Y410000D02*
D03*
X254705Y410142D02*
D03*
D64*
X157000Y412059D02*
D03*
Y384500D02*
D03*
X188496D02*
D03*
Y412059D02*
D03*
D65*
X262469Y450500D02*
D03*
X250500D02*
D03*
D66*
X238532D02*
D03*
D67*
X177500Y482000D02*
D03*
X132000Y482500D02*
D03*
D68*
X157500Y482000D02*
D03*
X112000Y482500D02*
D03*
D69*
X107000Y447000D02*
D03*
X166055D02*
D03*
D70*
X419000Y484000D02*
D03*
Y414000D02*
D03*
Y424000D02*
D03*
Y434000D02*
D03*
Y444000D02*
D03*
Y454000D02*
D03*
Y464000D02*
D03*
Y474000D02*
D03*
X312500Y390500D02*
D03*
X322500D02*
D03*
X332500D02*
D03*
X342500D02*
D03*
X352500D02*
D03*
X233500Y399500D02*
D03*
X243500D02*
D03*
X253500D02*
D03*
X271000Y376000D02*
D03*
X281000D02*
D03*
X206500Y462000D02*
D03*
X117500Y387472D02*
D03*
X308500Y355500D02*
D03*
Y345500D02*
D03*
Y335500D02*
D03*
X309000Y277000D02*
D03*
Y287000D02*
D03*
Y297000D02*
D03*
X328000Y247500D02*
D03*
X338000D02*
D03*
X348000D02*
D03*
X378000Y370000D02*
D03*
Y360000D02*
D03*
Y350000D02*
D03*
Y273000D02*
D03*
Y283000D02*
D03*
Y293000D02*
D03*
X306500Y424000D02*
D03*
Y494000D02*
D03*
Y484000D02*
D03*
Y474000D02*
D03*
Y464000D02*
D03*
Y454000D02*
D03*
Y444000D02*
D03*
Y434000D02*
D03*
D71*
X419000Y494000D02*
D03*
X117500Y417000D02*
D03*
X308500Y365500D02*
D03*
X309000Y307000D02*
D03*
X378000Y380000D02*
D03*
Y263000D02*
D03*
X306500Y414000D02*
D03*
D72*
X362500Y390500D02*
D03*
X223500Y399500D02*
D03*
X291000Y376000D02*
D03*
X216500Y462000D02*
D03*
X318000Y247500D02*
D03*
D73*
X286500Y490000D02*
D03*
Y480000D02*
D03*
Y470000D02*
D03*
D74*
X107000Y248500D02*
D03*
X426500Y246500D02*
D03*
X428000Y495000D02*
D03*
X106500Y493500D02*
D03*
D75*
X279000Y393000D02*
D03*
X291000Y390500D02*
D03*
X298729Y382500D02*
D03*
X302500Y399500D02*
D03*
X318500Y379500D02*
D03*
X266893Y418607D02*
D03*
X293500Y404000D02*
D03*
X278000Y443500D02*
D03*
X295000Y427358D02*
D03*
X230500Y468000D02*
D03*
X200500Y447500D02*
D03*
X196500Y468500D02*
D03*
X206500Y471500D02*
D03*
X217000D02*
D03*
X226000Y475500D02*
D03*
X346500Y265500D02*
D03*
X364000Y496000D02*
D03*
X245000Y495000D02*
D03*
X359461Y448961D02*
D03*
X381500Y485500D02*
D03*
X386712Y449212D02*
D03*
X390500Y488000D02*
D03*
D76*
X295990Y450500D02*
D03*
X293010D02*
D03*
D77*
X377421Y435000D02*
D03*
X367579D02*
D03*
D78*
X256000Y490059D02*
D03*
Y484941D02*
D03*
D79*
X188645Y454000D02*
D03*
X181355D02*
D03*
D80*
X131244Y465500D02*
D03*
X111756D02*
D03*
D81*
X260500Y300811D02*
D03*
Y327189D02*
D03*
D82*
X231406Y290602D02*
D03*
X219594D02*
D03*
D83*
X225500Y291587D02*
D03*
D84*
Y322355D02*
D03*
Y329645D02*
D03*
D85*
X241000Y485189D02*
D03*
Y488811D02*
D03*
D86*
X206500Y484616D02*
D03*
Y488384D02*
D03*
X217500Y484616D02*
D03*
Y488384D02*
D03*
X231000Y488000D02*
D03*
Y484232D02*
D03*
X196500Y484616D02*
D03*
Y488384D02*
D03*
M02*
