G04*
G04 #@! TF.GenerationSoftware,Altium Limited,Altium Designer,20.0.2 (26)*
G04*
G04 Layer_Color=8388736*
%FSLAX25Y25*%
%MOIN*%
G70*
G01*
G75*
%ADD10C,0.00787*%
G36*
X256390Y373845D02*
Y373841D01*
Y373829D01*
Y373814D01*
Y373791D01*
X256386Y373764D01*
Y373733D01*
X256382Y373664D01*
X256371Y373584D01*
X256359Y373503D01*
X256340Y373422D01*
X256313Y373353D01*
X256309Y373346D01*
X256298Y373326D01*
X256279Y373296D01*
X256256Y373257D01*
X256221Y373211D01*
X256179Y373169D01*
X256125Y373127D01*
X256067Y373088D01*
X256060Y373084D01*
X256037Y373073D01*
X256002Y373061D01*
X255956Y373046D01*
X255899Y373027D01*
X255833Y373015D01*
X255756Y373004D01*
X255676Y373000D01*
X255645D01*
X255622Y373004D01*
X255595Y373008D01*
X255561Y373011D01*
X255488Y373023D01*
X255407Y373046D01*
X255323Y373081D01*
X255280Y373100D01*
X255242Y373127D01*
X255204Y373154D01*
X255169Y373188D01*
Y373192D01*
X255161Y373196D01*
X255154Y373207D01*
X255142Y373223D01*
X255127Y373246D01*
X255115Y373269D01*
X255096Y373300D01*
X255081Y373330D01*
X255065Y373369D01*
X255050Y373411D01*
X255035Y373457D01*
X255023Y373511D01*
X255012Y373565D01*
X255004Y373626D01*
X255000Y373687D01*
Y373757D01*
X255299Y373799D01*
Y373795D01*
Y373787D01*
Y373772D01*
X255303Y373753D01*
Y373730D01*
X255307Y373703D01*
X255319Y373641D01*
X255330Y373572D01*
X255349Y373507D01*
X255376Y373449D01*
X255392Y373422D01*
X255407Y373399D01*
X255411Y373395D01*
X255426Y373384D01*
X255445Y373365D01*
X255476Y373349D01*
X255515Y373330D01*
X255561Y373311D01*
X255614Y373300D01*
X255676Y373296D01*
X255699D01*
X255722Y373300D01*
X255749Y373303D01*
X255783Y373311D01*
X255822Y373319D01*
X255856Y373334D01*
X255891Y373353D01*
X255895Y373357D01*
X255906Y373365D01*
X255922Y373376D01*
X255941Y373395D01*
X255964Y373415D01*
X255983Y373442D01*
X256002Y373472D01*
X256018Y373507D01*
Y373511D01*
X256025Y373526D01*
X256029Y373549D01*
X256037Y373584D01*
X256045Y373630D01*
X256048Y373684D01*
X256056Y373749D01*
Y373826D01*
Y375565D01*
X256390D01*
Y373845D01*
D02*
G37*
G36*
X257976Y373042D02*
X257665D01*
Y375016D01*
X257661Y375012D01*
X257646Y374997D01*
X257619Y374978D01*
X257584Y374951D01*
X257542Y374916D01*
X257492Y374882D01*
X257435Y374839D01*
X257369Y374801D01*
X257365D01*
X257362Y374797D01*
X257339Y374782D01*
X257304Y374763D01*
X257262Y374740D01*
X257212Y374713D01*
X257158Y374690D01*
X257101Y374663D01*
X257047Y374640D01*
Y374943D01*
X257051D01*
X257058Y374947D01*
X257074Y374955D01*
X257089Y374966D01*
X257112Y374978D01*
X257139Y374989D01*
X257200Y375024D01*
X257269Y375066D01*
X257346Y375116D01*
X257423Y375173D01*
X257496Y375235D01*
X257500Y375239D01*
X257504Y375243D01*
X257527Y375266D01*
X257561Y375300D01*
X257604Y375342D01*
X257650Y375396D01*
X257696Y375454D01*
X257738Y375515D01*
X257772Y375577D01*
X257976D01*
Y373042D01*
D02*
G37*
D10*
X368420Y432889D02*
Y437111D01*
Y432889D02*
X376580D01*
Y437111D01*
X368420D02*
X376580D01*
X100898Y360996D02*
X301102D01*
Y242004D02*
Y360996D01*
X100898Y242004D02*
X301102D01*
X100898D02*
Y360996D01*
M02*
