G04*
G04 #@! TF.GenerationSoftware,Altium Limited,Altium Designer,20.0.2 (26)*
G04*
G04 Layer_Color=32896*
%FSLAX25Y25*%
%MOIN*%
G70*
G01*
G75*
%ADD10C,0.00787*%
%ADD11C,0.00984*%
%ADD16C,0.01000*%
D10*
X291995Y447843D02*
X297005D01*
X291995Y453157D02*
X297005D01*
X288592Y421399D02*
X295176D01*
X288592Y415601D02*
X295176D01*
X187208Y430601D02*
X193792D01*
X187208Y436399D02*
X193792D01*
X318708Y403899D02*
X325292D01*
X318708Y398101D02*
X325292D01*
X354208Y432101D02*
X360792D01*
X354208Y437899D02*
X360792D01*
X371220Y438150D02*
X373780D01*
X371220Y431850D02*
X373780D01*
X385208Y437899D02*
X391792D01*
X385208Y432101D02*
X391792D01*
X178492Y449362D02*
X191508D01*
X178492Y458638D02*
X191508D01*
X117366Y470323D02*
X125634D01*
X117366Y460677D02*
X125634D01*
X276839Y292937D02*
Y330339D01*
X244161Y305831D02*
Y330339D01*
X230618Y278496D02*
X234555D01*
Y288732D01*
X216445Y278496D02*
X220382D01*
X216445D02*
Y288732D01*
X220862Y319492D02*
Y332508D01*
X230138Y319492D02*
Y332508D01*
X230092Y304399D02*
X236676D01*
X230092Y298601D02*
X236676D01*
X207708Y325399D02*
X214292D01*
X207708Y319601D02*
X214292D01*
X203601Y483208D02*
Y489792D01*
X209399Y483208D02*
Y489792D01*
X214601Y483208D02*
Y489792D01*
X220399Y483208D02*
Y489792D01*
X233899Y482824D02*
Y489408D01*
X228101Y482824D02*
Y489408D01*
X193601Y483208D02*
Y489792D01*
X199399Y483208D02*
Y489792D01*
D11*
X216740Y291291D02*
G03*
X216740Y291291I-492J0D01*
G01*
D16*
X153405Y344500D02*
X159403D01*
Y341501D01*
X158403Y340501D01*
X154405D01*
X153405Y341501D01*
Y344500D01*
Y338502D02*
Y336503D01*
Y337502D01*
X159403D01*
Y338502D01*
Y336503D01*
X153405Y333504D02*
X154405D01*
X156404Y331504D01*
X154405Y329505D01*
X153405D01*
X156404Y331504D02*
X159403D01*
Y321507D02*
X155404D01*
X153405Y319508D01*
X155404Y317509D01*
X159403D01*
X156404D01*
Y321507D01*
X159403Y315509D02*
Y313510D01*
Y314510D01*
X155404D01*
Y315509D01*
Y310511D02*
X159403D01*
X157404D01*
X156404Y309511D01*
X155404Y308512D01*
Y307512D01*
X158403Y294516D02*
X154405D01*
X153405Y295516D01*
Y297515D01*
X154405Y298515D01*
X158403D01*
X159403Y297515D01*
Y295516D01*
X157404Y296515D02*
X159403Y294516D01*
Y295516D02*
X158403Y294516D01*
X155404Y292517D02*
X158403D01*
X159403Y291517D01*
Y288518D01*
X155404D01*
Y285519D02*
Y283520D01*
X156404Y282520D01*
X159403D01*
Y285519D01*
X158403Y286519D01*
X157404Y285519D01*
Y282520D01*
X159403Y280521D02*
Y278521D01*
Y279521D01*
X153405D01*
Y280521D01*
X159403Y275522D02*
Y273523D01*
Y274523D01*
X155404D01*
Y275522D01*
X154405Y269524D02*
X155404D01*
Y270524D01*
Y268525D01*
Y269524D01*
X158403D01*
X159403Y268525D01*
X155404Y265526D02*
X158403D01*
X159403Y264526D01*
Y261527D01*
X160403D01*
X161402Y262526D01*
Y263526D01*
X159403Y261527D02*
X155404D01*
X171000Y344500D02*
X165002D01*
X167001Y342501D01*
X165002Y340501D01*
X171000D01*
Y337502D02*
Y335503D01*
X170000Y334503D01*
X168001D01*
X167001Y335503D01*
Y337502D01*
X168001Y338502D01*
X170000D01*
X171000Y337502D01*
Y332504D02*
X167001D01*
Y329505D01*
X168001Y328505D01*
X171000D01*
Y326506D02*
Y324506D01*
Y325506D01*
X167001D01*
Y326506D01*
X166002Y320508D02*
X167001D01*
Y321507D01*
Y319508D01*
Y320508D01*
X170000D01*
X171000Y319508D01*
Y315509D02*
Y313510D01*
X170000Y312510D01*
X168001D01*
X167001Y313510D01*
Y315509D01*
X168001Y316509D01*
X170000D01*
X171000Y315509D01*
X167001Y310511D02*
X171000D01*
X169001D01*
X168001Y309511D01*
X167001Y308512D01*
Y307512D01*
X171000Y298515D02*
Y296515D01*
Y297515D01*
X165002D01*
X166002Y298515D01*
X171000Y293516D02*
X170000D01*
Y292517D01*
X171000D01*
Y293516D01*
Y288518D02*
Y286519D01*
Y287518D01*
X165002D01*
X166002Y288518D01*
X184000Y340501D02*
Y344500D01*
X180001Y340501D01*
X179002D01*
X178002Y341501D01*
Y343500D01*
X179002Y344500D01*
Y338502D02*
X178002Y337502D01*
Y335503D01*
X179002Y334503D01*
X183000D01*
X184000Y335503D01*
Y337502D01*
X183000Y338502D01*
X179002D01*
X184000Y328505D02*
Y332504D01*
X180001Y328505D01*
X179002D01*
X178002Y329505D01*
Y331504D01*
X179002Y332504D01*
Y326506D02*
X178002Y325506D01*
Y323507D01*
X179002Y322507D01*
X180001D01*
X181001Y323507D01*
Y324506D01*
Y323507D01*
X182001Y322507D01*
X183000D01*
X184000Y323507D01*
Y325506D01*
X183000Y326506D01*
X184000Y320508D02*
X180001Y316509D01*
X179002Y314510D02*
X178002Y313510D01*
Y311511D01*
X179002Y310511D01*
X183000D01*
X184000Y311511D01*
Y313510D01*
X183000Y314510D01*
X179002D01*
X184000Y308512D02*
Y306512D01*
Y307512D01*
X178002D01*
X179002Y308512D01*
X184000Y303513D02*
X180001Y299515D01*
X184000Y297515D02*
Y295516D01*
Y296515D01*
X178002D01*
X179002Y297515D01*
X184000Y288518D02*
Y292517D01*
X180001Y288518D01*
X179002D01*
X178002Y289518D01*
Y291517D01*
X179002Y292517D01*
X415000Y416998D02*
X413001D01*
X414000D01*
Y411000D01*
X415000D01*
X413001D01*
X407003Y416998D02*
X409002D01*
X410002Y415998D01*
Y412000D01*
X409002Y411000D01*
X407003D01*
X406003Y412000D01*
Y415998D01*
X407003Y416998D01*
X404004Y411000D02*
X402004D01*
X403004D01*
Y416998D01*
X404004Y415998D01*
X399005D02*
X398006Y416998D01*
X396006D01*
X395006Y415998D01*
Y412000D01*
X396006Y411000D01*
X398006D01*
X399005Y412000D01*
Y415998D01*
X413500Y421000D02*
Y426498D01*
X410751D01*
X409834Y425582D01*
Y423749D01*
X410751Y422833D01*
X413500D01*
X411667D02*
X409834Y421000D01*
X408002Y426498D02*
X404336Y421000D01*
Y426498D02*
X408002Y421000D01*
X402504Y426498D02*
Y421000D01*
X399754D01*
X398838Y421916D01*
Y425582D01*
X399754Y426498D01*
X402504D01*
X415000Y436498D02*
X411335D01*
X413167D01*
Y431000D01*
X409502Y436498D02*
X405836Y431000D01*
Y436498D02*
X409502Y431000D01*
X404004Y436498D02*
Y431000D01*
X401254D01*
X400338Y431916D01*
Y435582D01*
X401254Y436498D01*
X404004D01*
X414500Y446998D02*
Y441500D01*
X411751D01*
X410835Y442416D01*
Y446082D01*
X411751Y446998D01*
X414500D01*
X409002Y444249D02*
X405336D01*
X414500Y456998D02*
Y451500D01*
X411751D01*
X410835Y452416D01*
Y456082D01*
X411751Y456998D01*
X414500D01*
X409002Y454249D02*
X405336D01*
X407169Y456082D02*
Y452416D01*
X415500Y466998D02*
X413667D01*
X414584D01*
Y461500D01*
X415500D01*
X413667D01*
X408169Y466998D02*
X410002D01*
X410918Y466082D01*
Y462416D01*
X410002Y461500D01*
X408169D01*
X407253Y462416D01*
Y466082D01*
X408169Y466998D01*
X405420Y466082D02*
X404504Y466998D01*
X402671D01*
X401754Y466082D01*
Y465166D01*
X402671Y464249D01*
X403587D01*
X402671D01*
X401754Y463333D01*
Y462416D01*
X402671Y461500D01*
X404504D01*
X405420Y462416D01*
X415500Y476998D02*
X413667D01*
X414584D01*
Y471500D01*
X415500D01*
X413667D01*
X408169Y476998D02*
X410002D01*
X410918Y476082D01*
Y472416D01*
X410002Y471500D01*
X408169D01*
X407253Y472416D01*
Y476082D01*
X408169Y476998D01*
X401754Y471500D02*
X405420D01*
X401754Y475166D01*
Y476082D01*
X402671Y476998D01*
X404504D01*
X405420Y476082D01*
X415500Y486498D02*
X413667D01*
X414584D01*
Y481000D01*
X415500D01*
X413667D01*
X408169Y486498D02*
X410002D01*
X410918Y485582D01*
Y481916D01*
X410002Y481000D01*
X408169D01*
X407253Y481916D01*
Y485582D01*
X408169Y486498D01*
X405420Y481000D02*
X403587D01*
X404504D01*
Y486498D01*
X405420Y485582D01*
X415000Y496498D02*
X413167D01*
X414084D01*
Y491000D01*
X415000D01*
X413167D01*
X407669Y496498D02*
X409502D01*
X410418Y495582D01*
Y491916D01*
X409502Y491000D01*
X407669D01*
X406753Y491916D01*
Y495582D01*
X407669Y496498D01*
X404920Y495582D02*
X404004Y496498D01*
X402171D01*
X401254Y495582D01*
Y491916D01*
X402171Y491000D01*
X404004D01*
X404920Y491916D01*
Y495582D01*
X322834Y416082D02*
X323751Y416998D01*
X325584D01*
X326500Y416082D01*
Y412416D01*
X325584Y411500D01*
X323751D01*
X322834Y412416D01*
Y414249D01*
X324667D01*
X321002Y411500D02*
Y416998D01*
X317336Y411500D01*
Y416998D01*
X315504D02*
Y411500D01*
X312754D01*
X311838Y412416D01*
Y416082D01*
X312754Y416998D01*
X315504D01*
X326000Y426998D02*
X324167D01*
X325084D01*
Y421500D01*
X326000D01*
X324167D01*
X318669Y426998D02*
X320502D01*
X321418Y426082D01*
Y422416D01*
X320502Y421500D01*
X318669D01*
X317753Y422416D01*
Y426082D01*
X318669Y426998D01*
X315920Y422416D02*
X315004Y421500D01*
X313171D01*
X312254Y422416D01*
Y426082D01*
X313171Y426998D01*
X315004D01*
X315920Y426082D01*
Y425166D01*
X315004Y424249D01*
X312254D01*
X325500Y436998D02*
X323667D01*
X324584D01*
Y431500D01*
X325500D01*
X323667D01*
X318169Y436998D02*
X320002D01*
X320918Y436082D01*
Y432416D01*
X320002Y431500D01*
X318169D01*
X317253Y432416D01*
Y436082D01*
X318169Y436998D01*
X315420Y436082D02*
X314504Y436998D01*
X312671D01*
X311754Y436082D01*
Y435166D01*
X312671Y434249D01*
X311754Y433333D01*
Y432416D01*
X312671Y431500D01*
X314504D01*
X315420Y432416D01*
Y433333D01*
X314504Y434249D01*
X315420Y435166D01*
Y436082D01*
X314504Y434249D02*
X312671D01*
X325000Y446498D02*
X323167D01*
X324084D01*
Y441000D01*
X325000D01*
X323167D01*
X317669Y446498D02*
X319502D01*
X320418Y445582D01*
Y441916D01*
X319502Y441000D01*
X317669D01*
X316753Y441916D01*
Y445582D01*
X317669Y446498D01*
X314920D02*
X311254D01*
Y445582D01*
X314920Y441916D01*
Y441000D01*
X325000Y457498D02*
X323167D01*
X324084D01*
Y452000D01*
X325000D01*
X323167D01*
X317669Y457498D02*
X319502D01*
X320418Y456582D01*
Y452916D01*
X319502Y452000D01*
X317669D01*
X316753Y452916D01*
Y456582D01*
X317669Y457498D01*
X311254D02*
X313087Y456582D01*
X314920Y454749D01*
Y452916D01*
X314004Y452000D01*
X312171D01*
X311254Y452916D01*
Y453833D01*
X312171Y454749D01*
X314920D01*
X322335Y466082D02*
X323251Y466998D01*
X325084D01*
X326000Y466082D01*
Y465166D01*
X325084Y464249D01*
X323251D01*
X322335Y463333D01*
Y462416D01*
X323251Y461500D01*
X325084D01*
X326000Y462416D01*
X320502Y466998D02*
Y461500D01*
X317753D01*
X316836Y462416D01*
Y466082D01*
X317753Y466998D01*
X320502D01*
X315004Y461500D02*
Y465166D01*
X313171Y466998D01*
X311338Y465166D01*
Y461500D01*
Y464249D01*
X315004D01*
X321335Y476082D02*
X322251Y476998D01*
X324084D01*
X325000Y476082D01*
Y475166D01*
X324084Y474249D01*
X322251D01*
X321335Y473333D01*
Y472416D01*
X322251Y471500D01*
X324084D01*
X325000Y472416D01*
X315836Y476082D02*
X316753Y476998D01*
X318585D01*
X319502Y476082D01*
Y472416D01*
X318585Y471500D01*
X316753D01*
X315836Y472416D01*
X314004Y476998D02*
Y471500D01*
X310338D01*
X317335Y486998D02*
X321000D01*
Y481500D01*
X317335D01*
X321000Y484249D02*
X319167D01*
X315502Y481500D02*
Y486998D01*
X311836Y481500D01*
Y486998D01*
X331000Y495582D02*
X330084Y496498D01*
X328251D01*
X327334Y495582D01*
Y494665D01*
X328251Y493749D01*
X329167D01*
X328251D01*
X327334Y492833D01*
Y491916D01*
X328251Y491000D01*
X330084D01*
X331000Y491916D01*
X325502Y491000D02*
Y491916D01*
X324585D01*
Y491000D01*
X325502D01*
X320920Y495582D02*
X320004Y496498D01*
X318171D01*
X317254Y495582D01*
Y494665D01*
X318171Y493749D01*
X319087D01*
X318171D01*
X317254Y492833D01*
Y491916D01*
X318171Y491000D01*
X320004D01*
X320920Y491916D01*
X315422Y496498D02*
Y492833D01*
X313589Y491000D01*
X311756Y492833D01*
Y496498D01*
X253002Y388001D02*
X252002Y389001D01*
Y391000D01*
X253002Y392000D01*
X254001D01*
X255001Y391000D01*
Y389001D01*
X256001Y388001D01*
X257000D01*
X258000Y389001D01*
Y391000D01*
X257000Y392000D01*
X252002Y386002D02*
X258000D01*
Y383003D01*
X257000Y382003D01*
X253002D01*
X252002Y383003D01*
Y386002D01*
X258000Y380004D02*
X254001D01*
X252002Y378005D01*
X254001Y376005D01*
X258000D01*
X255001D01*
Y380004D01*
X242002Y388501D02*
X241002Y389501D01*
Y391500D01*
X242002Y392500D01*
X243001D01*
X244001Y391500D01*
Y389501D01*
X245001Y388501D01*
X246000D01*
X247000Y389501D01*
Y391500D01*
X246000Y392500D01*
X242002Y382503D02*
X241002Y383503D01*
Y385502D01*
X242002Y386502D01*
X246000D01*
X247000Y385502D01*
Y383503D01*
X246000Y382503D01*
X241002Y380504D02*
X247000D01*
Y376505D01*
X231502Y388501D02*
Y392500D01*
X234501D01*
X233501Y390501D01*
Y389501D01*
X234501Y388501D01*
X236500D01*
X237500Y389501D01*
Y391500D01*
X236500Y392500D01*
X231502Y386502D02*
X235501D01*
X237500Y384503D01*
X235501Y382503D01*
X231502D01*
X221502Y388501D02*
X220502Y389501D01*
Y391500D01*
X221502Y392500D01*
X225500D01*
X226500Y391500D01*
Y389501D01*
X225500Y388501D01*
X223501D01*
Y390501D01*
X226500Y386502D02*
X220502D01*
X226500Y382503D01*
X220502D01*
Y380504D02*
X226500D01*
Y377505D01*
X225500Y376505D01*
X221502D01*
X220502Y377505D01*
Y380504D01*
X266502Y364501D02*
Y368500D01*
X269501D01*
X268501Y366501D01*
Y365501D01*
X269501Y364501D01*
X271500D01*
X272500Y365501D01*
Y367500D01*
X271500Y368500D01*
X266502Y362502D02*
X270501D01*
X272500Y360503D01*
X270501Y358503D01*
X266502D01*
X278002Y370500D02*
X277002Y369500D01*
Y367501D01*
X278002Y366501D01*
X279001D01*
X280001Y367501D01*
Y368501D01*
Y367501D01*
X281001Y366501D01*
X282000D01*
X283000Y367501D01*
Y369500D01*
X282000Y370500D01*
X283000Y364502D02*
X282000D01*
Y363502D01*
X283000D01*
Y364502D01*
X278002Y359504D02*
X277002Y358504D01*
Y356505D01*
X278002Y355505D01*
X279001D01*
X280001Y356505D01*
Y357504D01*
Y356505D01*
X281001Y355505D01*
X282000D01*
X283000Y356505D01*
Y358504D01*
X282000Y359504D01*
X277002Y353505D02*
X281001D01*
X283000Y351506D01*
X281001Y349507D01*
X277002D01*
X289502Y364501D02*
X288502Y365501D01*
Y367500D01*
X289502Y368500D01*
X293500D01*
X294500Y367500D01*
Y365501D01*
X293500Y364501D01*
X291501D01*
Y366501D01*
X294500Y362502D02*
X288502D01*
X294500Y358503D01*
X288502D01*
Y356504D02*
X294500D01*
Y353505D01*
X293500Y352505D01*
X289502D01*
X288502Y353505D01*
Y356504D01*
X317501Y260498D02*
X318501Y261498D01*
X320500D01*
X321500Y260498D01*
Y256500D01*
X320500Y255500D01*
X318501D01*
X317501Y256500D01*
Y258499D01*
X319501D01*
X315502Y255500D02*
Y261498D01*
X311503Y255500D01*
Y261498D01*
X309504D02*
Y255500D01*
X306505D01*
X305505Y256500D01*
Y260498D01*
X306505Y261498D01*
X309504D01*
X334502Y264500D02*
Y260501D01*
Y262501D01*
X340500D01*
X334502Y258502D02*
X340500Y254503D01*
X334502D02*
X340500Y258502D01*
X351000Y264500D02*
X345002D01*
Y261501D01*
X346002Y260501D01*
X348001D01*
X349001Y261501D01*
Y264500D01*
Y262501D02*
X351000Y260501D01*
X345002Y258502D02*
X351000Y254503D01*
X345002D02*
X351000Y258502D01*
X345500Y383000D02*
X339502D01*
Y380001D01*
X340502Y379001D01*
X342501D01*
X343501Y380001D01*
Y383000D01*
Y381001D02*
X345500Y379001D01*
X339502Y377002D02*
X345500Y373003D01*
X339502D02*
X345500Y377002D01*
X325002Y261001D02*
Y265000D01*
X328001D01*
X327001Y263001D01*
Y262001D01*
X328001Y261001D01*
X330000D01*
X331000Y262001D01*
Y264000D01*
X330000Y265000D01*
X325002Y259002D02*
X329001D01*
X331000Y257003D01*
X329001Y255003D01*
X325002D01*
X365500Y383500D02*
X359502D01*
Y380501D01*
X360502Y379501D01*
X362501D01*
X363501Y380501D01*
Y383500D01*
Y381501D02*
X365500Y379501D01*
X359502Y373503D02*
Y377502D01*
X365500D01*
Y373503D01*
X362501Y377502D02*
Y375503D01*
X360502Y367505D02*
X359502Y368505D01*
Y370504D01*
X360502Y371504D01*
X361501D01*
X362501Y370504D01*
Y368505D01*
X363501Y367505D01*
X364500D01*
X365500Y368505D01*
Y370504D01*
X364500Y371504D01*
X359502Y361507D02*
Y365506D01*
X365500D01*
Y361507D01*
X362501Y365506D02*
Y363507D01*
X359502Y359508D02*
Y355509D01*
Y357508D01*
X365500D01*
X349002Y383500D02*
Y379501D01*
Y381501D01*
X355000D01*
X349002Y377502D02*
X355000Y373503D01*
X349002D02*
X355000Y377502D01*
X330502Y379001D02*
X329502Y380001D01*
Y382000D01*
X330502Y383000D01*
X331501D01*
X332501Y382000D01*
Y380001D01*
X333501Y379001D01*
X334500D01*
X335500Y380001D01*
Y382000D01*
X334500Y383000D01*
X329502Y373003D02*
Y377002D01*
X335500D01*
Y373003D01*
X332501Y377002D02*
Y375003D01*
X329502Y371004D02*
Y367005D01*
Y369005D01*
X335500D01*
X320002Y379501D02*
X319002Y380501D01*
Y382500D01*
X320002Y383500D01*
X324000D01*
X325000Y382500D01*
Y380501D01*
X324000Y379501D01*
X322001D01*
Y381501D01*
X325000Y377502D02*
X319002D01*
X325000Y373503D01*
X319002D01*
Y371504D02*
X325000D01*
Y368505D01*
X324000Y367505D01*
X320002D01*
X319002Y368505D01*
Y371504D01*
X308002Y379001D02*
Y383000D01*
X311001D01*
X310001Y381001D01*
Y380001D01*
X311001Y379001D01*
X313000D01*
X314000Y380001D01*
Y382000D01*
X313000Y383000D01*
X308002Y377002D02*
X312001D01*
X314000Y375003D01*
X312001Y373003D01*
X308002D01*
X285884Y416000D02*
Y421998D01*
X282885D01*
X281885Y420998D01*
Y418999D01*
X282885Y417999D01*
X285884D01*
X283885D02*
X281885Y416000D01*
X279886D02*
X277887D01*
X278886D01*
Y421998D01*
X279886Y420998D01*
X274888Y421998D02*
X270889D01*
Y420998D01*
X274888Y417000D01*
Y416000D01*
X315500Y397500D02*
Y403498D01*
X312501D01*
X311501Y402498D01*
Y400499D01*
X312501Y399499D01*
X315500D01*
X313501D02*
X311501Y397500D01*
X309502D02*
X307503D01*
X308502D01*
Y403498D01*
X309502Y402498D01*
X300505Y403498D02*
X302504Y402498D01*
X304504Y400499D01*
Y398500D01*
X303504Y397500D01*
X301504D01*
X300505Y398500D01*
Y399499D01*
X301504Y400499D01*
X304504D01*
X377000Y427998D02*
Y426998D01*
X375001Y424999D01*
X373001Y426998D01*
Y427998D01*
X375001Y424999D02*
Y422000D01*
X371002D02*
X369003D01*
X370002D01*
Y427998D01*
X371002Y426998D01*
X351000Y432000D02*
Y437998D01*
X348001D01*
X347001Y436998D01*
Y434999D01*
X348001Y433999D01*
X351000D01*
X349001D02*
X347001Y432000D01*
X345002D02*
X343003D01*
X344002D01*
Y437998D01*
X345002Y436998D01*
X340004D02*
X339004Y437998D01*
X337004D01*
X336005Y436998D01*
Y435999D01*
X337004Y434999D01*
X338004D01*
X337004D01*
X336005Y433999D01*
Y433000D01*
X337004Y432000D01*
X339004D01*
X340004Y433000D01*
X397000Y424000D02*
Y429998D01*
X394001D01*
X393001Y428998D01*
Y426999D01*
X394001Y425999D01*
X397000D01*
X395001D02*
X393001Y424000D01*
X391002D02*
X389003D01*
X390002D01*
Y429998D01*
X391002Y428998D01*
X382005Y424000D02*
X386004D01*
X382005Y427999D01*
Y428998D01*
X383004Y429998D01*
X385004D01*
X386004Y428998D01*
X202000Y475500D02*
Y481498D01*
X199001D01*
X198001Y480498D01*
Y478499D01*
X199001Y477499D01*
X202000D01*
X200001D02*
X198001Y475500D01*
X196002D02*
X194003D01*
X195002D01*
Y481498D01*
X196002Y480498D01*
X191004D02*
X190004Y481498D01*
X188005D01*
X187005Y480498D01*
Y476500D01*
X188005Y475500D01*
X190004D01*
X191004Y476500D01*
Y480498D01*
X289500Y453000D02*
Y458998D01*
X286501D01*
X285501Y457998D01*
Y455999D01*
X286501Y454999D01*
X289500D01*
X287501D02*
X285501Y453000D01*
X283502Y457998D02*
X282502Y458998D01*
X280503D01*
X279503Y457998D01*
Y456999D01*
X280503Y455999D01*
X279503Y454999D01*
Y454000D01*
X280503Y453000D01*
X282502D01*
X283502Y454000D01*
Y454999D01*
X282502Y455999D01*
X283502Y456999D01*
Y457998D01*
X282502Y455999D02*
X280503D01*
X184500Y430500D02*
Y436498D01*
X181501D01*
X180501Y435498D01*
Y433499D01*
X181501Y432499D01*
X184500D01*
X182501D02*
X180501Y430500D01*
X178502Y436498D02*
X174503D01*
Y435498D01*
X178502Y431500D01*
Y430500D01*
X236500Y492000D02*
Y497998D01*
X233501D01*
X232501Y496998D01*
Y494999D01*
X233501Y493999D01*
X236500D01*
X234501D02*
X232501Y492000D01*
X226503Y497998D02*
X228503Y496998D01*
X230502Y494999D01*
Y493000D01*
X229502Y492000D01*
X227503D01*
X226503Y493000D01*
Y493999D01*
X227503Y494999D01*
X230502D01*
X223500Y492000D02*
Y497998D01*
X220501D01*
X219501Y496998D01*
Y494999D01*
X220501Y493999D01*
X223500D01*
X221501D02*
X219501Y492000D01*
X213503Y497998D02*
X217502D01*
Y494999D01*
X215503Y495999D01*
X214503D01*
X213503Y494999D01*
Y493000D01*
X214503Y492000D01*
X216502D01*
X217502Y493000D01*
X211000Y492000D02*
Y497998D01*
X208001D01*
X207001Y496998D01*
Y494999D01*
X208001Y493999D01*
X211000D01*
X209001D02*
X207001Y492000D01*
X202003D02*
Y497998D01*
X205002Y494999D01*
X201003D01*
X260500Y474000D02*
Y479998D01*
X257501D01*
X256501Y478998D01*
Y476999D01*
X257501Y475999D01*
X260500D01*
X258501D02*
X256501Y474000D01*
X254502Y478998D02*
X253502Y479998D01*
X251503D01*
X250503Y478998D01*
Y477999D01*
X251503Y476999D01*
X252503D01*
X251503D01*
X250503Y475999D01*
Y475000D01*
X251503Y474000D01*
X253502D01*
X254502Y475000D01*
X217484Y328800D02*
Y334798D01*
X214485D01*
X213485Y333798D01*
Y331799D01*
X214485Y330799D01*
X217484D01*
X215485D02*
X213485Y328800D01*
X207487D02*
X211486D01*
X207487Y332799D01*
Y333798D01*
X208487Y334798D01*
X210486D01*
X211486Y333798D01*
X226000Y298500D02*
Y304498D01*
X223001D01*
X222001Y303498D01*
Y301499D01*
X223001Y300499D01*
X226000D01*
X224001D02*
X222001Y298500D01*
X220002D02*
X218003D01*
X219002D01*
Y304498D01*
X220002Y303498D01*
X142001Y467498D02*
X146000D01*
Y464499D01*
X144001D01*
X146000D01*
Y461500D01*
X140002D02*
X138003D01*
X139002D01*
Y467498D01*
X140002Y466498D01*
X295501Y445498D02*
X296501Y446498D01*
X298500D01*
X299500Y445498D01*
Y441500D01*
X298500Y440500D01*
X296501D01*
X295501Y441500D01*
X293502D02*
X292502Y440500D01*
X290503D01*
X289503Y441500D01*
Y445498D01*
X290503Y446498D01*
X292502D01*
X293502Y445498D01*
Y444499D01*
X292502Y443499D01*
X289503D01*
X242001Y480498D02*
X243001Y481498D01*
X245000D01*
X246000Y480498D01*
Y476500D01*
X245000Y475500D01*
X243001D01*
X242001Y476500D01*
X236003Y481498D02*
X238003Y480498D01*
X240002Y478499D01*
Y476500D01*
X239002Y475500D01*
X237003D01*
X236003Y476500D01*
Y477499D01*
X237003Y478499D01*
X240002D01*
X172501Y455498D02*
X173501Y456498D01*
X175500D01*
X176500Y455498D01*
Y451500D01*
X175500Y450500D01*
X173501D01*
X172501Y451500D01*
X166503Y456498D02*
X170502D01*
Y453499D01*
X168503Y454499D01*
X167503D01*
X166503Y453499D01*
Y451500D01*
X167503Y450500D01*
X169502D01*
X170502Y451500D01*
X223001Y312498D02*
X224001Y313498D01*
X226000D01*
X227000Y312498D01*
Y308500D01*
X226000Y307500D01*
X224001D01*
X223001Y308500D01*
X218003Y307500D02*
Y313498D01*
X221002Y310499D01*
X217003D01*
X227101Y342898D02*
X228101Y343898D01*
X230100D01*
X231100Y342898D01*
Y338900D01*
X230100Y337900D01*
X228101D01*
X227101Y338900D01*
X225102Y342898D02*
X224102Y343898D01*
X222103D01*
X221103Y342898D01*
Y341899D01*
X222103Y340899D01*
X223103D01*
X222103D01*
X221103Y339899D01*
Y338900D01*
X222103Y337900D01*
X224102D01*
X225102Y338900D01*
X274001Y344498D02*
X275001Y345498D01*
X277000D01*
X278000Y344498D01*
Y340500D01*
X277000Y339500D01*
X275001D01*
X274001Y340500D01*
X268003Y339500D02*
X272002D01*
X268003Y343499D01*
Y344498D01*
X269003Y345498D01*
X271002D01*
X272002Y344498D01*
X234500Y266000D02*
Y269999D01*
X232501Y271998D01*
X230501Y269999D01*
Y266000D01*
Y268999D01*
X234500D01*
X228502Y266000D02*
X226503D01*
X227502D01*
Y271998D01*
X228502Y270998D01*
M02*
