G04*
G04 #@! TF.GenerationSoftware,Altium Limited,Altium Designer,20.0.2 (26)*
G04*
G04 Layer_Color=8388736*
%FSLAX25Y25*%
%MOIN*%
G70*
G01*
G75*
%ADD18R,0.02816X0.02648*%
%ADD31R,0.02769X0.02572*%
%ADD32R,0.05918X0.03162*%
%ADD33R,0.03950X0.03162*%
%ADD34R,0.03556X0.05524*%
%ADD35R,0.03556X0.03556*%
%ADD36R,0.06706X0.04343*%
%ADD37R,0.03517X0.03635*%
%ADD38R,0.03753X0.04147*%
%ADD39R,0.03517X0.03635*%
%ADD40R,0.08280X0.08280*%
%ADD41R,0.07887X0.08280*%
%ADD42R,0.09068X0.07099*%
%ADD43R,0.02375X0.06115*%
%ADD44C,0.06737*%
%ADD45R,0.06737X0.06737*%
%ADD46C,0.06312*%
%ADD47C,0.08536*%
%ADD48R,0.08536X0.08536*%
%ADD49R,0.07887X0.07887*%
%ADD50C,0.07887*%
%ADD51C,0.05524*%
%ADD52C,0.06706*%
%ADD53R,0.06706X0.06706*%
%ADD54R,0.06706X0.06706*%
%ADD55R,0.05709X0.05709*%
%ADD56C,0.05709*%
%ADD57C,0.06181*%
%ADD58C,0.05796*%
%ADD59C,0.06800*%
%ADD60C,0.05800*%
G36*
X188202Y451441D02*
X188253Y451431D01*
X188303Y451414D01*
X188350Y451391D01*
X188394Y451361D01*
X188433Y451327D01*
X190795Y448965D01*
X190830Y448925D01*
X190859Y448881D01*
X190882Y448835D01*
X190899Y448785D01*
X190909Y448733D01*
X190913Y448681D01*
Y446319D01*
X190909Y446267D01*
X190899Y446215D01*
X190882Y446166D01*
X190859Y446118D01*
X190830Y446075D01*
X190795Y446035D01*
X188433Y443673D01*
X188394Y443639D01*
X188350Y443610D01*
X188303Y443586D01*
X188253Y443570D01*
X188202Y443559D01*
X188150Y443556D01*
X178701D01*
X178648Y443559D01*
X178597Y443570D01*
X178547Y443586D01*
X178500Y443610D01*
X178457Y443639D01*
X178417Y443673D01*
X176055Y446035D01*
X176021Y446075D01*
X175991Y446118D01*
X175968Y446166D01*
X175951Y446215D01*
X175941Y446267D01*
X175938Y446319D01*
Y448681D01*
X175941Y448733D01*
X175951Y448785D01*
X175968Y448835D01*
X175991Y448881D01*
X176021Y448925D01*
X176055Y448965D01*
X178417Y451327D01*
X178457Y451361D01*
X178500Y451391D01*
X178547Y451414D01*
X178597Y451431D01*
X178648Y451441D01*
X178701Y451444D01*
X188150D01*
X188202Y451441D01*
D02*
G37*
D18*
X374384Y435000D02*
D03*
X370616D02*
D03*
D31*
X267024Y393000D02*
D03*
X269976D02*
D03*
X269976Y400000D02*
D03*
X267024D02*
D03*
D32*
X191102Y453406D02*
D03*
Y441594D02*
D03*
D33*
X192087Y447500D02*
D03*
D34*
X241657Y479205D02*
D03*
X251500D02*
D03*
X261343D02*
D03*
D35*
X372000Y465338D02*
D03*
X367669D02*
D03*
X363339D02*
D03*
Y469669D02*
D03*
Y474000D02*
D03*
X367669D02*
D03*
X372000D02*
D03*
Y469669D02*
D03*
X367669D02*
D03*
D36*
X398339Y494079D02*
D03*
Y488173D02*
D03*
Y482268D02*
D03*
Y476362D02*
D03*
Y470457D02*
D03*
Y464551D02*
D03*
Y458646D02*
D03*
Y452740D02*
D03*
Y446835D02*
D03*
X329441D02*
D03*
Y452740D02*
D03*
Y458646D02*
D03*
Y464551D02*
D03*
Y470457D02*
D03*
Y476362D02*
D03*
Y482268D02*
D03*
Y488173D02*
D03*
Y494079D02*
D03*
D37*
X293811Y418500D02*
D03*
X290189D02*
D03*
D38*
X359461Y435500D02*
D03*
X354539D02*
D03*
X386539Y435000D02*
D03*
X391461D02*
D03*
D39*
X294429Y444000D02*
D03*
X290571D02*
D03*
D40*
X206236Y494500D02*
D03*
X215685D02*
D03*
D41*
X196000D02*
D03*
X225921D02*
D03*
D42*
X198756Y484461D02*
D03*
X223165D02*
D03*
D43*
X205843Y483969D02*
D03*
X216079D02*
D03*
X208402D02*
D03*
X213520D02*
D03*
X210961D02*
D03*
D44*
X358295Y422858D02*
D03*
X332705D02*
D03*
X358295Y405142D02*
D03*
X243000Y410000D02*
D03*
X217410Y427716D02*
D03*
X243000D02*
D03*
X280295Y410142D02*
D03*
X254705Y427858D02*
D03*
X280295D02*
D03*
D45*
X332705Y405142D02*
D03*
X217410Y410000D02*
D03*
X254705Y410142D02*
D03*
D46*
X157000Y412059D02*
D03*
Y384500D02*
D03*
X188496D02*
D03*
Y412059D02*
D03*
D47*
X262469Y450500D02*
D03*
X250500D02*
D03*
D48*
X238532D02*
D03*
D49*
X177500Y482000D02*
D03*
X132000Y482500D02*
D03*
D50*
X157500Y482000D02*
D03*
X112000Y482500D02*
D03*
D51*
X107000Y447000D02*
D03*
X166055D02*
D03*
D52*
X419000Y484000D02*
D03*
Y414000D02*
D03*
Y424000D02*
D03*
Y434000D02*
D03*
Y444000D02*
D03*
Y454000D02*
D03*
Y464000D02*
D03*
Y474000D02*
D03*
X312500Y390500D02*
D03*
X322500D02*
D03*
X332500D02*
D03*
X342500D02*
D03*
X352500D02*
D03*
X233500Y399500D02*
D03*
X243500D02*
D03*
X253500D02*
D03*
X271000Y376000D02*
D03*
X281000D02*
D03*
X206500Y462000D02*
D03*
X117500Y387472D02*
D03*
X308500Y355500D02*
D03*
Y345500D02*
D03*
Y335500D02*
D03*
X309000Y277000D02*
D03*
Y287000D02*
D03*
Y297000D02*
D03*
X328000Y247500D02*
D03*
X338000D02*
D03*
X348000D02*
D03*
X378000Y370000D02*
D03*
Y360000D02*
D03*
Y350000D02*
D03*
Y273000D02*
D03*
Y283000D02*
D03*
Y293000D02*
D03*
X306500Y424000D02*
D03*
Y494000D02*
D03*
Y484000D02*
D03*
Y474000D02*
D03*
Y464000D02*
D03*
Y454000D02*
D03*
Y444000D02*
D03*
Y434000D02*
D03*
D53*
X419000Y494000D02*
D03*
X117500Y417000D02*
D03*
X308500Y365500D02*
D03*
X309000Y307000D02*
D03*
X378000Y380000D02*
D03*
Y263000D02*
D03*
X306500Y414000D02*
D03*
D54*
X362500Y390500D02*
D03*
X223500Y399500D02*
D03*
X291000Y376000D02*
D03*
X216500Y462000D02*
D03*
X318000Y247500D02*
D03*
D55*
X117339Y316854D02*
D03*
D56*
Y286146D02*
D03*
X284661Y346382D02*
D03*
Y256618D02*
D03*
D57*
X362500Y251500D02*
D03*
X254500Y370000D02*
D03*
X236000D02*
D03*
X216500Y369500D02*
D03*
X363500Y300500D02*
D03*
D58*
X286500Y490000D02*
D03*
Y480000D02*
D03*
Y470000D02*
D03*
D59*
X107000Y248500D02*
D03*
X426500Y246500D02*
D03*
X428000Y495000D02*
D03*
X106500Y493500D02*
D03*
D60*
X279000Y393000D02*
D03*
X291000Y390500D02*
D03*
X298729Y382500D02*
D03*
X302500Y399500D02*
D03*
X318500Y379500D02*
D03*
X266893Y418607D02*
D03*
X293500Y404000D02*
D03*
X278000Y443500D02*
D03*
X295000Y427358D02*
D03*
X230500Y468000D02*
D03*
X200500Y447500D02*
D03*
X196500Y468500D02*
D03*
X206500Y471500D02*
D03*
X217000D02*
D03*
X226000Y475500D02*
D03*
X346500Y265500D02*
D03*
X364000Y496000D02*
D03*
X245000Y495000D02*
D03*
X359461Y448961D02*
D03*
X381500Y485500D02*
D03*
X386712Y449212D02*
D03*
X390500Y488000D02*
D03*
M02*
