G04*
G04 #@! TF.GenerationSoftware,Altium Limited,Altium Designer,20.0.2 (26)*
G04*
G04 Layer_Color=255*
%FSLAX25Y25*%
%MOIN*%
G70*
G01*
G75*
%ADD17R,0.01968X0.01772*%
%ADD18R,0.02816X0.02648*%
%ADD24R,0.02717X0.02835*%
%ADD55R,0.05709X0.05709*%
%ADD56C,0.05709*%
%ADD57C,0.06181*%
%ADD62C,0.05937*%
%ADD63R,0.05937X0.05937*%
%ADD64C,0.05512*%
%ADD65C,0.07736*%
%ADD66R,0.07736X0.07736*%
%ADD67R,0.07087X0.07087*%
%ADD68C,0.07087*%
%ADD69C,0.04724*%
%ADD70C,0.05906*%
%ADD71R,0.05906X0.05906*%
%ADD72R,0.05906X0.05906*%
%ADD73C,0.04996*%
%ADD74C,0.06000*%
%ADD76R,0.02029X0.01860*%
%ADD77R,0.04331X0.07480*%
%ADD78R,0.03150X0.02362*%
%ADD79R,0.05727X0.06127*%
%ADD80R,0.08071X0.10433*%
%ADD81R,0.08465X0.15748*%
%ADD82R,0.02362X0.05118*%
%ADD83R,0.02362X0.03150*%
%ADD84R,0.06127X0.05727*%
%ADD85R,0.02835X0.02717*%
%ADD86R,0.02648X0.02816*%
D17*
X282524Y450500D02*
D03*
X285476D02*
D03*
D18*
X290000Y418500D02*
D03*
X293768D02*
D03*
X192384Y433500D02*
D03*
X188616D02*
D03*
X320116Y401000D02*
D03*
X323884D02*
D03*
X359384Y435000D02*
D03*
X355616D02*
D03*
X386616D02*
D03*
X390384D02*
D03*
X231500Y301500D02*
D03*
X235268D02*
D03*
X209116Y322500D02*
D03*
X212884D02*
D03*
D24*
X231689Y310000D02*
D03*
X235311D02*
D03*
D55*
X117339Y316854D02*
D03*
D56*
Y286146D02*
D03*
X284661Y346382D02*
D03*
Y256618D02*
D03*
D57*
X362500Y251500D02*
D03*
X254500Y370000D02*
D03*
X236000D02*
D03*
X216500Y369500D02*
D03*
X363500Y300500D02*
D03*
D62*
X358295Y422858D02*
D03*
X332705D02*
D03*
X358295Y405142D02*
D03*
X243000Y410000D02*
D03*
X217410Y427716D02*
D03*
X243000D02*
D03*
X280295Y410142D02*
D03*
X254705Y427858D02*
D03*
X280295D02*
D03*
D63*
X332705Y405142D02*
D03*
X217410Y410000D02*
D03*
X254705Y410142D02*
D03*
D64*
X157000Y412059D02*
D03*
Y384500D02*
D03*
X188496D02*
D03*
Y412059D02*
D03*
D65*
X262469Y450500D02*
D03*
X250500D02*
D03*
D66*
X238532D02*
D03*
D67*
X177500Y482000D02*
D03*
X132000Y482500D02*
D03*
D68*
X157500Y482000D02*
D03*
X112000Y482500D02*
D03*
D69*
X107000Y447000D02*
D03*
X166055D02*
D03*
D70*
X419000Y484000D02*
D03*
Y414000D02*
D03*
Y424000D02*
D03*
Y434000D02*
D03*
Y444000D02*
D03*
Y454000D02*
D03*
Y464000D02*
D03*
Y474000D02*
D03*
X312500Y390500D02*
D03*
X322500D02*
D03*
X332500D02*
D03*
X342500D02*
D03*
X352500D02*
D03*
X233500Y399500D02*
D03*
X243500D02*
D03*
X253500D02*
D03*
X271000Y376000D02*
D03*
X281000D02*
D03*
X206500Y462000D02*
D03*
X117500Y387472D02*
D03*
X308500Y355500D02*
D03*
Y345500D02*
D03*
Y335500D02*
D03*
X309000Y277000D02*
D03*
Y287000D02*
D03*
Y297000D02*
D03*
X328000Y247500D02*
D03*
X338000D02*
D03*
X348000D02*
D03*
X378000Y370000D02*
D03*
Y360000D02*
D03*
Y350000D02*
D03*
Y273000D02*
D03*
Y283000D02*
D03*
Y293000D02*
D03*
X306500Y424000D02*
D03*
Y494000D02*
D03*
Y484000D02*
D03*
Y474000D02*
D03*
Y464000D02*
D03*
Y454000D02*
D03*
Y444000D02*
D03*
Y434000D02*
D03*
D71*
X419000Y494000D02*
D03*
X117500Y417000D02*
D03*
X308500Y365500D02*
D03*
X309000Y307000D02*
D03*
X378000Y380000D02*
D03*
Y263000D02*
D03*
X306500Y414000D02*
D03*
D72*
X362500Y390500D02*
D03*
X223500Y399500D02*
D03*
X291000Y376000D02*
D03*
X216500Y462000D02*
D03*
X318000Y247500D02*
D03*
D73*
X286500Y490000D02*
D03*
Y480000D02*
D03*
Y470000D02*
D03*
D74*
X107000Y248500D02*
D03*
X426500Y246500D02*
D03*
X428000Y495000D02*
D03*
X106500Y493500D02*
D03*
D76*
X295990Y450500D02*
D03*
X293010D02*
D03*
D77*
X377421Y435000D02*
D03*
X367579D02*
D03*
D78*
X256000Y490059D02*
D03*
Y484941D02*
D03*
D79*
X188645Y454000D02*
D03*
X181355D02*
D03*
D80*
X131244Y465500D02*
D03*
X111756D02*
D03*
D81*
X260500Y300811D02*
D03*
Y327189D02*
D03*
D82*
X231406Y290602D02*
D03*
X219594D02*
D03*
D83*
X225500Y291587D02*
D03*
D84*
Y322355D02*
D03*
Y329645D02*
D03*
D85*
X241000Y485189D02*
D03*
Y488811D02*
D03*
D86*
X206500Y484616D02*
D03*
Y488384D02*
D03*
X217500Y484616D02*
D03*
Y488384D02*
D03*
X231000Y488000D02*
D03*
Y484232D02*
D03*
X196500Y484616D02*
D03*
Y488384D02*
D03*
M02*
