G04*
G04 #@! TF.GenerationSoftware,Altium Limited,Altium Designer,20.0.2 (26)*
G04*
G04 Layer_Color=65535*
%FSLAX25Y25*%
%MOIN*%
G70*
G01*
G75*
%ADD10C,0.00787*%
%ADD11C,0.00984*%
%ADD12C,0.00591*%
%ADD13C,0.01181*%
%ADD14C,0.00394*%
%ADD15C,0.00500*%
%ADD16C,0.01000*%
D10*
X327193Y405142D02*
G03*
X327193Y405142I-394J0D01*
G01*
X189284Y432138D02*
G03*
X189284Y431744I0J-197D01*
G01*
D02*
G03*
X189284Y432138I0J197D01*
G01*
D02*
G03*
X189284Y431744I0J-197D01*
G01*
X211898Y410000D02*
G03*
X211898Y410000I-394J0D01*
G01*
X241264Y474677D02*
G03*
X242051Y474677I394J0D01*
G01*
D02*
G03*
X241264Y474677I-394J0D01*
G01*
X323732Y494079D02*
G03*
X324520Y494079I394J0D01*
G01*
D02*
G03*
X323732Y494079I-394J0D01*
G01*
D02*
G03*
X324520Y494079I394J0D01*
G01*
X274689Y470551D02*
G03*
X274689Y469764I0J-394D01*
G01*
D02*
G03*
X274689Y470551I0J394D01*
G01*
X249193Y410142D02*
G03*
X249193Y410142I-394J0D01*
G01*
X369208Y437899D02*
X375792D01*
X369208Y432101D02*
X375792D01*
X229988Y450500D02*
Y463276D01*
X271012D01*
Y443669D02*
Y463276D01*
X178996Y452618D02*
Y456555D01*
X189232D01*
X178996Y438445D02*
Y442382D01*
Y438445D02*
X189232D01*
X233587Y498988D02*
X269413D01*
Y485012D02*
Y498988D01*
X233587Y485012D02*
X269413D01*
X233587D02*
Y498988D01*
X147500Y466056D02*
Y497945D01*
X187500Y466056D02*
Y497945D01*
X147500D02*
X187500D01*
X147500Y466056D02*
X187500D01*
X424000Y409000D02*
Y499000D01*
X414000D02*
X424000D01*
X414000Y409000D02*
Y499000D01*
Y409000D02*
X424000D01*
X307500Y395500D02*
X367500D01*
X307500Y385500D02*
X367500D01*
Y395500D01*
X307500Y385500D02*
Y395500D01*
X258500Y394500D02*
Y404500D01*
X218500Y394500D02*
X258500D01*
X218500Y404500D02*
X258500D01*
X218500Y394500D02*
Y404500D01*
X296000Y371000D02*
Y381000D01*
X266000Y371000D02*
X296000D01*
X266000D02*
Y381000D01*
X296000D01*
X201500Y457000D02*
X221500D01*
Y467000D01*
X201500D02*
X221500D01*
X201500Y457000D02*
Y467000D01*
X101291Y360602D02*
X300709D01*
Y242398D02*
Y360602D01*
X101291Y242398D02*
X300709D01*
X101291D02*
Y360602D01*
X328457Y498409D02*
Y522031D01*
Y498409D02*
Y522031D01*
X399323Y498409D02*
Y522031D01*
Y498409D02*
Y522031D01*
X328457D02*
X399323D01*
X328457D02*
X399323D01*
X335346Y443291D02*
X392433D01*
X335346D02*
X392433D01*
X129114Y377630D02*
Y426843D01*
X105886Y377630D02*
X129114D01*
X105886D02*
Y426843D01*
X129114D01*
X102000Y466556D02*
Y498445D01*
X142000Y466556D02*
Y498445D01*
X102000D02*
X142000D01*
X102000Y466556D02*
X142000D01*
X303500Y330500D02*
X313500D01*
X303500D02*
Y370500D01*
X313500Y330500D02*
Y370500D01*
X303500D02*
X313500D01*
X304000Y312000D02*
X314000D01*
Y272000D02*
Y312000D01*
X304000Y272000D02*
Y312000D01*
Y272000D02*
X314000D01*
X353000Y242500D02*
Y252500D01*
X313000Y242500D02*
X353000D01*
X313000Y252500D02*
X353000D01*
X313000Y242500D02*
Y252500D01*
X373000Y345000D02*
X383000D01*
X373000D02*
Y385000D01*
X383000Y345000D02*
Y385000D01*
X373000D02*
X383000D01*
X373000Y298000D02*
X383000D01*
Y258000D02*
Y298000D01*
X373000Y258000D02*
Y298000D01*
Y258000D02*
X383000D01*
X301500Y409000D02*
Y499000D01*
Y409000D02*
X311500D01*
Y499000D01*
X301500D02*
X311500D01*
D11*
X192283Y438248D02*
G03*
X192283Y438248I-492J0D01*
G01*
X99421Y316854D02*
G03*
X99421Y316854I-492J0D01*
G01*
D12*
X367795Y251500D02*
G03*
X367795Y251500I-5295J0D01*
G01*
X259795Y370000D02*
G03*
X259795Y370000I-5295J0D01*
G01*
X241295D02*
G03*
X241295Y370000I-5295J0D01*
G01*
X221795Y369500D02*
G03*
X221795Y369500I-5295J0D01*
G01*
X368795Y300500D02*
G03*
X368795Y300500I-5295J0D01*
G01*
D13*
X216866Y478850D02*
G03*
X216866Y478850I-394J0D01*
G01*
D14*
X117500Y429598D02*
G03*
X117500Y429205I0J-197D01*
G01*
D02*
G03*
X117500Y429598I0J197D01*
G01*
X139283Y429776D02*
X206213D01*
Y366783D02*
Y429776D01*
X139283Y366783D02*
X206213D01*
X139283D02*
Y429776D01*
X276992Y461240D02*
Y498760D01*
Y461240D02*
X296008D01*
Y498760D01*
X276992D02*
X296008D01*
D15*
X357311Y409344D02*
Y418656D01*
X333689Y409344D02*
Y418656D01*
X336907Y425811D02*
X354093D01*
X336907Y402189D02*
X354093D01*
X221612Y407047D02*
X238797D01*
X221612Y430669D02*
X238797D01*
X218394Y414203D02*
Y423514D01*
X242016Y414203D02*
Y423514D01*
X102079Y456843D02*
X170976D01*
X102079Y437157D02*
X170976D01*
Y456843D01*
X102079Y437157D02*
Y456843D01*
X203756Y483083D02*
X204189D01*
X217732D02*
X218165D01*
X196197Y499126D02*
Y500209D01*
X225724D01*
Y499126D02*
Y500209D01*
X196197Y488496D02*
Y489874D01*
X225724Y488496D02*
Y489874D01*
X258907Y407189D02*
X276093D01*
X258907Y430811D02*
X276093D01*
X255689Y414344D02*
Y423656D01*
X279311Y414344D02*
Y423656D01*
D16*
X317000Y309498D02*
X318000Y310498D01*
X319999D01*
X320999Y309498D01*
Y308499D01*
X319999Y307499D01*
X318999D01*
X319999D01*
X320999Y306499D01*
Y305500D01*
X319999Y304500D01*
X318000D01*
X317000Y305500D01*
X322998Y304500D02*
Y305500D01*
X323998D01*
Y304500D01*
X322998D01*
X327996Y309498D02*
X328996Y310498D01*
X330995D01*
X331995Y309498D01*
Y308499D01*
X330995Y307499D01*
X329996D01*
X330995D01*
X331995Y306499D01*
Y305500D01*
X330995Y304500D01*
X328996D01*
X327996Y305500D01*
X333995Y310498D02*
Y306499D01*
X335994Y304500D01*
X337993Y306499D01*
Y310498D01*
X321499Y298498D02*
X320499Y299498D01*
X318500D01*
X317500Y298498D01*
Y294500D01*
X318500Y293500D01*
X320499D01*
X321499Y294500D01*
Y296499D01*
X319499D01*
X323498Y293500D02*
Y299498D01*
X327497Y293500D01*
Y299498D01*
X329496D02*
Y293500D01*
X332495D01*
X333495Y294500D01*
Y298498D01*
X332495Y299498D01*
X329496D01*
X320999Y289498D02*
X319999Y290498D01*
X318000D01*
X317000Y289498D01*
Y288499D01*
X318000Y287499D01*
X319999D01*
X320999Y286499D01*
Y285500D01*
X319999Y284500D01*
X318000D01*
X317000Y285500D01*
X326997Y289498D02*
X325997Y290498D01*
X323998D01*
X322998Y289498D01*
Y285500D01*
X323998Y284500D01*
X325997D01*
X326997Y285500D01*
X328996Y290498D02*
Y284500D01*
X332995D01*
X320999Y278998D02*
X319999Y279998D01*
X318000D01*
X317000Y278998D01*
Y277999D01*
X318000Y276999D01*
X319999D01*
X320999Y275999D01*
Y275000D01*
X319999Y274000D01*
X318000D01*
X317000Y275000D01*
X322998Y279998D02*
Y274000D01*
X325997D01*
X326997Y275000D01*
Y278998D01*
X325997Y279998D01*
X322998D01*
X328996Y274000D02*
Y277999D01*
X330995Y279998D01*
X332995Y277999D01*
Y274000D01*
Y276999D01*
X328996D01*
X315500Y367998D02*
X316500Y368998D01*
X318499D01*
X319499Y367998D01*
Y366999D01*
X318499Y365999D01*
X317499D01*
X318499D01*
X319499Y364999D01*
Y364000D01*
X318499Y363000D01*
X316500D01*
X315500Y364000D01*
X321498Y363000D02*
Y364000D01*
X322498D01*
Y363000D01*
X321498D01*
X326496Y367998D02*
X327496Y368998D01*
X329496D01*
X330495Y367998D01*
Y366999D01*
X329496Y365999D01*
X328496D01*
X329496D01*
X330495Y364999D01*
Y364000D01*
X329496Y363000D01*
X327496D01*
X326496Y364000D01*
X332494Y368998D02*
Y364999D01*
X334494Y363000D01*
X336493Y364999D01*
Y368998D01*
X319499Y357998D02*
X318499Y358998D01*
X316500D01*
X315500Y357998D01*
Y354000D01*
X316500Y353000D01*
X318499D01*
X319499Y354000D01*
Y355999D01*
X317499D01*
X321498Y353000D02*
Y358998D01*
X325497Y353000D01*
Y358998D01*
X327496D02*
Y353000D01*
X330495D01*
X331495Y354000D01*
Y357998D01*
X330495Y358998D01*
X327496D01*
X319499Y347998D02*
X318499Y348998D01*
X316500D01*
X315500Y347998D01*
Y346999D01*
X316500Y345999D01*
X318499D01*
X319499Y344999D01*
Y344000D01*
X318499Y343000D01*
X316500D01*
X315500Y344000D01*
X325497Y347998D02*
X324497Y348998D01*
X322498D01*
X321498Y347998D01*
Y344000D01*
X322498Y343000D01*
X324497D01*
X325497Y344000D01*
X327496Y348998D02*
Y343000D01*
X331495D01*
X319499Y337498D02*
X318499Y338498D01*
X316500D01*
X315500Y337498D01*
Y336499D01*
X316500Y335499D01*
X318499D01*
X319499Y334499D01*
Y333500D01*
X318499Y332500D01*
X316500D01*
X315500Y333500D01*
X321498Y338498D02*
Y332500D01*
X324497D01*
X325497Y333500D01*
Y337498D01*
X324497Y338498D01*
X321498D01*
X327496Y332500D02*
Y336499D01*
X329496Y338498D01*
X331495Y336499D01*
Y332500D01*
Y335499D01*
X327496D01*
X388999Y383498D02*
X385000D01*
Y380499D01*
X386999Y381499D01*
X387999D01*
X388999Y380499D01*
Y378500D01*
X387999Y377500D01*
X386000D01*
X385000Y378500D01*
X390998Y383498D02*
Y379499D01*
X392997Y377500D01*
X394997Y379499D01*
Y383498D01*
X388999Y372498D02*
X387999Y373498D01*
X386000D01*
X385000Y372498D01*
Y368500D01*
X386000Y367500D01*
X387999D01*
X388999Y368500D01*
Y370499D01*
X386999D01*
X390998Y367500D02*
Y373498D01*
X394997Y367500D01*
Y373498D01*
X396996D02*
Y367500D01*
X399995D01*
X400995Y368500D01*
Y372498D01*
X399995Y373498D01*
X396996D01*
X385000Y363498D02*
Y357500D01*
X387999D01*
X388999Y358500D01*
Y362498D01*
X387999Y363498D01*
X385000D01*
X393997D02*
X391998D01*
X390998Y362498D01*
Y358500D01*
X391998Y357500D01*
X393997D01*
X394997Y358500D01*
Y362498D01*
X393997Y363498D01*
X385500Y348000D02*
Y351999D01*
X387499Y353998D01*
X389499Y351999D01*
Y348000D01*
Y350999D01*
X385500D01*
X394497Y353998D02*
X392498D01*
X391498Y352998D01*
Y349000D01*
X392498Y348000D01*
X394497D01*
X395497Y349000D01*
Y352998D01*
X394497Y353998D01*
X389999Y265998D02*
X386000D01*
Y262999D01*
X387999Y263999D01*
X388999D01*
X389999Y262999D01*
Y261000D01*
X388999Y260000D01*
X387000D01*
X386000Y261000D01*
X391998Y265998D02*
Y261999D01*
X393997Y260000D01*
X395997Y261999D01*
Y265998D01*
X386000Y276998D02*
Y271000D01*
X388999D01*
X389999Y272000D01*
Y275998D01*
X388999Y276998D01*
X386000D01*
X394997D02*
X392998D01*
X391998Y275998D01*
Y272000D01*
X392998Y271000D01*
X394997D01*
X395997Y272000D01*
Y275998D01*
X394997Y276998D01*
X386000Y281000D02*
Y284999D01*
X387999Y286998D01*
X389999Y284999D01*
Y281000D01*
Y283999D01*
X386000D01*
X394997Y286998D02*
X392998D01*
X391998Y285998D01*
Y282000D01*
X392998Y281000D01*
X394997D01*
X395997Y282000D01*
Y285998D01*
X394997Y286998D01*
X389999Y295498D02*
X388999Y296498D01*
X387000D01*
X386000Y295498D01*
Y291500D01*
X387000Y290500D01*
X388999D01*
X389999Y291500D01*
Y293499D01*
X387999D01*
X391998Y290500D02*
Y296498D01*
X395997Y290500D01*
Y296498D01*
X397996D02*
Y290500D01*
X400995D01*
X401995Y291500D01*
Y295498D01*
X400995Y296498D01*
X397996D01*
X368499Y416498D02*
X367499Y417498D01*
X365500D01*
X364500Y416498D01*
Y415499D01*
X365500Y414499D01*
X367499D01*
X368499Y413499D01*
Y412500D01*
X367499Y411500D01*
X365500D01*
X364500Y412500D01*
X373497Y411500D02*
Y417498D01*
X370498Y414499D01*
X374497D01*
X303000Y250998D02*
Y246000D01*
X304000Y245000D01*
X305999D01*
X306999Y246000D01*
Y250998D01*
X308998Y245000D02*
X310997D01*
X309998D01*
Y250998D01*
X308998Y249998D01*
X208500Y399498D02*
Y393500D01*
X211499D01*
X212499Y394500D01*
Y398498D01*
X211499Y399498D01*
X208500D01*
X214498Y393500D02*
X216497D01*
X215498D01*
Y399498D01*
X214498Y398498D01*
X218203Y439357D02*
X217204Y440356D01*
X215205D01*
X214205Y439357D01*
Y438357D01*
X215205Y437357D01*
X217204D01*
X218203Y436357D01*
Y435358D01*
X217204Y434358D01*
X215205D01*
X214205Y435358D01*
X220203Y439357D02*
X221202Y440356D01*
X223202D01*
X224202Y439357D01*
Y438357D01*
X223202Y437357D01*
X222202D01*
X223202D01*
X224202Y436357D01*
Y435358D01*
X223202Y434358D01*
X221202D01*
X220203Y435358D01*
X274499Y439498D02*
X273499Y440498D01*
X271500D01*
X270500Y439498D01*
Y438499D01*
X271500Y437499D01*
X273499D01*
X274499Y436499D01*
Y435500D01*
X273499Y434500D01*
X271500D01*
X270500Y435500D01*
X280497Y434500D02*
X276498D01*
X280497Y438499D01*
Y439498D01*
X279497Y440498D01*
X277498D01*
X276498Y439498D01*
X265999Y472998D02*
X264999Y473998D01*
X263000D01*
X262000Y472998D01*
Y471999D01*
X263000Y470999D01*
X264999D01*
X265999Y469999D01*
Y469000D01*
X264999Y468000D01*
X263000D01*
X262000Y469000D01*
X267998Y468000D02*
X269997D01*
X268998D01*
Y473998D01*
X267998Y472998D01*
X364500Y424500D02*
Y430498D01*
X367499D01*
X368499Y429498D01*
Y427499D01*
X367499Y426499D01*
X364500D01*
X366499D02*
X368499Y424500D01*
X370498D02*
X372497D01*
X371498D01*
Y430498D01*
X370498Y429498D01*
X378496Y424500D02*
Y430498D01*
X375496Y427499D01*
X379495D01*
X274000Y398500D02*
Y404498D01*
X276999D01*
X277999Y403498D01*
Y401499D01*
X276999Y400499D01*
X274000D01*
X275999D02*
X277999Y398500D01*
X279998D02*
X281997D01*
X280998D01*
Y404498D01*
X279998Y403498D01*
X284996Y398500D02*
X286996D01*
X285996D01*
Y404498D01*
X284996Y403498D01*
X263500Y384000D02*
Y389998D01*
X266499D01*
X267499Y388998D01*
Y386999D01*
X266499Y385999D01*
X263500D01*
X265499D02*
X267499Y384000D01*
X269498Y385000D02*
X270498Y384000D01*
X272497D01*
X273497Y385000D01*
Y388998D01*
X272497Y389998D01*
X270498D01*
X269498Y388998D01*
Y387999D01*
X270498Y386999D01*
X273497D01*
X237999Y467500D02*
Y471498D01*
X236999Y472498D01*
X235000D01*
X234000Y471498D01*
Y467500D01*
X235000Y466500D01*
X236999D01*
X235999Y468499D02*
X237999Y466500D01*
X236999D02*
X237999Y467500D01*
X239998Y466500D02*
X241997D01*
X240998D01*
Y472498D01*
X239998Y471498D01*
X410500Y400500D02*
Y406498D01*
X413499D01*
X414499Y405498D01*
Y403499D01*
X413499Y402499D01*
X410500D01*
X416498Y400500D02*
X418497D01*
X417498D01*
Y406498D01*
X416498Y405498D01*
X425495Y400500D02*
X421496D01*
X425495Y404499D01*
Y405498D01*
X424496Y406498D01*
X422496D01*
X421496Y405498D01*
X305500Y400500D02*
Y406498D01*
X308499D01*
X309499Y405498D01*
Y403499D01*
X308499Y402499D01*
X305500D01*
X311498Y400500D02*
X313497D01*
X312498D01*
Y406498D01*
X311498Y405498D01*
X316496Y400500D02*
X318496D01*
X317496D01*
Y406498D01*
X316496Y405498D01*
X207000Y448000D02*
Y453998D01*
X209999D01*
X210999Y452998D01*
Y450999D01*
X209999Y449999D01*
X207000D01*
X212998Y448000D02*
X214997D01*
X213998D01*
Y453998D01*
X212998Y452998D01*
X217996D02*
X218996Y453998D01*
X220995D01*
X221995Y452998D01*
Y449000D01*
X220995Y448000D01*
X218996D01*
X217996Y449000D01*
Y452998D01*
X338000Y372500D02*
Y378498D01*
X340999D01*
X341999Y377498D01*
Y375499D01*
X340999Y374499D01*
X338000D01*
X343998Y373500D02*
X344998Y372500D01*
X346997D01*
X347997Y373500D01*
Y377498D01*
X346997Y378498D01*
X344998D01*
X343998Y377498D01*
Y376499D01*
X344998Y375499D01*
X347997D01*
X373650Y301350D02*
Y307348D01*
X376649D01*
X377649Y306348D01*
Y304349D01*
X376649Y303349D01*
X373650D01*
X379648Y306348D02*
X380648Y307348D01*
X382647D01*
X383647Y306348D01*
Y305349D01*
X382647Y304349D01*
X383647Y303349D01*
Y302350D01*
X382647Y301350D01*
X380648D01*
X379648Y302350D01*
Y303349D01*
X380648Y304349D01*
X379648Y305349D01*
Y306348D01*
X380648Y304349D02*
X382647D01*
X373600Y388400D02*
Y394398D01*
X376599D01*
X377599Y393398D01*
Y391399D01*
X376599Y390399D01*
X373600D01*
X379598Y394398D02*
X383597D01*
Y393398D01*
X379598Y389400D01*
Y388400D01*
X339000Y254000D02*
Y259998D01*
X341999D01*
X342999Y258998D01*
Y256999D01*
X341999Y255999D01*
X339000D01*
X348997Y259998D02*
X346997Y258998D01*
X344998Y256999D01*
Y255000D01*
X345998Y254000D01*
X347997D01*
X348997Y255000D01*
Y255999D01*
X347997Y256999D01*
X344998D01*
X304000Y263500D02*
Y269498D01*
X306999D01*
X307999Y268498D01*
Y266499D01*
X306999Y265499D01*
X304000D01*
X313997Y269498D02*
X309998D01*
Y266499D01*
X311997Y267499D01*
X312997D01*
X313997Y266499D01*
Y264500D01*
X312997Y263500D01*
X310998D01*
X309998Y264500D01*
X304000Y322500D02*
Y328498D01*
X306999D01*
X307999Y327498D01*
Y325499D01*
X306999Y324499D01*
X304000D01*
X312997Y322500D02*
Y328498D01*
X309998Y325499D01*
X313997D01*
X277000Y362500D02*
Y368498D01*
X279999D01*
X280999Y367498D01*
Y365499D01*
X279999Y364499D01*
X277000D01*
X282998Y367498D02*
X283998Y368498D01*
X285997D01*
X286997Y367498D01*
Y366499D01*
X285997Y365499D01*
X284997D01*
X285997D01*
X286997Y364499D01*
Y363500D01*
X285997Y362500D01*
X283998D01*
X282998Y363500D01*
X147500Y458500D02*
Y464498D01*
X150499D01*
X151499Y463498D01*
Y461499D01*
X150499Y460499D01*
X147500D01*
X157497Y458500D02*
X153498D01*
X157497Y462499D01*
Y463498D01*
X156497Y464498D01*
X154498D01*
X153498Y463498D01*
X102000Y458500D02*
Y464498D01*
X104999D01*
X105999Y463498D01*
Y461499D01*
X104999Y460499D01*
X102000D01*
X107998Y458500D02*
X109997D01*
X108998D01*
Y464498D01*
X107998Y463498D01*
X195735Y478498D02*
X193736D01*
X194735D01*
Y473500D01*
X193736Y472500D01*
X192736D01*
X191736Y473500D01*
X201733Y478498D02*
X199734Y477498D01*
X197734Y475499D01*
Y473500D01*
X198734Y472500D01*
X200733D01*
X201733Y473500D01*
Y474499D01*
X200733Y475499D01*
X197734D01*
X373999Y253998D02*
X371999D01*
X372999D01*
Y249000D01*
X371999Y248000D01*
X371000D01*
X370000Y249000D01*
X379997Y253998D02*
X375998D01*
Y250999D01*
X377997Y251999D01*
X378997D01*
X379997Y250999D01*
Y249000D01*
X378997Y248000D01*
X376998D01*
X375998Y249000D01*
X362499Y292998D02*
X360499D01*
X361499D01*
Y288000D01*
X360499Y287000D01*
X359500D01*
X358500Y288000D01*
X367497Y287000D02*
Y292998D01*
X364498Y289999D01*
X368497D01*
X214999Y384498D02*
X212999D01*
X213999D01*
Y379500D01*
X212999Y378500D01*
X212000D01*
X211000Y379500D01*
X216998Y383498D02*
X217998Y384498D01*
X219997D01*
X220997Y383498D01*
Y382499D01*
X219997Y381499D01*
X218997D01*
X219997D01*
X220997Y380499D01*
Y379500D01*
X219997Y378500D01*
X217998D01*
X216998Y379500D01*
X234999Y384498D02*
X232999D01*
X233999D01*
Y379500D01*
X232999Y378500D01*
X232000D01*
X231000Y379500D01*
X240997Y378500D02*
X236998D01*
X240997Y382499D01*
Y383498D01*
X239997Y384498D01*
X237998D01*
X236998Y383498D01*
X254499Y384498D02*
X252499D01*
X253499D01*
Y379500D01*
X252499Y378500D01*
X251500D01*
X250500Y379500D01*
X256498Y378500D02*
X258497D01*
X257498D01*
Y384498D01*
X256498Y383498D01*
X341999Y436998D02*
X340999Y437998D01*
X339000D01*
X338000Y436998D01*
Y433000D01*
X339000Y432000D01*
X340999D01*
X341999Y433000D01*
X343998Y432000D02*
X345997D01*
X344998D01*
Y437998D01*
X343998Y436998D01*
X348996Y432000D02*
X350996D01*
X349996D01*
Y437998D01*
X348996Y436998D01*
X384959Y430498D02*
X383960Y431498D01*
X381960D01*
X380961Y430498D01*
Y426500D01*
X381960Y425500D01*
X383960D01*
X384959Y426500D01*
X386959Y425500D02*
X388958D01*
X387958D01*
Y431498D01*
X386959Y430498D01*
X391957D02*
X392957Y431498D01*
X394956D01*
X395956Y430498D01*
Y426500D01*
X394956Y425500D01*
X392957D01*
X391957Y426500D01*
Y430498D01*
X289570Y439998D02*
X288570Y440998D01*
X286571D01*
X285571Y439998D01*
Y436000D01*
X286571Y435000D01*
X288570D01*
X289570Y436000D01*
X291569Y439998D02*
X292569Y440998D01*
X294568D01*
X295568Y439998D01*
Y438999D01*
X294568Y437999D01*
X295568Y436999D01*
Y436000D01*
X294568Y435000D01*
X292569D01*
X291569Y436000D01*
Y436999D01*
X292569Y437999D01*
X291569Y438999D01*
Y439998D01*
X292569Y437999D02*
X294568D01*
X289999Y413998D02*
X288999Y414998D01*
X287000D01*
X286000Y413998D01*
Y410000D01*
X287000Y409000D01*
X288999D01*
X289999Y410000D01*
X291998Y414998D02*
X295997D01*
Y413998D01*
X291998Y410000D01*
Y409000D01*
X128499Y463498D02*
X127499Y464498D01*
X125500D01*
X124500Y463498D01*
Y459500D01*
X125500Y458500D01*
X127499D01*
X128499Y459500D01*
X130498Y458500D02*
X132497D01*
X131498D01*
Y464498D01*
X130498Y463498D01*
X397500Y440167D02*
Y434169D01*
X400499D01*
X401499Y435169D01*
Y436168D01*
X400499Y437168D01*
X397500D01*
X400499D01*
X401499Y438168D01*
Y439168D01*
X400499Y440167D01*
X397500D01*
X406497Y434169D02*
Y440167D01*
X403498Y437168D01*
X407497D01*
X273500Y455498D02*
Y449500D01*
X276499D01*
X277499Y450500D01*
Y451499D01*
X276499Y452499D01*
X273500D01*
X276499D01*
X277499Y453499D01*
Y454498D01*
X276499Y455498D01*
X273500D01*
X279498Y454498D02*
X280498Y455498D01*
X282497D01*
X283497Y454498D01*
Y453499D01*
X282497Y452499D01*
X281497D01*
X282497D01*
X283497Y451499D01*
Y450500D01*
X282497Y449500D01*
X280498D01*
X279498Y450500D01*
X122000Y369998D02*
Y364000D01*
X124999D01*
X125999Y365000D01*
Y365999D01*
X124999Y366999D01*
X122000D01*
X124999D01*
X125999Y367999D01*
Y368998D01*
X124999Y369998D01*
X122000D01*
X131997Y364000D02*
X127998D01*
X131997Y367999D01*
Y368998D01*
X130997Y369998D01*
X128998D01*
X127998Y368998D01*
X104000Y370998D02*
Y365000D01*
X106999D01*
X107999Y366000D01*
Y366999D01*
X106999Y367999D01*
X104000D01*
X106999D01*
X107999Y368999D01*
Y369998D01*
X106999Y370998D01*
X104000D01*
X109998Y365000D02*
X111997D01*
X110998D01*
Y370998D01*
X109998Y369998D01*
X198500Y436000D02*
Y439999D01*
X200499Y441998D01*
X202499Y439999D01*
Y436000D01*
Y438999D01*
X198500D01*
X208497Y436000D02*
X204498D01*
X208497Y439999D01*
Y440998D01*
X207497Y441998D01*
X205498D01*
X204498Y440998D01*
M02*
