G04*
G04 #@! TF.GenerationSoftware,Altium Limited,Altium Designer,20.0.2 (26)*
G04*
G04 Layer_Color=255*
%FSLAX25Y25*%
%MOIN*%
G70*
G01*
G75*
%ADD17R,0.01968X0.01772*%
%ADD18R,0.02816X0.02648*%
%ADD19R,0.05118X0.02362*%
%ADD20R,0.03150X0.02362*%
%ADD21R,0.02756X0.04724*%
%ADD22R,0.02756X0.02756*%
%ADD23R,0.05906X0.03543*%
%ADD24R,0.02717X0.02835*%
%ADD25R,0.02953X0.03347*%
%ADD26R,0.02717X0.02835*%
%ADD27R,0.07480X0.07480*%
%ADD28R,0.07087X0.07480*%
%ADD29R,0.08268X0.06299*%
%ADD30R,0.01575X0.05315*%
%ADD55R,0.05709X0.05709*%
%ADD56C,0.05709*%
%ADD57C,0.06181*%
%ADD62C,0.05937*%
%ADD63R,0.05937X0.05937*%
%ADD64C,0.05512*%
%ADD65C,0.07736*%
%ADD66R,0.07736X0.07736*%
%ADD67R,0.07087X0.07087*%
%ADD68C,0.07087*%
%ADD69C,0.04724*%
%ADD70C,0.05906*%
%ADD71R,0.05906X0.05906*%
%ADD72R,0.05906X0.05906*%
%ADD73C,0.04996*%
%ADD74C,0.06000*%
D17*
X267024Y393000D02*
D03*
X269976D02*
D03*
X269976Y400000D02*
D03*
X267024D02*
D03*
D18*
X374384Y435000D02*
D03*
X370616D02*
D03*
D19*
X191102Y453406D02*
D03*
Y441594D02*
D03*
D20*
X192087Y447500D02*
D03*
D21*
X241657Y479205D02*
D03*
X251500D02*
D03*
X261343D02*
D03*
D22*
X372000Y465338D02*
D03*
X367669D02*
D03*
X363339D02*
D03*
Y469669D02*
D03*
Y474000D02*
D03*
X367669D02*
D03*
X372000D02*
D03*
Y469669D02*
D03*
X367669D02*
D03*
D23*
X398339Y494079D02*
D03*
Y488173D02*
D03*
Y482268D02*
D03*
Y476362D02*
D03*
Y470457D02*
D03*
Y464551D02*
D03*
Y458646D02*
D03*
Y452740D02*
D03*
Y446835D02*
D03*
X329441D02*
D03*
Y452740D02*
D03*
Y458646D02*
D03*
Y464551D02*
D03*
Y470457D02*
D03*
Y476362D02*
D03*
Y482268D02*
D03*
Y488173D02*
D03*
Y494079D02*
D03*
D24*
X293811Y418500D02*
D03*
X290189D02*
D03*
D25*
X359461Y435500D02*
D03*
X354539D02*
D03*
X386539Y435000D02*
D03*
X391461D02*
D03*
D26*
X294429Y444000D02*
D03*
X290571D02*
D03*
D27*
X206236Y494500D02*
D03*
X215685D02*
D03*
D28*
X196000D02*
D03*
X225921D02*
D03*
D29*
X198756Y484461D02*
D03*
X223165D02*
D03*
D30*
X205843Y483969D02*
D03*
X216079D02*
D03*
X208402D02*
D03*
X213520D02*
D03*
X210961D02*
D03*
D55*
X117339Y316854D02*
D03*
D56*
Y286146D02*
D03*
X284661Y346382D02*
D03*
Y256618D02*
D03*
D57*
X362500Y251500D02*
D03*
X254500Y370000D02*
D03*
X236000D02*
D03*
X216500Y369500D02*
D03*
X363500Y300500D02*
D03*
D62*
X358295Y422858D02*
D03*
X332705D02*
D03*
X358295Y405142D02*
D03*
X243000Y410000D02*
D03*
X217410Y427716D02*
D03*
X243000D02*
D03*
X280295Y410142D02*
D03*
X254705Y427858D02*
D03*
X280295D02*
D03*
D63*
X332705Y405142D02*
D03*
X217410Y410000D02*
D03*
X254705Y410142D02*
D03*
D64*
X157000Y412059D02*
D03*
Y384500D02*
D03*
X188496D02*
D03*
Y412059D02*
D03*
D65*
X262469Y450500D02*
D03*
X250500D02*
D03*
D66*
X238532D02*
D03*
D67*
X177500Y482000D02*
D03*
X132000Y482500D02*
D03*
D68*
X157500Y482000D02*
D03*
X112000Y482500D02*
D03*
D69*
X107000Y447000D02*
D03*
X166055D02*
D03*
D70*
X419000Y484000D02*
D03*
Y414000D02*
D03*
Y424000D02*
D03*
Y434000D02*
D03*
Y444000D02*
D03*
Y454000D02*
D03*
Y464000D02*
D03*
Y474000D02*
D03*
X312500Y390500D02*
D03*
X322500D02*
D03*
X332500D02*
D03*
X342500D02*
D03*
X352500D02*
D03*
X233500Y399500D02*
D03*
X243500D02*
D03*
X253500D02*
D03*
X271000Y376000D02*
D03*
X281000D02*
D03*
X206500Y462000D02*
D03*
X117500Y387472D02*
D03*
X308500Y355500D02*
D03*
Y345500D02*
D03*
Y335500D02*
D03*
X309000Y277000D02*
D03*
Y287000D02*
D03*
Y297000D02*
D03*
X328000Y247500D02*
D03*
X338000D02*
D03*
X348000D02*
D03*
X378000Y370000D02*
D03*
Y360000D02*
D03*
Y350000D02*
D03*
Y273000D02*
D03*
Y283000D02*
D03*
Y293000D02*
D03*
X306500Y424000D02*
D03*
Y494000D02*
D03*
Y484000D02*
D03*
Y474000D02*
D03*
Y464000D02*
D03*
Y454000D02*
D03*
Y444000D02*
D03*
Y434000D02*
D03*
D71*
X419000Y494000D02*
D03*
X117500Y417000D02*
D03*
X308500Y365500D02*
D03*
X309000Y307000D02*
D03*
X378000Y380000D02*
D03*
Y263000D02*
D03*
X306500Y414000D02*
D03*
D72*
X362500Y390500D02*
D03*
X223500Y399500D02*
D03*
X291000Y376000D02*
D03*
X216500Y462000D02*
D03*
X318000Y247500D02*
D03*
D73*
X286500Y490000D02*
D03*
Y480000D02*
D03*
Y470000D02*
D03*
D74*
X107000Y248500D02*
D03*
X426500Y246500D02*
D03*
X428000Y495000D02*
D03*
X106500Y493500D02*
D03*
M02*
