G04*
G04 #@! TF.GenerationSoftware,Altium Limited,Altium Designer,20.0.2 (26)*
G04*
G04 Layer_Color=32896*
%FSLAX25Y25*%
%MOIN*%
G70*
G01*
G75*
%ADD14C,0.00394*%
%ADD93C,0.00197*%
D14*
X135346Y435681D02*
X210150D01*
Y362846D02*
Y435681D01*
X135346Y362846D02*
X210150D01*
X135346D02*
Y435681D01*
X229650Y502925D02*
X273350D01*
Y470346D02*
Y502925D01*
X229650Y470346D02*
X273350D01*
X229650D02*
Y502925D01*
X319795Y439354D02*
Y525968D01*
Y439354D02*
X405228D01*
Y525968D01*
X319795D02*
X405228D01*
X270358Y457303D02*
Y502697D01*
Y457303D02*
X299945D01*
Y502697D01*
X270358D02*
X299945D01*
X133051Y373693D02*
Y430780D01*
X101949Y373693D02*
X133051D01*
X101949D02*
Y430780D01*
X133051D01*
D93*
X229004Y442685D02*
Y464260D01*
Y442685D02*
X271996D01*
Y464260D01*
X229004D02*
X271996D01*
X288240Y416492D02*
Y420508D01*
Y416492D02*
X295760D01*
Y420508D01*
X288240D02*
X295760D01*
X279201Y290969D02*
Y337032D01*
X241799D02*
X279201D01*
X241799Y290969D02*
Y337032D01*
Y290969D02*
X279201D01*
X237260Y307992D02*
Y312008D01*
X229740Y307992D02*
X237260D01*
X229740D02*
Y312008D01*
X237260D01*
X238992Y490760D02*
X243008D01*
Y483240D02*
Y490760D01*
X238992Y483240D02*
X243008D01*
X238992D02*
Y490760D01*
M02*
