G04*
G04 #@! TF.GenerationSoftware,Altium Limited,Altium Designer,20.0.2 (26)*
G04*
G04 Layer_Color=16711935*
%FSLAX25Y25*%
%MOIN*%
G70*
G01*
G75*
%ADD10C,0.00787*%
D10*
X291601Y449024D02*
Y451976D01*
X297399D01*
Y449024D02*
Y451976D01*
X291601Y449024D02*
X297399D01*
X287804Y416389D02*
X295964D01*
Y420611D01*
X287804D02*
X295964D01*
X287804Y416389D02*
Y420611D01*
X186420Y431389D02*
Y435611D01*
X194580D01*
Y431389D02*
Y435611D01*
X186420Y431389D02*
X194580D01*
X317920Y398889D02*
X326080D01*
Y403111D01*
X317920D02*
X326080D01*
X317920Y398889D02*
Y403111D01*
X353420Y432889D02*
Y437111D01*
X361580D01*
Y432889D02*
Y437111D01*
X353420Y432889D02*
X361580D01*
X365020Y430866D02*
Y439134D01*
X379980D01*
Y430866D02*
Y439134D01*
X365020Y430866D02*
X379980D01*
X392580Y432889D02*
Y437111D01*
X384420Y432889D02*
X392580D01*
X384420D02*
Y437111D01*
X392580D01*
X176523Y459032D02*
X193477D01*
X176523Y448968D02*
Y459032D01*
Y448968D02*
X193477D01*
Y459032D01*
X230532Y317523D02*
Y334477D01*
X220468D02*
X230532D01*
X220468Y317523D02*
Y334477D01*
Y317523D02*
X230532D01*
X229304Y299389D02*
X237464D01*
Y303611D01*
X229304D02*
X237464D01*
X229304Y299389D02*
Y303611D01*
X206920Y320389D02*
X215080D01*
Y324611D01*
X206920D02*
X215080D01*
X206920Y320389D02*
Y324611D01*
X208611Y482420D02*
Y490580D01*
X204389D02*
X208611D01*
X204389Y482420D02*
Y490580D01*
Y482420D02*
X208611D01*
X219611D02*
Y490580D01*
X215389D02*
X219611D01*
X215389Y482420D02*
Y490580D01*
Y482420D02*
X219611D01*
X228889Y482036D02*
Y490196D01*
Y482036D02*
X233111D01*
Y490196D01*
X228889D02*
X233111D01*
X198611Y482420D02*
Y490580D01*
X194389D02*
X198611D01*
X194389Y482420D02*
Y490580D01*
Y482420D02*
X198611D01*
M02*
