G04*
G04 #@! TF.GenerationSoftware,Altium Limited,Altium Designer,20.0.2 (26)*
G04*
G04 Layer_Color=16711935*
%FSLAX25Y25*%
%MOIN*%
G70*
G01*
G75*
%ADD18R,0.02816X0.02648*%
%ADD31R,0.02769X0.02572*%
%ADD37R,0.03517X0.03635*%
%ADD44C,0.06737*%
%ADD45R,0.06737X0.06737*%
%ADD46C,0.06312*%
%ADD47C,0.08536*%
%ADD48R,0.08536X0.08536*%
%ADD49R,0.07887X0.07887*%
%ADD50C,0.07887*%
%ADD51C,0.05524*%
%ADD52C,0.06706*%
%ADD53R,0.06706X0.06706*%
%ADD54R,0.06706X0.06706*%
%ADD55R,0.05709X0.05709*%
%ADD56C,0.05709*%
%ADD57C,0.06181*%
%ADD58C,0.05796*%
%ADD59C,0.06800*%
%ADD60C,0.05800*%
%ADD76R,0.02029X0.01860*%
%ADD77R,0.04331X0.07480*%
%ADD79R,0.05727X0.06127*%
%ADD84R,0.06127X0.05727*%
%ADD86R,0.02648X0.02816*%
%ADD87R,0.03950X0.03162*%
%ADD88R,0.08871X0.11233*%
%ADD89R,0.09265X0.16548*%
%ADD90R,0.03162X0.05918*%
%ADD91R,0.03162X0.03950*%
%ADD92R,0.03635X0.03517*%
G36*
X226733Y290409D02*
X226785Y290399D01*
X226835Y290382D01*
X226882Y290359D01*
X226925Y290330D01*
X226965Y290295D01*
X229327Y287933D01*
X229361Y287894D01*
X229391Y287850D01*
X229414Y287803D01*
X229431Y287753D01*
X229441Y287702D01*
X229444Y287650D01*
Y278201D01*
X229441Y278149D01*
X229431Y278097D01*
X229414Y278047D01*
X229391Y278000D01*
X229361Y277957D01*
X229327Y277917D01*
X226965Y275555D01*
X226925Y275521D01*
X226882Y275491D01*
X226835Y275468D01*
X226785Y275451D01*
X226733Y275441D01*
X226681Y275438D01*
X224319D01*
X224267Y275441D01*
X224215Y275451D01*
X224166Y275468D01*
X224118Y275491D01*
X224075Y275521D01*
X224035Y275555D01*
X221673Y277917D01*
X221639Y277957D01*
X221609Y278000D01*
X221586Y278047D01*
X221569Y278097D01*
X221559Y278149D01*
X221556Y278201D01*
Y287650D01*
X221559Y287702D01*
X221569Y287753D01*
X221586Y287803D01*
X221609Y287850D01*
X221639Y287894D01*
X221673Y287933D01*
X224035Y290295D01*
X224075Y290330D01*
X224118Y290359D01*
X224166Y290382D01*
X224215Y290399D01*
X224267Y290409D01*
X224319Y290413D01*
X226681D01*
X226733Y290409D01*
D02*
G37*
D18*
X290000Y418500D02*
D03*
X293768D02*
D03*
X192384Y433500D02*
D03*
X188616D02*
D03*
X320116Y401000D02*
D03*
X323884D02*
D03*
X359384Y435000D02*
D03*
X355616D02*
D03*
X386616D02*
D03*
X390384D02*
D03*
X231500Y301500D02*
D03*
X235268D02*
D03*
X209116Y322500D02*
D03*
X212884D02*
D03*
D31*
X282524Y450500D02*
D03*
X285476D02*
D03*
D37*
X231689Y310000D02*
D03*
X235311D02*
D03*
D44*
X358295Y422858D02*
D03*
X332705D02*
D03*
X358295Y405142D02*
D03*
X243000Y410000D02*
D03*
X217410Y427716D02*
D03*
X243000D02*
D03*
X280295Y410142D02*
D03*
X254705Y427858D02*
D03*
X280295D02*
D03*
D45*
X332705Y405142D02*
D03*
X217410Y410000D02*
D03*
X254705Y410142D02*
D03*
D46*
X157000Y412059D02*
D03*
Y384500D02*
D03*
X188496D02*
D03*
Y412059D02*
D03*
D47*
X262469Y450500D02*
D03*
X250500D02*
D03*
D48*
X238532D02*
D03*
D49*
X177500Y482000D02*
D03*
X132000Y482500D02*
D03*
D50*
X157500Y482000D02*
D03*
X112000Y482500D02*
D03*
D51*
X107000Y447000D02*
D03*
X166055D02*
D03*
D52*
X419000Y484000D02*
D03*
Y414000D02*
D03*
Y424000D02*
D03*
Y434000D02*
D03*
Y444000D02*
D03*
Y454000D02*
D03*
Y464000D02*
D03*
Y474000D02*
D03*
X312500Y390500D02*
D03*
X322500D02*
D03*
X332500D02*
D03*
X342500D02*
D03*
X352500D02*
D03*
X233500Y399500D02*
D03*
X243500D02*
D03*
X253500D02*
D03*
X271000Y376000D02*
D03*
X281000D02*
D03*
X206500Y462000D02*
D03*
X117500Y387472D02*
D03*
X308500Y355500D02*
D03*
Y345500D02*
D03*
Y335500D02*
D03*
X309000Y277000D02*
D03*
Y287000D02*
D03*
Y297000D02*
D03*
X328000Y247500D02*
D03*
X338000D02*
D03*
X348000D02*
D03*
X378000Y370000D02*
D03*
Y360000D02*
D03*
Y350000D02*
D03*
Y273000D02*
D03*
Y283000D02*
D03*
Y293000D02*
D03*
X306500Y424000D02*
D03*
Y494000D02*
D03*
Y484000D02*
D03*
Y474000D02*
D03*
Y464000D02*
D03*
Y454000D02*
D03*
Y444000D02*
D03*
Y434000D02*
D03*
D53*
X419000Y494000D02*
D03*
X117500Y417000D02*
D03*
X308500Y365500D02*
D03*
X309000Y307000D02*
D03*
X378000Y380000D02*
D03*
Y263000D02*
D03*
X306500Y414000D02*
D03*
D54*
X362500Y390500D02*
D03*
X223500Y399500D02*
D03*
X291000Y376000D02*
D03*
X216500Y462000D02*
D03*
X318000Y247500D02*
D03*
D55*
X117339Y316854D02*
D03*
D56*
Y286146D02*
D03*
X284661Y346382D02*
D03*
Y256618D02*
D03*
D57*
X362500Y251500D02*
D03*
X254500Y370000D02*
D03*
X236000D02*
D03*
X216500Y369500D02*
D03*
X363500Y300500D02*
D03*
D58*
X286500Y490000D02*
D03*
Y480000D02*
D03*
Y470000D02*
D03*
D59*
X107000Y248500D02*
D03*
X426500Y246500D02*
D03*
X428000Y495000D02*
D03*
X106500Y493500D02*
D03*
D60*
X279000Y393000D02*
D03*
X291000Y390500D02*
D03*
X298729Y382500D02*
D03*
X302500Y399500D02*
D03*
X318500Y379500D02*
D03*
X266893Y418607D02*
D03*
X293500Y404000D02*
D03*
X278000Y443500D02*
D03*
X295000Y427358D02*
D03*
X230500Y468000D02*
D03*
X200500Y447500D02*
D03*
X196500Y468500D02*
D03*
X206500Y471500D02*
D03*
X217000D02*
D03*
X226000Y475500D02*
D03*
X346500Y265500D02*
D03*
X364000Y496000D02*
D03*
X245000Y495000D02*
D03*
X359461Y448961D02*
D03*
X381500Y485500D02*
D03*
X386712Y449212D02*
D03*
X390500Y488000D02*
D03*
D76*
X295990Y450500D02*
D03*
X293010D02*
D03*
D77*
X377421Y435000D02*
D03*
X367579D02*
D03*
D79*
X188645Y454000D02*
D03*
X181355D02*
D03*
D84*
X225500Y322355D02*
D03*
Y329645D02*
D03*
D86*
X206500Y484616D02*
D03*
Y488384D02*
D03*
X217500Y484616D02*
D03*
Y488384D02*
D03*
X231000Y488000D02*
D03*
Y484232D02*
D03*
X196500Y484616D02*
D03*
Y488384D02*
D03*
D87*
X256000Y490059D02*
D03*
Y484941D02*
D03*
D88*
X131244Y465500D02*
D03*
X111756D02*
D03*
D89*
X260500Y300811D02*
D03*
Y327189D02*
D03*
D90*
X231406Y290602D02*
D03*
X219594D02*
D03*
D91*
X225500Y291587D02*
D03*
D92*
X241000Y485189D02*
D03*
Y488811D02*
D03*
M02*
