G04*
G04 #@! TF.GenerationSoftware,Altium Limited,Altium Designer,20.0.2 (26)*
G04*
G04 Layer_Color=8421504*
%FSLAX25Y25*%
%MOIN*%
G70*
G01*
G75*
%ADD17R,0.01968X0.01772*%
%ADD18R,0.02816X0.02648*%
%ADD19R,0.05118X0.02362*%
%ADD20R,0.03150X0.02362*%
%ADD21R,0.02756X0.04724*%
%ADD22R,0.02756X0.02756*%
%ADD23R,0.05906X0.03543*%
%ADD24R,0.02717X0.02835*%
%ADD25R,0.02953X0.03347*%
%ADD26R,0.02717X0.02835*%
%ADD27R,0.07480X0.07480*%
%ADD28R,0.07087X0.07480*%
%ADD29R,0.08268X0.06299*%
%ADD30R,0.01575X0.05315*%
G36*
X190512Y448681D02*
Y446319D01*
X188150Y443957D01*
X178701D01*
X176339Y446319D01*
Y448681D01*
X178701Y451043D01*
X188150D01*
X190512Y448681D01*
D02*
G37*
D17*
X267024Y393000D02*
D03*
X269976D02*
D03*
X269976Y400000D02*
D03*
X267024D02*
D03*
D18*
X374384Y435000D02*
D03*
X370616D02*
D03*
D19*
X191102Y453406D02*
D03*
Y441594D02*
D03*
D20*
X192087Y447500D02*
D03*
D21*
X241657Y479205D02*
D03*
X251500D02*
D03*
X261343D02*
D03*
D22*
X372000Y465338D02*
D03*
X367669D02*
D03*
X363339D02*
D03*
Y469669D02*
D03*
Y474000D02*
D03*
X367669D02*
D03*
X372000D02*
D03*
Y469669D02*
D03*
X367669D02*
D03*
D23*
X398339Y494079D02*
D03*
Y488173D02*
D03*
Y482268D02*
D03*
Y476362D02*
D03*
Y470457D02*
D03*
Y464551D02*
D03*
Y458646D02*
D03*
Y452740D02*
D03*
Y446835D02*
D03*
X329441D02*
D03*
Y452740D02*
D03*
Y458646D02*
D03*
Y464551D02*
D03*
Y470457D02*
D03*
Y476362D02*
D03*
Y482268D02*
D03*
Y488173D02*
D03*
Y494079D02*
D03*
D24*
X293811Y418500D02*
D03*
X290189D02*
D03*
D25*
X359461Y435500D02*
D03*
X354539D02*
D03*
X386539Y435000D02*
D03*
X391461D02*
D03*
D26*
X294429Y444000D02*
D03*
X290571D02*
D03*
D27*
X206236Y494500D02*
D03*
X215685D02*
D03*
D28*
X196000D02*
D03*
X225921D02*
D03*
D29*
X198756Y484461D02*
D03*
X223165D02*
D03*
D30*
X205843Y483969D02*
D03*
X216079D02*
D03*
X208402D02*
D03*
X213520D02*
D03*
X210961D02*
D03*
M02*
