G04*
G04 #@! TF.GenerationSoftware,Altium Limited,Altium Designer,20.0.2 (26)*
G04*
G04 Layer_Color=32768*
%FSLAX25Y25*%
%MOIN*%
G70*
G01*
G75*
%ADD10C,0.00787*%
G36*
X293666Y417816D02*
X293616Y417743D01*
X293566Y417678D01*
X293520Y417621D01*
X293478Y417571D01*
X293443Y417532D01*
X293416Y417502D01*
X293397Y417486D01*
X293389Y417479D01*
X293362Y417456D01*
X293328Y417432D01*
X293263Y417390D01*
X293236Y417375D01*
X293213Y417363D01*
X293197Y417356D01*
X293190Y417352D01*
X293255Y417340D01*
X293316Y417329D01*
X293374Y417313D01*
X293424Y417294D01*
X293474Y417275D01*
X293516Y417256D01*
X293558Y417237D01*
X293593Y417217D01*
X293624Y417198D01*
X293650Y417183D01*
X293673Y417164D01*
X293693Y417152D01*
X293704Y417137D01*
X293716Y417129D01*
X293723Y417122D01*
X293754Y417087D01*
X293781Y417049D01*
X293827Y416972D01*
X293858Y416899D01*
X293877Y416826D01*
X293892Y416764D01*
X293896Y416738D01*
Y416714D01*
X293900Y416695D01*
Y416680D01*
Y416672D01*
Y416668D01*
X293896Y416592D01*
X293885Y416522D01*
X293865Y416457D01*
X293846Y416399D01*
X293827Y416354D01*
X293808Y416319D01*
X293796Y416296D01*
X293793Y416288D01*
X293750Y416227D01*
X293704Y416177D01*
X293658Y416135D01*
X293612Y416104D01*
X293574Y416077D01*
X293543Y416058D01*
X293520Y416050D01*
X293516Y416046D01*
X293512D01*
X293478Y416035D01*
X293439Y416023D01*
X293359Y416008D01*
X293274Y415992D01*
X293194Y415985D01*
X293117Y415981D01*
X293086D01*
X293055Y415977D01*
X291884D01*
Y418500D01*
X292218D01*
Y417379D01*
X292648D01*
X292687Y417383D01*
X292717D01*
X292744Y417386D01*
X292763Y417390D01*
X292779D01*
X292786Y417394D01*
X292790D01*
X292848Y417413D01*
X292894Y417436D01*
X292913Y417448D01*
X292929Y417456D01*
X292936Y417459D01*
X292940Y417463D01*
X292971Y417482D01*
X292998Y417509D01*
X293055Y417563D01*
X293074Y417590D01*
X293094Y417613D01*
X293105Y417628D01*
X293109Y417632D01*
X293147Y417682D01*
X293186Y417736D01*
X293228Y417794D01*
X293266Y417851D01*
X293301Y417901D01*
X293328Y417939D01*
X293336Y417955D01*
X293343Y417966D01*
X293351Y417974D01*
Y417978D01*
X293685Y418500D01*
X294104D01*
X293666Y417816D01*
D02*
G37*
G36*
X295463Y415966D02*
X295259D01*
X295225Y416027D01*
X295183Y416088D01*
X295136Y416146D01*
X295090Y416200D01*
X295048Y416242D01*
X295014Y416277D01*
X294991Y416300D01*
X294987Y416303D01*
X294983Y416307D01*
X294910Y416369D01*
X294833Y416426D01*
X294756Y416476D01*
X294687Y416519D01*
X294626Y416553D01*
X294599Y416565D01*
X294576Y416576D01*
X294561Y416588D01*
X294545Y416595D01*
X294537Y416599D01*
X294534D01*
Y416903D01*
X294587Y416880D01*
X294645Y416853D01*
X294699Y416830D01*
X294749Y416803D01*
X294791Y416780D01*
X294826Y416760D01*
X294848Y416745D01*
X294852Y416741D01*
X294856D01*
X294921Y416703D01*
X294979Y416661D01*
X295029Y416626D01*
X295071Y416592D01*
X295106Y416565D01*
X295133Y416545D01*
X295148Y416530D01*
X295152Y416526D01*
Y418500D01*
X295463D01*
Y415966D01*
D02*
G37*
G36*
X296957Y418362D02*
X296972Y418231D01*
X296991Y418116D01*
X297003Y418062D01*
X297010Y418012D01*
X297022Y417970D01*
X297030Y417928D01*
X297037Y417893D01*
X297045Y417863D01*
X297053Y417839D01*
X297057Y417824D01*
X297060Y417813D01*
Y417809D01*
X297114Y417640D01*
X297172Y417482D01*
X297202Y417406D01*
X297233Y417333D01*
X297264Y417264D01*
X297291Y417202D01*
X297318Y417144D01*
X297344Y417091D01*
X297368Y417045D01*
X297387Y417006D01*
X297402Y416976D01*
X297414Y416953D01*
X297421Y416937D01*
X297425Y416933D01*
X297471Y416856D01*
X297514Y416780D01*
X297560Y416711D01*
X297602Y416645D01*
X297640Y416584D01*
X297682Y416530D01*
X297721Y416476D01*
X297755Y416430D01*
X297786Y416392D01*
X297817Y416354D01*
X297844Y416323D01*
X297863Y416296D01*
X297882Y416277D01*
X297894Y416261D01*
X297901Y416254D01*
X297905Y416250D01*
Y416008D01*
X296273D01*
Y416303D01*
X297510D01*
X297421Y416411D01*
X297341Y416522D01*
X297264Y416634D01*
X297195Y416738D01*
X297168Y416787D01*
X297141Y416830D01*
X297118Y416868D01*
X297099Y416903D01*
X297083Y416929D01*
X297072Y416949D01*
X297064Y416964D01*
X297060Y416968D01*
X296987Y417114D01*
X296922Y417260D01*
X296868Y417398D01*
X296845Y417463D01*
X296822Y417521D01*
X296803Y417578D01*
X296788Y417628D01*
X296772Y417671D01*
X296761Y417709D01*
X296753Y417740D01*
X296745Y417763D01*
X296742Y417778D01*
Y417782D01*
X296703Y417936D01*
X296688Y418005D01*
X296676Y418074D01*
X296665Y418135D01*
X296657Y418193D01*
X296650Y418250D01*
X296642Y418300D01*
X296638Y418343D01*
X296634Y418385D01*
X296630Y418419D01*
Y418446D01*
X296626Y418469D01*
Y418485D01*
Y418496D01*
Y418500D01*
X296945D01*
X296957Y418362D01*
D02*
G37*
G36*
X235166Y300816D02*
X235116Y300744D01*
X235066Y300678D01*
X235020Y300621D01*
X234978Y300571D01*
X234943Y300532D01*
X234916Y300502D01*
X234897Y300486D01*
X234889Y300479D01*
X234862Y300455D01*
X234828Y300432D01*
X234763Y300390D01*
X234736Y300375D01*
X234713Y300363D01*
X234697Y300356D01*
X234690Y300352D01*
X234755Y300340D01*
X234816Y300329D01*
X234874Y300313D01*
X234924Y300294D01*
X234974Y300275D01*
X235016Y300256D01*
X235058Y300237D01*
X235093Y300218D01*
X235123Y300198D01*
X235150Y300183D01*
X235174Y300164D01*
X235193Y300152D01*
X235204Y300137D01*
X235216Y300129D01*
X235223Y300121D01*
X235254Y300087D01*
X235281Y300048D01*
X235327Y299972D01*
X235358Y299899D01*
X235377Y299826D01*
X235392Y299764D01*
X235396Y299738D01*
Y299714D01*
X235400Y299695D01*
Y299680D01*
Y299672D01*
Y299668D01*
X235396Y299592D01*
X235385Y299522D01*
X235366Y299457D01*
X235346Y299399D01*
X235327Y299354D01*
X235308Y299319D01*
X235296Y299296D01*
X235293Y299288D01*
X235250Y299227D01*
X235204Y299177D01*
X235158Y299135D01*
X235112Y299104D01*
X235074Y299077D01*
X235043Y299058D01*
X235020Y299050D01*
X235016Y299046D01*
X235012D01*
X234978Y299035D01*
X234939Y299023D01*
X234859Y299008D01*
X234774Y298992D01*
X234694Y298985D01*
X234617Y298981D01*
X234586D01*
X234555Y298977D01*
X233384D01*
Y301500D01*
X233718D01*
Y300379D01*
X234148D01*
X234187Y300383D01*
X234217D01*
X234244Y300386D01*
X234263Y300390D01*
X234279D01*
X234286Y300394D01*
X234290D01*
X234348Y300413D01*
X234394Y300436D01*
X234413Y300448D01*
X234429Y300455D01*
X234436Y300459D01*
X234440Y300463D01*
X234471Y300482D01*
X234498Y300509D01*
X234555Y300563D01*
X234574Y300590D01*
X234594Y300613D01*
X234605Y300628D01*
X234609Y300632D01*
X234647Y300682D01*
X234686Y300736D01*
X234728Y300794D01*
X234766Y300851D01*
X234801Y300901D01*
X234828Y300939D01*
X234836Y300955D01*
X234843Y300966D01*
X234851Y300974D01*
Y300978D01*
X235185Y301500D01*
X235603D01*
X235166Y300816D01*
D02*
G37*
G36*
X236963Y298966D02*
X236759D01*
X236725Y299027D01*
X236683Y299089D01*
X236636Y299146D01*
X236590Y299200D01*
X236548Y299242D01*
X236514Y299277D01*
X236491Y299300D01*
X236487Y299304D01*
X236483Y299307D01*
X236410Y299369D01*
X236333Y299426D01*
X236256Y299476D01*
X236187Y299519D01*
X236126Y299553D01*
X236099Y299565D01*
X236076Y299576D01*
X236061Y299588D01*
X236045Y299595D01*
X236037Y299599D01*
X236034D01*
Y299903D01*
X236087Y299880D01*
X236145Y299853D01*
X236199Y299830D01*
X236249Y299803D01*
X236291Y299780D01*
X236326Y299761D01*
X236349Y299745D01*
X236352Y299741D01*
X236356D01*
X236421Y299703D01*
X236479Y299661D01*
X236529Y299626D01*
X236571Y299592D01*
X236606Y299565D01*
X236633Y299546D01*
X236648Y299530D01*
X236652Y299526D01*
Y301500D01*
X236963D01*
Y298966D01*
D02*
G37*
G36*
X212782Y321816D02*
X212732Y321744D01*
X212682Y321678D01*
X212636Y321621D01*
X212594Y321571D01*
X212559Y321532D01*
X212532Y321502D01*
X212513Y321486D01*
X212505Y321479D01*
X212478Y321456D01*
X212444Y321432D01*
X212379Y321390D01*
X212352Y321375D01*
X212329Y321363D01*
X212313Y321356D01*
X212305Y321352D01*
X212371Y321340D01*
X212432Y321329D01*
X212490Y321314D01*
X212540Y321294D01*
X212590Y321275D01*
X212632Y321256D01*
X212674Y321237D01*
X212709Y321217D01*
X212739Y321198D01*
X212766Y321183D01*
X212789Y321164D01*
X212809Y321152D01*
X212820Y321137D01*
X212832Y321129D01*
X212839Y321122D01*
X212870Y321087D01*
X212897Y321048D01*
X212943Y320972D01*
X212974Y320899D01*
X212993Y320826D01*
X213008Y320764D01*
X213012Y320738D01*
Y320714D01*
X213016Y320695D01*
Y320680D01*
Y320672D01*
Y320668D01*
X213012Y320592D01*
X213001Y320522D01*
X212981Y320457D01*
X212962Y320399D01*
X212943Y320354D01*
X212924Y320319D01*
X212912Y320296D01*
X212908Y320288D01*
X212866Y320227D01*
X212820Y320177D01*
X212774Y320135D01*
X212728Y320104D01*
X212689Y320077D01*
X212659Y320058D01*
X212636Y320050D01*
X212632Y320046D01*
X212628D01*
X212594Y320035D01*
X212555Y320023D01*
X212474Y320008D01*
X212390Y319992D01*
X212309Y319985D01*
X212233Y319981D01*
X212202D01*
X212171Y319977D01*
X211000D01*
Y322500D01*
X211334D01*
Y321379D01*
X211764D01*
X211803Y321383D01*
X211833D01*
X211860Y321386D01*
X211879Y321390D01*
X211895D01*
X211902Y321394D01*
X211906D01*
X211964Y321413D01*
X212010Y321436D01*
X212029Y321448D01*
X212044Y321456D01*
X212052Y321459D01*
X212056Y321463D01*
X212087Y321482D01*
X212113Y321509D01*
X212171Y321563D01*
X212190Y321590D01*
X212210Y321613D01*
X212221Y321628D01*
X212225Y321632D01*
X212263Y321682D01*
X212302Y321736D01*
X212344Y321794D01*
X212382Y321851D01*
X212417Y321901D01*
X212444Y321939D01*
X212452Y321955D01*
X212459Y321966D01*
X212467Y321974D01*
Y321978D01*
X212801Y322500D01*
X213219D01*
X212782Y321816D01*
D02*
G37*
G36*
X215040Y322204D02*
X213799D01*
X213842Y322143D01*
X213884Y322093D01*
X213903Y322070D01*
X213918Y322055D01*
X213926Y322043D01*
X213930Y322039D01*
X213949Y322020D01*
X213968Y322001D01*
X214018Y321955D01*
X214080Y321901D01*
X214137Y321847D01*
X214195Y321797D01*
X214241Y321759D01*
X214260Y321744D01*
X214276Y321732D01*
X214283Y321724D01*
X214287Y321721D01*
X214348Y321667D01*
X214402Y321621D01*
X214456Y321575D01*
X214502Y321532D01*
X214544Y321490D01*
X214583Y321456D01*
X214621Y321421D01*
X214652Y321390D01*
X214679Y321363D01*
X214702Y321340D01*
X214736Y321306D01*
X214756Y321283D01*
X214763Y321275D01*
X214813Y321214D01*
X214859Y321160D01*
X214894Y321106D01*
X214921Y321060D01*
X214944Y321022D01*
X214959Y320995D01*
X214967Y320976D01*
X214970Y320968D01*
X214994Y320914D01*
X215009Y320860D01*
X215020Y320810D01*
X215028Y320764D01*
X215032Y320726D01*
X215036Y320695D01*
Y320676D01*
Y320668D01*
X215032Y320615D01*
X215028Y320561D01*
X215001Y320465D01*
X214967Y320380D01*
X214928Y320307D01*
X214890Y320250D01*
X214871Y320227D01*
X214855Y320204D01*
X214840Y320188D01*
X214828Y320177D01*
X214825Y320173D01*
X214821Y320169D01*
X214778Y320135D01*
X214736Y320100D01*
X214690Y320073D01*
X214640Y320050D01*
X214544Y320016D01*
X214452Y319992D01*
X214410Y319981D01*
X214371Y319977D01*
X214337Y319973D01*
X214306Y319970D01*
X214279Y319966D01*
X214245D01*
X214179Y319970D01*
X214118Y319973D01*
X214003Y319996D01*
X213953Y320008D01*
X213903Y320023D01*
X213861Y320042D01*
X213822Y320058D01*
X213788Y320077D01*
X213757Y320092D01*
X213730Y320111D01*
X213707Y320123D01*
X213692Y320135D01*
X213680Y320146D01*
X213673Y320150D01*
X213669Y320154D01*
X213630Y320192D01*
X213600Y320231D01*
X213542Y320319D01*
X213500Y320407D01*
X213469Y320496D01*
X213446Y320572D01*
X213442Y320607D01*
X213435Y320638D01*
X213431Y320661D01*
X213427Y320680D01*
Y320691D01*
Y320695D01*
X213745Y320730D01*
X213753Y320645D01*
X213769Y320572D01*
X213788Y320511D01*
X213815Y320457D01*
X213838Y320415D01*
X213861Y320384D01*
X213876Y320369D01*
X213880Y320361D01*
X213934Y320315D01*
X213991Y320281D01*
X214053Y320257D01*
X214110Y320238D01*
X214160Y320231D01*
X214199Y320227D01*
X214214Y320223D01*
X214237D01*
X214314Y320227D01*
X214383Y320242D01*
X214441Y320261D01*
X214491Y320284D01*
X214529Y320311D01*
X214560Y320330D01*
X214575Y320346D01*
X214583Y320350D01*
X214629Y320399D01*
X214660Y320453D01*
X214683Y320503D01*
X214702Y320553D01*
X214709Y320595D01*
X214713Y320630D01*
X214717Y320653D01*
Y320657D01*
Y320661D01*
X214709Y320726D01*
X214694Y320795D01*
X214671Y320856D01*
X214644Y320914D01*
X214617Y320964D01*
X214594Y321002D01*
X214586Y321018D01*
X214579Y321029D01*
X214571Y321033D01*
Y321037D01*
X214540Y321075D01*
X214506Y321118D01*
X214468Y321160D01*
X214421Y321202D01*
X214329Y321290D01*
X214237Y321379D01*
X214153Y321452D01*
X214114Y321486D01*
X214080Y321513D01*
X214053Y321540D01*
X214034Y321555D01*
X214018Y321567D01*
X214014Y321571D01*
X213922Y321651D01*
X213838Y321724D01*
X213769Y321790D01*
X213711Y321843D01*
X213665Y321889D01*
X213634Y321924D01*
X213615Y321947D01*
X213607Y321951D01*
Y321955D01*
X213557Y322016D01*
X213519Y322074D01*
X213481Y322131D01*
X213454Y322181D01*
X213431Y322227D01*
X213415Y322258D01*
X213408Y322281D01*
X213404Y322285D01*
Y322289D01*
X213392Y322327D01*
X213381Y322366D01*
X213377Y322400D01*
X213373Y322431D01*
X213369Y322458D01*
Y322481D01*
Y322496D01*
Y322500D01*
X215040D01*
Y322204D01*
D02*
G37*
%LPC*%
G36*
X292971Y417091D02*
X292218D01*
Y416257D01*
X293013D01*
X293113Y416261D01*
X293197Y416277D01*
X293266Y416292D01*
X293324Y416315D01*
X293366Y416334D01*
X293401Y416354D01*
X293416Y416369D01*
X293424Y416373D01*
X293466Y416419D01*
X293501Y416469D01*
X293524Y416519D01*
X293539Y416565D01*
X293547Y416607D01*
X293554Y416638D01*
Y416661D01*
Y416665D01*
Y416668D01*
X293551Y416714D01*
X293543Y416757D01*
X293531Y416795D01*
X293520Y416826D01*
X293508Y416856D01*
X293497Y416876D01*
X293489Y416891D01*
X293485Y416895D01*
X293458Y416929D01*
X293428Y416960D01*
X293393Y416987D01*
X293362Y417010D01*
X293336Y417026D01*
X293313Y417037D01*
X293297Y417041D01*
X293289Y417045D01*
X293240Y417060D01*
X293182Y417072D01*
X293121Y417079D01*
X293063Y417083D01*
X293013Y417087D01*
X292971Y417091D01*
D02*
G37*
G36*
X234471Y300091D02*
X233718D01*
Y299257D01*
X234513D01*
X234613Y299261D01*
X234697Y299277D01*
X234766Y299292D01*
X234824Y299315D01*
X234866Y299334D01*
X234901Y299354D01*
X234916Y299369D01*
X234924Y299373D01*
X234966Y299419D01*
X235001Y299469D01*
X235024Y299519D01*
X235039Y299565D01*
X235047Y299607D01*
X235054Y299638D01*
Y299661D01*
Y299664D01*
Y299668D01*
X235051Y299714D01*
X235043Y299757D01*
X235031Y299795D01*
X235020Y299826D01*
X235008Y299856D01*
X234997Y299876D01*
X234989Y299891D01*
X234985Y299895D01*
X234958Y299929D01*
X234928Y299960D01*
X234893Y299987D01*
X234862Y300010D01*
X234836Y300026D01*
X234812Y300037D01*
X234797Y300041D01*
X234789Y300045D01*
X234740Y300060D01*
X234682Y300072D01*
X234620Y300079D01*
X234563Y300083D01*
X234513Y300087D01*
X234471Y300091D01*
D02*
G37*
G36*
X212087Y321091D02*
X211334D01*
Y320257D01*
X212129D01*
X212229Y320261D01*
X212313Y320277D01*
X212382Y320292D01*
X212440Y320315D01*
X212482Y320334D01*
X212517Y320354D01*
X212532Y320369D01*
X212540Y320373D01*
X212582Y320419D01*
X212617Y320469D01*
X212640Y320519D01*
X212655Y320565D01*
X212663Y320607D01*
X212670Y320638D01*
Y320661D01*
Y320665D01*
Y320668D01*
X212667Y320714D01*
X212659Y320757D01*
X212647Y320795D01*
X212636Y320826D01*
X212624Y320856D01*
X212613Y320876D01*
X212605Y320891D01*
X212601Y320895D01*
X212574Y320930D01*
X212544Y320960D01*
X212509Y320987D01*
X212478Y321010D01*
X212452Y321025D01*
X212428Y321037D01*
X212413Y321041D01*
X212405Y321045D01*
X212355Y321060D01*
X212298Y321072D01*
X212236Y321079D01*
X212179Y321083D01*
X212129Y321087D01*
X212087Y321091D01*
D02*
G37*
%LPD*%
D10*
X291601Y449024D02*
Y451976D01*
X297399D01*
Y449024D02*
Y451976D01*
X291601Y449024D02*
X297399D01*
X287804Y416389D02*
X295964D01*
Y420611D01*
X287804D02*
X295964D01*
X287804Y416389D02*
Y420611D01*
X186420Y431389D02*
Y435611D01*
X194580D01*
Y431389D02*
Y435611D01*
X186420Y431389D02*
X194580D01*
X317920Y398889D02*
X326080D01*
Y403111D01*
X317920D02*
X326080D01*
X317920Y398889D02*
Y403111D01*
X353420Y432889D02*
Y437111D01*
X361580D01*
Y432889D02*
Y437111D01*
X353420Y432889D02*
X361580D01*
X365020Y430866D02*
Y439134D01*
X379980D01*
Y430866D02*
Y439134D01*
X365020Y430866D02*
X379980D01*
X392580Y432889D02*
Y437111D01*
X384420Y432889D02*
X392580D01*
X384420D02*
Y437111D01*
X392580D01*
X176523Y459032D02*
X193477D01*
X176523Y448968D02*
Y459032D01*
Y448968D02*
X193477D01*
Y459032D01*
X230532Y317523D02*
Y334477D01*
X220468D02*
X230532D01*
X220468Y317523D02*
Y334477D01*
Y317523D02*
X230532D01*
X229304Y299389D02*
X237464D01*
Y303611D01*
X229304D02*
X237464D01*
X229304Y299389D02*
Y303611D01*
X206920Y320389D02*
X215080D01*
Y324611D01*
X206920D02*
X215080D01*
X206920Y320389D02*
Y324611D01*
X208611Y482420D02*
Y490580D01*
X204389D02*
X208611D01*
X204389Y482420D02*
Y490580D01*
Y482420D02*
X208611D01*
X219611D02*
Y490580D01*
X215389D02*
X219611D01*
X215389Y482420D02*
Y490580D01*
Y482420D02*
X219611D01*
X228889Y482036D02*
Y490196D01*
Y482036D02*
X233111D01*
Y490196D01*
X228889D02*
X233111D01*
X198611Y482420D02*
Y490580D01*
X194389D02*
X198611D01*
X194389Y482420D02*
Y490580D01*
Y482420D02*
X198611D01*
M02*
