G04*
G04 #@! TF.GenerationSoftware,Altium Limited,Altium Designer,20.0.2 (26)*
G04*
G04 Layer_Physical_Order=2*
G04 Layer_Color=16711680*
%FSLAX25Y25*%
%MOIN*%
G70*
G01*
G75*
%ADD16C,0.01000*%
%ADD26R,0.02717X0.02835*%
%ADD45C,0.06181*%
%ADD52C,0.05709*%
%ADD53R,0.05709X0.05709*%
%ADD60R,0.05906X0.05906*%
%ADD61C,0.05906*%
%ADD62C,0.06000*%
%ADD63R,0.07736X0.07736*%
%ADD64C,0.07736*%
%ADD65R,0.05906X0.05906*%
%ADD66C,0.04996*%
%ADD67C,0.05937*%
%ADD68R,0.05937X0.05937*%
%ADD69C,0.05512*%
%ADD70C,0.04724*%
%ADD71C,0.07087*%
%ADD72R,0.07087X0.07087*%
%ADD73C,0.05000*%
%ADD74R,0.01968X0.01772*%
%ADD75R,0.02648X0.02816*%
%ADD76R,0.05727X0.06127*%
%ADD77R,0.02816X0.02648*%
%ADD78R,0.03150X0.02362*%
%ADD79R,0.02029X0.01860*%
%ADD80R,0.02835X0.02717*%
%ADD81R,0.08071X0.10433*%
%ADD82R,0.06127X0.05727*%
%ADD83R,0.02362X0.05118*%
%ADD84R,0.02362X0.03150*%
%ADD85R,0.08465X0.15748*%
G36*
X432500Y240000D02*
X363334D01*
X363266Y240089D01*
X363292Y240708D01*
X372792Y250208D01*
X373035Y250571D01*
X373120Y251000D01*
Y259449D01*
X375551D01*
Y266551D01*
X370033D01*
X353120Y283464D01*
Y359536D01*
X370033Y376449D01*
X375551D01*
Y383551D01*
X368449D01*
Y378033D01*
X351208Y360792D01*
X350965Y360429D01*
X350880Y360000D01*
Y283000D01*
X350965Y282571D01*
X351208Y282208D01*
X360403Y273013D01*
X360212Y272551D01*
X356533D01*
X343620Y285464D01*
X343620Y404151D01*
Y446610D01*
X344063Y446794D01*
X344710Y447290D01*
X345206Y447937D01*
X345519Y448691D01*
X345625Y449500D01*
X345519Y450309D01*
X345206Y451063D01*
X344710Y451710D01*
X344063Y452207D01*
X343309Y452519D01*
X342500Y452625D01*
X341691Y452519D01*
X340937Y452207D01*
X340290Y451710D01*
X339794Y451063D01*
X339481Y450309D01*
X339375Y449500D01*
X339481Y448691D01*
X339794Y447937D01*
X340290Y447290D01*
X340937Y446794D01*
X341380Y446610D01*
Y404151D01*
X341380Y285000D01*
X341465Y284571D01*
X341708Y284208D01*
X353949Y271967D01*
Y265449D01*
X361051D01*
Y271712D01*
X361513Y271903D01*
X368449Y264967D01*
Y259449D01*
X370880D01*
Y251464D01*
X362036Y242620D01*
X333964D01*
X330786Y245798D01*
X331102Y246209D01*
X331460Y247073D01*
X331582Y248000D01*
X331460Y248927D01*
X331102Y249791D01*
X330533Y250533D01*
X329791Y251102D01*
X328927Y251460D01*
X328000Y251582D01*
X327073Y251460D01*
X326209Y251102D01*
X325467Y250533D01*
X324898Y249791D01*
X324540Y248927D01*
X324418Y248000D01*
X324540Y247073D01*
X324898Y246209D01*
X325467Y245467D01*
X326209Y244898D01*
X327073Y244540D01*
X328000Y244418D01*
X328882Y244534D01*
X332708Y240708D01*
X332734Y240089D01*
X332666Y240000D01*
X100000D01*
Y500000D01*
X215782D01*
X215850Y499911D01*
X215824Y499292D01*
X206923Y490391D01*
X204578D01*
Y486377D01*
Y482609D01*
X208422D01*
Y483496D01*
X209420D01*
X212880Y480036D01*
Y477390D01*
X212437Y477207D01*
X211790Y476710D01*
X211294Y476063D01*
X210981Y475309D01*
X210875Y474500D01*
X210981Y473691D01*
X211294Y472937D01*
X211790Y472290D01*
X212437Y471794D01*
X213191Y471481D01*
X214000Y471375D01*
X214809Y471481D01*
X215563Y471794D01*
X216210Y472290D01*
X216706Y472937D01*
X217019Y473691D01*
X217125Y474500D01*
X217019Y475309D01*
X216706Y476063D01*
X216210Y476710D01*
X215563Y477207D01*
X215120Y477390D01*
Y480500D01*
X215035Y480929D01*
X214792Y481292D01*
X210676Y485408D01*
X210313Y485651D01*
X209884Y485736D01*
X208422D01*
Y488723D01*
X217080Y497380D01*
X304250D01*
X304420Y496880D01*
X303967Y496533D01*
X303398Y495791D01*
X303040Y494927D01*
X302918Y494000D01*
X303040Y493073D01*
X303318Y492402D01*
X297208Y486292D01*
X296965Y485929D01*
X296880Y485500D01*
Y469964D01*
X287752Y460835D01*
X287309Y461019D01*
X286500Y461125D01*
X285691Y461019D01*
X284937Y460707D01*
X284290Y460210D01*
X283794Y459563D01*
X283481Y458809D01*
X283375Y458000D01*
X283481Y457191D01*
X283794Y456437D01*
X284290Y455790D01*
X284937Y455294D01*
X285357Y455120D01*
X285257Y454620D01*
X284500D01*
X284071Y454535D01*
X283708Y454292D01*
X282732Y453315D01*
X282489Y452952D01*
X282404Y452524D01*
Y452484D01*
X281941D01*
Y451001D01*
X276060Y445120D01*
X261437D01*
X261008Y445035D01*
X260645Y444792D01*
X255015Y439162D01*
X246905Y431052D01*
X246226Y431333D01*
X245295Y431456D01*
X244364Y431333D01*
X243496Y430974D01*
X242751Y430402D01*
X242180Y429657D01*
X241898Y428978D01*
X223102D01*
X222820Y429657D01*
X222249Y430402D01*
X221504Y430974D01*
X220636Y431333D01*
X219705Y431456D01*
X218774Y431333D01*
X217906Y430974D01*
X217161Y430402D01*
X216589Y429657D01*
X216230Y428789D01*
X216107Y427858D01*
X216230Y426927D01*
X216589Y426059D01*
X217161Y425314D01*
X217906Y424743D01*
X218774Y424383D01*
X219705Y424261D01*
X220636Y424383D01*
X221504Y424743D01*
X222249Y425314D01*
X222820Y426059D01*
X223102Y426738D01*
X241898D01*
X242180Y426059D01*
X242751Y425314D01*
X243496Y424743D01*
X244364Y424383D01*
X245295Y424261D01*
X246226Y424383D01*
X247094Y424743D01*
X247839Y425314D01*
X248411Y426059D01*
X248770Y426927D01*
X248893Y427858D01*
X248770Y428789D01*
X248489Y429468D01*
X256599Y437578D01*
X256599Y437578D01*
X261901Y442880D01*
X276524D01*
X276952Y442965D01*
X277315Y443208D01*
X283623Y449516D01*
X285356D01*
Y439380D01*
X284937Y439207D01*
X284290Y438710D01*
X283794Y438063D01*
X283714Y437870D01*
X270140D01*
X269956Y438313D01*
X269460Y438960D01*
X268813Y439457D01*
X268059Y439769D01*
X267250Y439875D01*
X266441Y439769D01*
X265687Y439457D01*
X265040Y438960D01*
X264544Y438313D01*
X264231Y437559D01*
X264125Y436750D01*
X264231Y435941D01*
X264544Y435187D01*
X265040Y434540D01*
X265687Y434044D01*
X266441Y433731D01*
X267250Y433625D01*
X268059Y433731D01*
X268813Y434044D01*
X269460Y434540D01*
X269956Y435187D01*
X270140Y435630D01*
X283507D01*
X283794Y434937D01*
X284290Y434290D01*
X284937Y433793D01*
X285691Y433481D01*
X286500Y433375D01*
X287309Y433481D01*
X288063Y433793D01*
X288710Y434290D01*
X289206Y434937D01*
X289519Y435691D01*
X289625Y436500D01*
X289519Y437309D01*
X289206Y438063D01*
X288710Y438710D01*
X288063Y439207D01*
X287596Y439400D01*
Y447615D01*
X288058Y447807D01*
X294465Y441400D01*
Y440016D01*
X298999D01*
X303347Y435668D01*
X303040Y434927D01*
X302918Y434000D01*
X303040Y433073D01*
X303398Y432209D01*
X303967Y431467D01*
X304709Y430898D01*
X305573Y430540D01*
X306500Y430418D01*
X307427Y430540D01*
X308291Y430898D01*
X309033Y431467D01*
X309602Y432209D01*
X309960Y433073D01*
X310082Y434000D01*
X309960Y434927D01*
X309602Y435791D01*
X309033Y436533D01*
X308291Y437102D01*
X307427Y437460D01*
X306500Y437582D01*
X305573Y437460D01*
X304972Y437211D01*
X300583Y441600D01*
Y442984D01*
X296048D01*
X288059Y450974D01*
Y452380D01*
X292505D01*
Y451000D01*
X294519D01*
Y450500D01*
X295019D01*
Y448570D01*
X296534D01*
Y448972D01*
X299113D01*
Y450529D01*
X302434Y453850D01*
X302962Y453671D01*
X303040Y453073D01*
X303398Y452209D01*
X303967Y451467D01*
X304709Y450898D01*
X305573Y450540D01*
X306500Y450418D01*
X307427Y450540D01*
X308062Y450803D01*
X322329Y436536D01*
Y397839D01*
X321886Y397655D01*
X321239Y397159D01*
X321022Y396875D01*
X320521Y397045D01*
Y430598D01*
X320436Y431027D01*
X320194Y431390D01*
X309503Y442080D01*
X309602Y442209D01*
X309960Y443073D01*
X310082Y444000D01*
X309960Y444927D01*
X309602Y445791D01*
X309033Y446533D01*
X308291Y447102D01*
X307427Y447460D01*
X306500Y447582D01*
X305573Y447460D01*
X304709Y447102D01*
X303967Y446533D01*
X303398Y445791D01*
X303040Y444927D01*
X302918Y444000D01*
X303040Y443073D01*
X303398Y442209D01*
X303967Y441467D01*
X304709Y440898D01*
X305573Y440540D01*
X306500Y440418D01*
X307427Y440540D01*
X307745Y440672D01*
X318282Y430134D01*
Y386459D01*
X317826Y386303D01*
X317782Y386302D01*
X308335Y395748D01*
X308519Y396191D01*
X308625Y397000D01*
X308519Y397809D01*
X308206Y398563D01*
X307710Y399210D01*
X307063Y399706D01*
X306309Y400019D01*
X305500Y400125D01*
X304691Y400019D01*
X303937Y399706D01*
X303290Y399210D01*
X302794Y398563D01*
X302610Y398120D01*
X257066D01*
X256960Y398927D01*
X256602Y399791D01*
X256033Y400533D01*
X255291Y401102D01*
X254427Y401460D01*
X253500Y401582D01*
X252573Y401460D01*
X251709Y401102D01*
X250967Y400533D01*
X250398Y399791D01*
X250040Y398927D01*
X249918Y398000D01*
X250040Y397073D01*
X250398Y396209D01*
X250967Y395467D01*
X251709Y394898D01*
X252573Y394540D01*
X253500Y394418D01*
X254427Y394540D01*
X255291Y394898D01*
X256033Y395467D01*
X256349Y395880D01*
X302610D01*
X302794Y395437D01*
X303290Y394790D01*
X303937Y394294D01*
X304691Y393981D01*
X305500Y393875D01*
X306309Y393981D01*
X306751Y394165D01*
X315880Y385036D01*
Y358464D01*
X312598Y355182D01*
X311927Y355460D01*
X311000Y355582D01*
X310073Y355460D01*
X309209Y355102D01*
X308467Y354533D01*
X307898Y353791D01*
X307540Y352927D01*
X307418Y352000D01*
X307540Y351073D01*
X307898Y350209D01*
X308467Y349467D01*
X309209Y348898D01*
X310073Y348540D01*
X311000Y348418D01*
X311927Y348540D01*
X312791Y348898D01*
X313533Y349467D01*
X314102Y350209D01*
X314460Y351073D01*
X314582Y352000D01*
X314460Y352927D01*
X314182Y353598D01*
X317782Y357198D01*
X317826Y357197D01*
X318282Y357041D01*
Y298598D01*
X318367Y298170D01*
X318610Y297807D01*
X341380Y275036D01*
Y270219D01*
X340880Y270119D01*
X340602Y270791D01*
X340033Y271533D01*
X339291Y272102D01*
X338427Y272460D01*
X337500Y272582D01*
X336573Y272460D01*
X335709Y272102D01*
X334967Y271533D01*
X334398Y270791D01*
X334040Y269927D01*
X333918Y269000D01*
X334040Y268073D01*
X334398Y267209D01*
X334967Y266467D01*
X335709Y265898D01*
X336573Y265540D01*
X337500Y265418D01*
X338427Y265540D01*
X339291Y265898D01*
X340033Y266467D01*
X340602Y267209D01*
X340880Y267881D01*
X341380Y267781D01*
Y253500D01*
X341465Y253071D01*
X341708Y252708D01*
X344818Y249598D01*
X344540Y248927D01*
X344418Y248000D01*
X344540Y247073D01*
X344898Y246209D01*
X345467Y245467D01*
X346209Y244898D01*
X347073Y244540D01*
X348000Y244418D01*
X348927Y244540D01*
X349791Y244898D01*
X350533Y245467D01*
X351102Y246209D01*
X351460Y247073D01*
X351582Y248000D01*
X351460Y248927D01*
X351102Y249791D01*
X350533Y250533D01*
X349791Y251102D01*
X348927Y251460D01*
X348000Y251582D01*
X347073Y251460D01*
X346402Y251182D01*
X343620Y253964D01*
Y267781D01*
X344120Y267881D01*
X344398Y267209D01*
X344967Y266467D01*
X345709Y265898D01*
X346573Y265540D01*
X347500Y265418D01*
X348427Y265540D01*
X349291Y265898D01*
X350033Y266467D01*
X350602Y267209D01*
X350960Y268073D01*
X351082Y269000D01*
X350960Y269927D01*
X350602Y270791D01*
X350033Y271533D01*
X349291Y272102D01*
X348427Y272460D01*
X347500Y272582D01*
X346573Y272460D01*
X345709Y272102D01*
X344967Y271533D01*
X344398Y270791D01*
X344120Y270119D01*
X343620Y270219D01*
Y275500D01*
X343535Y275929D01*
X343292Y276292D01*
X320521Y299062D01*
Y392853D01*
X321022Y393022D01*
X321239Y392739D01*
X321886Y392242D01*
X322640Y391930D01*
X323449Y391824D01*
X324258Y391930D01*
X325011Y392242D01*
X325659Y392739D01*
X326155Y393386D01*
X326467Y394140D01*
X326574Y394949D01*
X326467Y395758D01*
X326155Y396511D01*
X325659Y397159D01*
X325011Y397655D01*
X324569Y397839D01*
Y437000D01*
X324483Y437429D01*
X324241Y437792D01*
X309667Y452366D01*
X309960Y453073D01*
X310082Y454000D01*
X309960Y454927D01*
X309602Y455791D01*
X309033Y456533D01*
X308291Y457102D01*
X307427Y457460D01*
X306500Y457582D01*
X305573Y457460D01*
X304709Y457102D01*
X303967Y456533D01*
X303620Y456080D01*
X303120Y456250D01*
Y461750D01*
X303620Y461920D01*
X303967Y461467D01*
X304709Y460898D01*
X305573Y460540D01*
X306500Y460418D01*
X307427Y460540D01*
X308291Y460898D01*
X309033Y461467D01*
X309602Y462209D01*
X309960Y463073D01*
X310082Y464000D01*
X309960Y464927D01*
X309602Y465791D01*
X309033Y466533D01*
X308291Y467102D01*
X307427Y467460D01*
X306500Y467582D01*
X305573Y467460D01*
X304709Y467102D01*
X303967Y466533D01*
X303620Y466080D01*
X303120Y466250D01*
Y471750D01*
X303620Y471920D01*
X303967Y471467D01*
X304709Y470898D01*
X305573Y470540D01*
X306500Y470418D01*
X307427Y470540D01*
X308291Y470898D01*
X309033Y471467D01*
X309602Y472209D01*
X309960Y473073D01*
X310082Y474000D01*
X309960Y474927D01*
X309602Y475791D01*
X309033Y476533D01*
X308291Y477102D01*
X307427Y477460D01*
X306500Y477582D01*
X305573Y477460D01*
X304709Y477102D01*
X303967Y476533D01*
X303620Y476080D01*
X303120Y476250D01*
Y479036D01*
X304902Y480818D01*
X305573Y480540D01*
X306500Y480418D01*
X307427Y480540D01*
X308291Y480898D01*
X309033Y481467D01*
X309602Y482209D01*
X309960Y483073D01*
X310082Y484000D01*
X309960Y484927D01*
X309602Y485791D01*
X309033Y486533D01*
X308291Y487102D01*
X307427Y487460D01*
X306500Y487582D01*
X305573Y487460D01*
X304709Y487102D01*
X303967Y486533D01*
X303398Y485791D01*
X303040Y484927D01*
X302918Y484000D01*
X303040Y483073D01*
X303318Y482402D01*
X301208Y480292D01*
X300965Y479929D01*
X300880Y479500D01*
Y455464D01*
X298250Y452834D01*
X296792Y454292D01*
X296429Y454535D01*
X296000Y454620D01*
X287743D01*
X287643Y455120D01*
X288063Y455294D01*
X288710Y455790D01*
X289206Y456437D01*
X289519Y457191D01*
X289625Y458000D01*
X289519Y458809D01*
X289335Y459251D01*
X298792Y468708D01*
X299035Y469071D01*
X299120Y469500D01*
Y485036D01*
X304902Y490818D01*
X305573Y490540D01*
X306500Y490418D01*
X307427Y490540D01*
X308291Y490898D01*
X309033Y491467D01*
X309602Y492209D01*
X309960Y493073D01*
X310082Y494000D01*
X309960Y494927D01*
X309602Y495791D01*
X309033Y496533D01*
X308580Y496880D01*
X308750Y497380D01*
X359536D01*
X365518Y491398D01*
X365481Y491309D01*
X365375Y490500D01*
X365481Y489691D01*
X365794Y488937D01*
X366290Y488290D01*
X366937Y487793D01*
X367691Y487481D01*
X368500Y487375D01*
X369309Y487481D01*
X370063Y487793D01*
X370710Y488290D01*
X371206Y488937D01*
X371519Y489691D01*
X371625Y490500D01*
X371519Y491309D01*
X371206Y492063D01*
X370710Y492710D01*
X370063Y493207D01*
X369309Y493519D01*
X368500Y493625D01*
X367691Y493519D01*
X366937Y493207D01*
X366903Y493180D01*
X360792Y499292D01*
X360766Y499911D01*
X360834Y500000D01*
X432500D01*
Y240000D01*
D02*
G37*
%LPC*%
G36*
X428000Y498629D02*
X427061Y498506D01*
X426185Y498143D01*
X425434Y497566D01*
X424857Y496815D01*
X424494Y495939D01*
X424371Y495000D01*
X424494Y494061D01*
X424857Y493185D01*
X425434Y492434D01*
X426185Y491857D01*
X427061Y491494D01*
X428000Y491371D01*
X428939Y491494D01*
X429815Y491857D01*
X430566Y492434D01*
X431143Y493185D01*
X431506Y494061D01*
X431629Y495000D01*
X431506Y495939D01*
X431143Y496815D01*
X430566Y497566D01*
X429815Y498143D01*
X428939Y498506D01*
X428000Y498629D01*
D02*
G37*
G36*
X422551Y497551D02*
X415449D01*
Y490449D01*
X422551D01*
Y497551D01*
D02*
G37*
G36*
X106500Y497129D02*
X105561Y497006D01*
X104685Y496643D01*
X103934Y496066D01*
X103357Y495315D01*
X102994Y494439D01*
X102871Y493500D01*
X102994Y492561D01*
X103357Y491685D01*
X103934Y490934D01*
X104685Y490357D01*
X105561Y489994D01*
X106500Y489871D01*
X107439Y489994D01*
X108315Y490357D01*
X109066Y490934D01*
X109643Y491685D01*
X110006Y492561D01*
X110129Y493500D01*
X110006Y494439D01*
X109643Y495315D01*
X109066Y496066D01*
X108315Y496643D01*
X107439Y497006D01*
X106500Y497129D01*
D02*
G37*
G36*
X198824Y490792D02*
X197000D01*
Y488884D01*
X198824D01*
Y490792D01*
D02*
G37*
G36*
X196000D02*
X194176D01*
Y488884D01*
X196000D01*
Y490792D01*
D02*
G37*
G36*
X248000Y495125D02*
X247191Y495019D01*
X246437Y494706D01*
X245790Y494210D01*
X245294Y493563D01*
X245110Y493120D01*
X221116D01*
X220687Y493035D01*
X220324Y492792D01*
X217923Y490391D01*
X215578D01*
Y486377D01*
Y482609D01*
X219422D01*
Y482841D01*
X219884Y483032D01*
X220380Y482536D01*
Y477390D01*
X219937Y477207D01*
X219290Y476710D01*
X218794Y476063D01*
X218481Y475309D01*
X218375Y474500D01*
X218481Y473691D01*
X218794Y472937D01*
X219290Y472290D01*
X219937Y471794D01*
X220691Y471481D01*
X221500Y471375D01*
X222309Y471481D01*
X223063Y471794D01*
X223710Y472290D01*
X224206Y472937D01*
X224519Y473691D01*
X224625Y474500D01*
X224519Y475309D01*
X224206Y476063D01*
X223710Y476710D01*
X223063Y477207D01*
X222620Y477390D01*
Y483000D01*
X222535Y483429D01*
X222292Y483792D01*
X220676Y485408D01*
X220313Y485651D01*
X219884Y485736D01*
X219422D01*
Y488723D01*
X221580Y490880D01*
X238583D01*
Y489311D01*
X241000D01*
X243417D01*
Y490880D01*
X245110D01*
X245294Y490437D01*
X245790Y489790D01*
X246437Y489293D01*
X247191Y488981D01*
X248000Y488875D01*
X248809Y488981D01*
X249563Y489293D01*
X250210Y489790D01*
X250706Y490437D01*
X251019Y491191D01*
X251125Y492000D01*
X251019Y492809D01*
X250706Y493563D01*
X250210Y494210D01*
X249563Y494706D01*
X248809Y495019D01*
X248000Y495125D01*
D02*
G37*
G36*
X283500Y494120D02*
X257441D01*
X257012Y494035D01*
X256649Y493792D01*
X256196Y493339D01*
X253827D01*
Y489780D01*
X258173D01*
Y491880D01*
X283036D01*
X283666Y491250D01*
X283483Y490808D01*
X283377Y490000D01*
X283483Y489192D01*
X283795Y488438D01*
X284292Y487792D01*
X284938Y487295D01*
X285692Y486983D01*
X286500Y486877D01*
X287308Y486983D01*
X288062Y487295D01*
X288708Y487792D01*
X289205Y488438D01*
X289517Y489192D01*
X289623Y490000D01*
X289517Y490808D01*
X289205Y491562D01*
X288708Y492208D01*
X288062Y492705D01*
X287308Y493017D01*
X286500Y493123D01*
X285692Y493017D01*
X285250Y492834D01*
X284292Y493792D01*
X283929Y494035D01*
X283500Y494120D01*
D02*
G37*
G36*
X382500Y488625D02*
X381691Y488519D01*
X380937Y488206D01*
X380290Y487710D01*
X379794Y487063D01*
X379481Y486309D01*
X379375Y485500D01*
X379481Y484691D01*
X379665Y484248D01*
X347208Y451792D01*
X346965Y451429D01*
X346880Y451000D01*
Y431891D01*
X346078D01*
Y427878D01*
Y424109D01*
X346880D01*
Y422890D01*
X346437Y422707D01*
X345790Y422210D01*
X345294Y421563D01*
X344981Y420809D01*
X344875Y420000D01*
X344981Y419191D01*
X345294Y418437D01*
X345790Y417790D01*
X346437Y417294D01*
X347191Y416981D01*
X348000Y416875D01*
X348809Y416981D01*
X349563Y417294D01*
X350210Y417790D01*
X350706Y418437D01*
X351019Y419191D01*
X351125Y420000D01*
X351032Y420709D01*
X351282Y420899D01*
X351481Y420967D01*
X353124Y419324D01*
X353487Y419081D01*
X353916Y418996D01*
X356725D01*
Y418078D01*
X364507D01*
Y418880D01*
X367384D01*
X367813Y418965D01*
X368176Y419208D01*
X370306Y421338D01*
X370731Y421059D01*
X370625Y420250D01*
X370731Y419441D01*
X371044Y418687D01*
X371540Y418040D01*
X372187Y417544D01*
X372941Y417231D01*
X373750Y417125D01*
X374559Y417231D01*
X375313Y417544D01*
X375960Y418040D01*
X376456Y418687D01*
X376769Y419441D01*
X376875Y420250D01*
X376769Y421059D01*
X376456Y421813D01*
X375960Y422460D01*
X375313Y422957D01*
X374870Y423140D01*
Y424609D01*
X375922D01*
Y428377D01*
Y432391D01*
X375120D01*
Y466536D01*
X385248Y476665D01*
X385691Y476481D01*
X386500Y476375D01*
X387309Y476481D01*
X388063Y476793D01*
X388710Y477290D01*
X389206Y477937D01*
X389519Y478691D01*
X389625Y479500D01*
X389519Y480309D01*
X389206Y481063D01*
X388710Y481710D01*
X388063Y482206D01*
X387309Y482519D01*
X386500Y482625D01*
X385691Y482519D01*
X384937Y482206D01*
X384290Y481710D01*
X383794Y481063D01*
X383481Y480309D01*
X383375Y479500D01*
X383481Y478691D01*
X383665Y478249D01*
X373208Y467792D01*
X372965Y467429D01*
X372880Y467000D01*
Y432391D01*
X372078D01*
Y428377D01*
Y426277D01*
X366920Y421120D01*
X364507D01*
Y421922D01*
X356725D01*
Y421236D01*
X354380D01*
X349922Y425693D01*
Y427878D01*
Y431891D01*
X349120D01*
Y450536D01*
X381248Y482665D01*
X381691Y482481D01*
X382500Y482375D01*
X383309Y482481D01*
X384063Y482794D01*
X384710Y483290D01*
X385206Y483937D01*
X385519Y484691D01*
X385625Y485500D01*
X385519Y486309D01*
X385206Y487063D01*
X384710Y487710D01*
X384063Y488206D01*
X383309Y488519D01*
X382500Y488625D01*
D02*
G37*
G36*
X419000Y487582D02*
X418073Y487460D01*
X417209Y487102D01*
X416467Y486533D01*
X415898Y485791D01*
X415540Y484927D01*
X415418Y484000D01*
X415540Y483073D01*
X415898Y482209D01*
X416467Y481467D01*
X417209Y480898D01*
X418073Y480540D01*
X419000Y480418D01*
X419927Y480540D01*
X420791Y480898D01*
X421533Y481467D01*
X422102Y482209D01*
X422460Y483073D01*
X422582Y484000D01*
X422460Y484927D01*
X422102Y485791D01*
X421533Y486533D01*
X420791Y487102D01*
X419927Y487460D01*
X419000Y487582D01*
D02*
G37*
G36*
X170500Y490120D02*
X138500D01*
X138071Y490035D01*
X137708Y489792D01*
X134558Y486642D01*
X127858D01*
Y478358D01*
X136142D01*
Y485058D01*
X138964Y487880D01*
X170036D01*
X173358Y484558D01*
Y477858D01*
X181642D01*
Y486142D01*
X174942D01*
X171292Y489792D01*
X170929Y490035D01*
X170500Y490120D01*
D02*
G37*
G36*
X157500Y486177D02*
X156419Y486035D01*
X155411Y485618D01*
X154546Y484954D01*
X153882Y484089D01*
X153465Y483081D01*
X153323Y482000D01*
X153465Y480919D01*
X153882Y479911D01*
X154546Y479046D01*
X155411Y478382D01*
X156419Y477965D01*
X157500Y477823D01*
X158581Y477965D01*
X159589Y478382D01*
X160454Y479046D01*
X161118Y479911D01*
X161535Y480919D01*
X161677Y482000D01*
X161535Y483081D01*
X161118Y484089D01*
X160454Y484954D01*
X159589Y485618D01*
X158581Y486035D01*
X157500Y486177D01*
D02*
G37*
G36*
X286500Y483123D02*
X285692Y483017D01*
X284938Y482705D01*
X284292Y482208D01*
X283795Y481562D01*
X283483Y480808D01*
X283377Y480000D01*
X283483Y479192D01*
X283666Y478750D01*
X267536Y462620D01*
X249532D01*
X249103Y462535D01*
X248740Y462292D01*
X241414Y454966D01*
X234065D01*
Y446033D01*
X242998D01*
Y453383D01*
X249995Y460380D01*
X268000D01*
X268429Y460465D01*
X268792Y460708D01*
X285250Y477166D01*
X285692Y476983D01*
X286500Y476877D01*
X287308Y476983D01*
X288062Y477295D01*
X288708Y477792D01*
X289205Y478438D01*
X289517Y479192D01*
X289623Y480000D01*
X289517Y480808D01*
X289205Y481562D01*
X288708Y482208D01*
X288062Y482705D01*
X287308Y483017D01*
X286500Y483123D01*
D02*
G37*
G36*
X198824Y487884D02*
X196500D01*
X194176D01*
Y485976D01*
X194578D01*
Y482609D01*
X195380D01*
Y480000D01*
X195465Y479571D01*
X195708Y479208D01*
X201208Y473708D01*
X201571Y473465D01*
X202000Y473380D01*
X203110D01*
X203294Y472937D01*
X203790Y472290D01*
X204437Y471794D01*
X205191Y471481D01*
X206000Y471375D01*
X206809Y471481D01*
X207563Y471794D01*
X208210Y472290D01*
X208706Y472937D01*
X209019Y473691D01*
X209125Y474500D01*
X209019Y475309D01*
X208706Y476063D01*
X208210Y476710D01*
X207563Y477207D01*
X206809Y477519D01*
X206000Y477625D01*
X205191Y477519D01*
X204437Y477207D01*
X203790Y476710D01*
X203294Y476063D01*
X203110Y475620D01*
X202464D01*
X197620Y480464D01*
Y482609D01*
X198422D01*
Y485976D01*
X198824D01*
Y487884D01*
D02*
G37*
G36*
X287000Y473462D02*
Y470500D01*
X289962D01*
X289908Y470913D01*
X289556Y471764D01*
X288995Y472495D01*
X288264Y473056D01*
X287413Y473408D01*
X287000Y473462D01*
D02*
G37*
G36*
X286000D02*
X285587Y473408D01*
X284736Y473056D01*
X284005Y472495D01*
X283444Y471764D01*
X283092Y470913D01*
X283038Y470500D01*
X286000D01*
Y473462D01*
D02*
G37*
G36*
X419000Y477582D02*
X418073Y477460D01*
X417209Y477102D01*
X416467Y476533D01*
X415898Y475791D01*
X415540Y474927D01*
X415418Y474000D01*
X415540Y473073D01*
X415818Y472402D01*
X382708Y439292D01*
X382465Y438929D01*
X382380Y438500D01*
Y420984D01*
X378965D01*
Y419600D01*
X372659Y413294D01*
X372309Y413438D01*
X371500Y413545D01*
X370691Y413438D01*
X369937Y413126D01*
X369290Y412630D01*
X368794Y411982D01*
X368481Y411229D01*
X368375Y410420D01*
X368481Y409611D01*
X368794Y408857D01*
X369290Y408210D01*
X369937Y407713D01*
X370691Y407401D01*
X371500Y407295D01*
X372309Y407401D01*
X373063Y407713D01*
X373710Y408210D01*
X374206Y408857D01*
X374519Y409611D01*
X374625Y410420D01*
X374519Y411229D01*
X374297Y411764D01*
X380548Y418016D01*
X382380D01*
Y410964D01*
X380252Y408835D01*
X379809Y409019D01*
X379000Y409125D01*
X378191Y409019D01*
X377437Y408706D01*
X376790Y408210D01*
X376294Y407563D01*
X375981Y406809D01*
X375875Y406000D01*
X375981Y405191D01*
X376294Y404437D01*
X376790Y403790D01*
X377437Y403294D01*
X378191Y402981D01*
X379000Y402875D01*
X379809Y402981D01*
X380563Y403294D01*
X381210Y403790D01*
X381706Y404437D01*
X382019Y405191D01*
X382125Y406000D01*
X382019Y406809D01*
X381835Y407252D01*
X384292Y409708D01*
X384535Y410071D01*
X384620Y410500D01*
Y418016D01*
X385083D01*
Y420984D01*
X384620D01*
Y438036D01*
X417402Y470818D01*
X418073Y470540D01*
X419000Y470418D01*
X419927Y470540D01*
X420791Y470898D01*
X421533Y471467D01*
X422102Y472209D01*
X422460Y473073D01*
X422582Y474000D01*
X422460Y474927D01*
X422102Y475791D01*
X421533Y476533D01*
X420791Y477102D01*
X419927Y477460D01*
X419000Y477582D01*
D02*
G37*
G36*
X289962Y469500D02*
X287000D01*
Y466538D01*
X287413Y466592D01*
X288264Y466945D01*
X288995Y467505D01*
X289556Y468236D01*
X289908Y469087D01*
X289962Y469500D01*
D02*
G37*
G36*
X286000D02*
X283038D01*
X283092Y469087D01*
X283444Y468236D01*
X284005Y467505D01*
X284736Y466945D01*
X285587Y466592D01*
X286000Y466538D01*
Y469500D01*
D02*
G37*
G36*
X232922Y490007D02*
X229078D01*
Y485993D01*
Y482225D01*
X229880D01*
Y480464D01*
X228208Y478792D01*
X227965Y478429D01*
X227880Y478000D01*
Y477390D01*
X227437Y477207D01*
X226790Y476710D01*
X226294Y476063D01*
X225981Y475309D01*
X225875Y474500D01*
X225981Y473691D01*
X226294Y472937D01*
X226790Y472290D01*
X227437Y471794D01*
X228191Y471481D01*
X229000Y471375D01*
X229809Y471481D01*
X230563Y471794D01*
X231210Y472290D01*
X231706Y472937D01*
X232019Y473691D01*
X232125Y474500D01*
X232019Y475309D01*
X231706Y476063D01*
X231210Y476710D01*
X230563Y477207D01*
X230517Y477226D01*
X230399Y477815D01*
X231792Y479208D01*
X232035Y479571D01*
X232120Y480000D01*
Y482225D01*
X232922D01*
Y486880D01*
X234536D01*
X237019Y484397D01*
X237382Y484154D01*
X237811Y484069D01*
X238984D01*
Y483232D01*
X241373D01*
X244880Y479725D01*
Y471890D01*
X244437Y471706D01*
X243790Y471210D01*
X243294Y470563D01*
X242981Y469809D01*
X242875Y469000D01*
X242981Y468191D01*
X243294Y467437D01*
X243790Y466790D01*
X244437Y466293D01*
X245191Y465981D01*
X246000Y465875D01*
X246809Y465981D01*
X247563Y466293D01*
X248210Y466790D01*
X248706Y467437D01*
X249019Y468191D01*
X249125Y469000D01*
X249019Y469809D01*
X248706Y470563D01*
X248210Y471210D01*
X247563Y471706D01*
X247120Y471890D01*
Y480189D01*
X247035Y480618D01*
X246792Y480981D01*
X243016Y484757D01*
Y486453D01*
X243417D01*
Y488311D01*
X241000D01*
X238583D01*
Y486708D01*
X238083Y486501D01*
X235792Y488792D01*
X235429Y489035D01*
X235000Y489120D01*
X232922D01*
Y490007D01*
D02*
G37*
G36*
X258173Y488220D02*
X253827D01*
Y484661D01*
X254380D01*
Y471390D01*
X253937Y471207D01*
X253290Y470710D01*
X252794Y470063D01*
X252481Y469309D01*
X252375Y468500D01*
X252481Y467691D01*
X252794Y466937D01*
X253290Y466290D01*
X253937Y465794D01*
X254691Y465481D01*
X255500Y465375D01*
X256309Y465481D01*
X257063Y465794D01*
X257710Y466290D01*
X258206Y466937D01*
X258519Y467691D01*
X258625Y468500D01*
X258519Y469309D01*
X258206Y470063D01*
X257710Y470710D01*
X257063Y471207D01*
X256620Y471390D01*
Y484661D01*
X258173D01*
Y488220D01*
D02*
G37*
G36*
X207000Y465921D02*
Y462500D01*
X210421D01*
X210351Y463032D01*
X209953Y463993D01*
X209319Y464819D01*
X208493Y465453D01*
X207532Y465851D01*
X207000Y465921D01*
D02*
G37*
G36*
X206000D02*
X205468Y465851D01*
X204507Y465453D01*
X203681Y464819D01*
X203047Y463993D01*
X202649Y463032D01*
X202579Y462500D01*
X206000D01*
Y465921D01*
D02*
G37*
G36*
X419000Y467582D02*
X418073Y467460D01*
X417209Y467102D01*
X416467Y466533D01*
X415898Y465791D01*
X415540Y464927D01*
X415418Y464000D01*
X415540Y463073D01*
X415818Y462402D01*
X408208Y454792D01*
X407965Y454429D01*
X407880Y454000D01*
Y387464D01*
X373598Y353182D01*
X372927Y353460D01*
X372000Y353582D01*
X371073Y353460D01*
X370209Y353102D01*
X369467Y352533D01*
X368898Y351791D01*
X368540Y350927D01*
X368418Y350000D01*
X368540Y349073D01*
X368898Y348209D01*
X369467Y347467D01*
X370209Y346898D01*
X371073Y346540D01*
X372000Y346418D01*
X372927Y346540D01*
X373791Y346898D01*
X374533Y347467D01*
X375102Y348209D01*
X375460Y349073D01*
X375582Y350000D01*
X375460Y350927D01*
X375182Y351598D01*
X409792Y386208D01*
X410035Y386571D01*
X410120Y387000D01*
Y453536D01*
X417402Y460818D01*
X418073Y460540D01*
X419000Y460418D01*
X419927Y460540D01*
X420791Y460898D01*
X421533Y461467D01*
X422102Y462209D01*
X422460Y463073D01*
X422582Y464000D01*
X422460Y464927D01*
X422102Y465791D01*
X421533Y466533D01*
X420791Y467102D01*
X419927Y467460D01*
X419000Y467582D01*
D02*
G37*
G36*
X112000Y486677D02*
X110919Y486535D01*
X109911Y486118D01*
X109046Y485454D01*
X108382Y484589D01*
X107965Y483581D01*
X107823Y482500D01*
X107965Y481419D01*
X108382Y480411D01*
X109046Y479546D01*
X109911Y478882D01*
X110880Y478481D01*
Y471315D01*
X107122D01*
Y459685D01*
X116390D01*
Y471315D01*
X113120D01*
Y478481D01*
X114089Y478882D01*
X114954Y479546D01*
X115618Y480411D01*
X116035Y481419D01*
X116177Y482500D01*
X116035Y483581D01*
X115618Y484589D01*
X114954Y485454D01*
X114089Y486118D01*
X113081Y486535D01*
X112000Y486677D01*
D02*
G37*
G36*
X210421Y461500D02*
X207000D01*
Y458079D01*
X207532Y458149D01*
X208493Y458547D01*
X209319Y459181D01*
X209953Y460007D01*
X210351Y460968D01*
X210421Y461500D01*
D02*
G37*
G36*
X206000D02*
X202579D01*
X202649Y460968D01*
X203047Y460007D01*
X203681Y459181D01*
X204507Y458547D01*
X205468Y458149D01*
X206000Y458079D01*
Y461500D01*
D02*
G37*
G36*
X180855Y458063D02*
X177492D01*
Y454500D01*
X180855D01*
Y458063D01*
D02*
G37*
G36*
X419000Y457582D02*
X418073Y457460D01*
X417209Y457102D01*
X416467Y456533D01*
X415898Y455791D01*
X415540Y454927D01*
X415418Y454000D01*
X415540Y453073D01*
X415898Y452209D01*
X416467Y451467D01*
X417209Y450898D01*
X418073Y450540D01*
X419000Y450418D01*
X419927Y450540D01*
X420791Y450898D01*
X421533Y451467D01*
X422102Y452209D01*
X422460Y453073D01*
X422582Y454000D01*
X422460Y454927D01*
X422102Y455791D01*
X421533Y456533D01*
X420791Y457102D01*
X419927Y457460D01*
X419000Y457582D01*
D02*
G37*
G36*
X180855Y453500D02*
X177492D01*
Y449937D01*
X180855D01*
Y453500D01*
D02*
G37*
G36*
X294019Y450000D02*
X292505D01*
Y448570D01*
X294019D01*
Y450000D01*
D02*
G37*
G36*
X135878Y471315D02*
X126610D01*
Y462450D01*
X112280Y448120D01*
X109741D01*
X109586Y448493D01*
X109111Y449112D01*
X108493Y449586D01*
X107773Y449884D01*
X107000Y449986D01*
X106227Y449884D01*
X105507Y449586D01*
X104888Y449112D01*
X104414Y448493D01*
X104116Y447773D01*
X104014Y447000D01*
X104116Y446227D01*
X104414Y445507D01*
X104888Y444888D01*
X105507Y444414D01*
X106227Y444116D01*
X107000Y444014D01*
X107773Y444116D01*
X108493Y444414D01*
X109111Y444888D01*
X109586Y445507D01*
X109741Y445880D01*
X112744D01*
X113173Y445965D01*
X113536Y446208D01*
X127013Y459685D01*
X135878D01*
Y471315D01*
D02*
G37*
G36*
X220051Y465551D02*
X212949D01*
Y458449D01*
X215380D01*
Y445469D01*
X215465Y445040D01*
X215708Y444677D01*
X221208Y439177D01*
X221571Y438934D01*
X222000Y438849D01*
X251937D01*
X252366Y438934D01*
X252729Y439177D01*
X260179Y446627D01*
X260216Y446598D01*
X261302Y446148D01*
X262469Y445995D01*
X263634Y446148D01*
X264721Y446598D01*
X265654Y447315D01*
X266370Y448247D01*
X266820Y449334D01*
X266974Y450500D01*
X266820Y451666D01*
X266370Y452752D01*
X265654Y453686D01*
X264721Y454401D01*
X263634Y454851D01*
X262469Y455005D01*
X261302Y454851D01*
X260216Y454401D01*
X259283Y453686D01*
X258567Y452752D01*
X258117Y451666D01*
X257963Y450500D01*
X258117Y449334D01*
X258567Y448247D01*
X258595Y448211D01*
X251473Y441088D01*
X222464D01*
X217620Y445932D01*
Y458449D01*
X220051D01*
Y465551D01*
D02*
G37*
G36*
X250500Y455005D02*
X249334Y454851D01*
X248248Y454401D01*
X247314Y453686D01*
X246599Y452752D01*
X246148Y451666D01*
X245995Y450500D01*
X246148Y449334D01*
X246599Y448247D01*
X247314Y447315D01*
X248248Y446598D01*
X249334Y446148D01*
X250500Y445995D01*
X251666Y446148D01*
X252752Y446598D01*
X253686Y447315D01*
X254401Y448247D01*
X254852Y449334D01*
X255005Y450500D01*
X254852Y451666D01*
X254401Y452752D01*
X253686Y453686D01*
X252752Y454401D01*
X251666Y454851D01*
X250500Y455005D01*
D02*
G37*
G36*
X166055Y449986D02*
X165282Y449884D01*
X164562Y449586D01*
X163944Y449112D01*
X163469Y448493D01*
X163171Y447773D01*
X163069Y447000D01*
X163171Y446227D01*
X163469Y445507D01*
X163944Y444888D01*
X164562Y444414D01*
X165282Y444116D01*
X166055Y444014D01*
X166828Y444116D01*
X167548Y444414D01*
X168167Y444888D01*
X168641Y445507D01*
X168939Y446227D01*
X169041Y447000D01*
X168939Y447773D01*
X168641Y448493D01*
X168167Y449112D01*
X167548Y449586D01*
X166828Y449884D01*
X166055Y449986D01*
D02*
G37*
G36*
X419000Y447582D02*
X418073Y447460D01*
X417209Y447102D01*
X416467Y446533D01*
X415898Y445791D01*
X415540Y444927D01*
X415418Y444000D01*
X415540Y443073D01*
X415898Y442209D01*
X416467Y441467D01*
X417209Y440898D01*
X418073Y440540D01*
X419000Y440418D01*
X419927Y440540D01*
X420791Y440898D01*
X421533Y441467D01*
X422102Y442209D01*
X422460Y443073D01*
X422582Y444000D01*
X422460Y444927D01*
X422102Y445791D01*
X421533Y446533D01*
X420791Y447102D01*
X419927Y447460D01*
X419000Y447582D01*
D02*
G37*
G36*
X185219Y458063D02*
X181855D01*
Y454000D01*
Y449937D01*
X185219D01*
Y450338D01*
X192107D01*
Y452880D01*
X193536D01*
X197665Y448751D01*
X197481Y448309D01*
X197375Y447500D01*
X197481Y446691D01*
X197794Y445937D01*
X198290Y445290D01*
X198937Y444794D01*
X199380Y444610D01*
Y441964D01*
X195036Y437620D01*
X187891D01*
Y438422D01*
X180109D01*
Y434578D01*
X180996D01*
Y433061D01*
X181081Y432632D01*
X181324Y432269D01*
X196385Y417208D01*
X196748Y416965D01*
X197177Y416880D01*
X248110D01*
X248294Y416437D01*
X248790Y415790D01*
X249437Y415294D01*
X250191Y414981D01*
X251000Y414875D01*
X251809Y414981D01*
X252563Y415294D01*
X253210Y415790D01*
X253706Y416437D01*
X254019Y417191D01*
X254125Y418000D01*
X254019Y418809D01*
X253706Y419563D01*
X253210Y420210D01*
X252563Y420707D01*
X251809Y421019D01*
X251000Y421125D01*
X250191Y421019D01*
X249437Y420707D01*
X248790Y420210D01*
X248294Y419563D01*
X248110Y419120D01*
X197641D01*
X183236Y433525D01*
Y434578D01*
X187891D01*
Y435380D01*
X195500D01*
X195929Y435465D01*
X196292Y435708D01*
X201292Y440708D01*
X201535Y441071D01*
X201620Y441500D01*
Y444610D01*
X202063Y444794D01*
X202710Y445290D01*
X203206Y445937D01*
X203519Y446691D01*
X203625Y447500D01*
X203519Y448309D01*
X203206Y449063D01*
X202710Y449710D01*
X202063Y450207D01*
X201309Y450519D01*
X200500Y450625D01*
X199691Y450519D01*
X199249Y450335D01*
X194792Y454792D01*
X194429Y455035D01*
X194000Y455120D01*
X192107D01*
Y457662D01*
X185219D01*
Y458063D01*
D02*
G37*
G36*
X419000Y437582D02*
X418073Y437460D01*
X417209Y437102D01*
X416467Y436533D01*
X415898Y435791D01*
X415540Y434927D01*
X415418Y434000D01*
X415540Y433073D01*
X415898Y432209D01*
X416467Y431467D01*
X417209Y430898D01*
X418073Y430540D01*
X419000Y430418D01*
X419927Y430540D01*
X420791Y430898D01*
X421533Y431467D01*
X422102Y432209D01*
X422460Y433073D01*
X422582Y434000D01*
X422460Y434927D01*
X422102Y435791D01*
X421533Y436533D01*
X420791Y437102D01*
X419927Y437460D01*
X419000Y437582D01*
D02*
G37*
G36*
X282295Y431456D02*
X281364Y431333D01*
X280496Y430974D01*
X279751Y430402D01*
X279180Y429657D01*
X278898Y428978D01*
X260102D01*
X259820Y429657D01*
X259249Y430402D01*
X258504Y430974D01*
X257636Y431333D01*
X256705Y431456D01*
X255774Y431333D01*
X254906Y430974D01*
X254161Y430402D01*
X253589Y429657D01*
X253230Y428789D01*
X253107Y427858D01*
X253230Y426927D01*
X253589Y426059D01*
X254161Y425314D01*
X254906Y424743D01*
X255774Y424383D01*
X256705Y424261D01*
X257636Y424383D01*
X258504Y424743D01*
X259249Y425314D01*
X259820Y426059D01*
X260102Y426738D01*
X278898D01*
X279180Y426059D01*
X279751Y425314D01*
X280496Y424743D01*
X281364Y424383D01*
X282295Y424261D01*
X283226Y424383D01*
X284094Y424743D01*
X284839Y425314D01*
X285411Y426059D01*
X285692Y426738D01*
X301678D01*
X303172Y425245D01*
X303040Y424927D01*
X302918Y424000D01*
X303040Y423073D01*
X303398Y422209D01*
X303967Y421467D01*
X304709Y420898D01*
X305573Y420540D01*
X306500Y420418D01*
X307427Y420540D01*
X308291Y420898D01*
X309033Y421467D01*
X309602Y422209D01*
X309960Y423073D01*
X310082Y424000D01*
X309960Y424927D01*
X309602Y425791D01*
X309033Y426533D01*
X308291Y427102D01*
X307427Y427460D01*
X306500Y427582D01*
X305573Y427460D01*
X304709Y427102D01*
X304580Y427003D01*
X302934Y428650D01*
X302570Y428893D01*
X302142Y428978D01*
X285692D01*
X285411Y429657D01*
X284839Y430402D01*
X284094Y430974D01*
X283226Y431333D01*
X282295Y431456D01*
D02*
G37*
G36*
X419000Y427582D02*
X418073Y427460D01*
X417209Y427102D01*
X416467Y426533D01*
X415898Y425791D01*
X415540Y424927D01*
X415418Y424000D01*
X415540Y423073D01*
X415898Y422209D01*
X416467Y421467D01*
X417209Y420898D01*
X418073Y420540D01*
X419000Y420418D01*
X419927Y420540D01*
X420791Y420898D01*
X421533Y421467D01*
X422102Y422209D01*
X422460Y423073D01*
X422582Y424000D01*
X422460Y424927D01*
X422102Y425791D01*
X421533Y426533D01*
X420791Y427102D01*
X419927Y427460D01*
X419000Y427582D01*
D02*
G37*
G36*
X392500Y427721D02*
X391537Y427594D01*
X390640Y427222D01*
X389869Y426631D01*
X389278Y425860D01*
X388906Y424963D01*
X388779Y424000D01*
X388906Y423037D01*
X389278Y422140D01*
X389869Y421369D01*
X390640Y420778D01*
X391537Y420406D01*
X392500Y420279D01*
X393463Y420406D01*
X394360Y420778D01*
X395131Y421369D01*
X395722Y422140D01*
X396094Y423037D01*
X396221Y424000D01*
X396094Y424963D01*
X395722Y425860D01*
X395131Y426631D01*
X394360Y427222D01*
X393463Y427594D01*
X392500Y427721D01*
D02*
G37*
G36*
X310453Y417953D02*
X307000D01*
Y414500D01*
X310453D01*
Y417953D01*
D02*
G37*
G36*
X306000D02*
X302547D01*
Y414500D01*
X306000D01*
Y417953D01*
D02*
G37*
G36*
X282795Y414079D02*
Y410642D01*
X286232D01*
X286162Y411178D01*
X285762Y412143D01*
X285126Y412972D01*
X284297Y413608D01*
X283331Y414008D01*
X282795Y414079D01*
D02*
G37*
G36*
X281795D02*
X281259Y414008D01*
X280294Y413608D01*
X279465Y412972D01*
X278829Y412143D01*
X278429Y411178D01*
X278358Y410642D01*
X281795D01*
Y414079D01*
D02*
G37*
G36*
X260673Y414110D02*
X257205D01*
Y410642D01*
X260673D01*
Y414110D01*
D02*
G37*
G36*
X256205D02*
X252736D01*
Y410642D01*
X256205D01*
Y414110D01*
D02*
G37*
G36*
X245795Y414079D02*
Y410642D01*
X249232D01*
X249162Y411178D01*
X248762Y412143D01*
X248126Y412972D01*
X247297Y413608D01*
X246331Y414008D01*
X245795Y414079D01*
D02*
G37*
G36*
X244795D02*
X244259Y414008D01*
X243294Y413608D01*
X242465Y412972D01*
X241829Y412143D01*
X241429Y411178D01*
X241358Y410642D01*
X244795D01*
Y414079D01*
D02*
G37*
G36*
X223673Y414110D02*
X220205D01*
Y410642D01*
X223673D01*
Y414110D01*
D02*
G37*
G36*
X219205D02*
X215736D01*
Y410642D01*
X219205D01*
Y414110D01*
D02*
G37*
G36*
X419000Y417582D02*
X418073Y417460D01*
X417209Y417102D01*
X416467Y416533D01*
X415898Y415791D01*
X415540Y414927D01*
X415418Y414000D01*
X415540Y413073D01*
X415898Y412209D01*
X416467Y411467D01*
X417209Y410898D01*
X418073Y410540D01*
X419000Y410418D01*
X419927Y410540D01*
X420791Y410898D01*
X421533Y411467D01*
X422102Y412209D01*
X422460Y413073D01*
X422582Y414000D01*
X422460Y414927D01*
X422102Y415791D01*
X421533Y416533D01*
X420791Y417102D01*
X419927Y417460D01*
X419000Y417582D01*
D02*
G37*
G36*
X310453Y413500D02*
X307000D01*
Y410047D01*
X310453D01*
Y413500D01*
D02*
G37*
G36*
X306000D02*
X302547D01*
Y410047D01*
X306000D01*
Y413500D01*
D02*
G37*
G36*
X121051Y420551D02*
X113949D01*
Y413449D01*
X121051D01*
Y415880D01*
X156495D01*
X156527Y415380D01*
X156124Y415327D01*
X155308Y414989D01*
X154608Y414451D01*
X154070Y413751D01*
X153732Y412935D01*
X153617Y412059D01*
X153732Y411183D01*
X154070Y410367D01*
X154608Y409667D01*
X155308Y409129D01*
X156124Y408791D01*
X157000Y408676D01*
X157876Y408791D01*
X158692Y409129D01*
X159392Y409667D01*
X159930Y410367D01*
X160268Y411183D01*
X160383Y412059D01*
X160268Y412935D01*
X159930Y413751D01*
X159392Y414451D01*
X158692Y414989D01*
X157876Y415327D01*
X157473Y415380D01*
X157505Y415880D01*
X183091D01*
X185465Y413506D01*
X185228Y412935D01*
X185113Y412059D01*
X185228Y411183D01*
X185566Y410367D01*
X186104Y409667D01*
X186804Y409129D01*
X187620Y408791D01*
X188496Y408676D01*
X189372Y408791D01*
X190188Y409129D01*
X190888Y409667D01*
X191426Y410367D01*
X191764Y411183D01*
X191879Y412059D01*
X191764Y412935D01*
X191426Y413751D01*
X190888Y414451D01*
X190188Y414989D01*
X189372Y415327D01*
X188496Y415442D01*
X187620Y415327D01*
X187049Y415090D01*
X184347Y417792D01*
X183984Y418035D01*
X183555Y418120D01*
X121051D01*
Y420551D01*
D02*
G37*
G36*
X286232Y409642D02*
X282795D01*
Y406205D01*
X283331Y406275D01*
X284297Y406675D01*
X285126Y407311D01*
X285762Y408140D01*
X286162Y409106D01*
X286232Y409642D01*
D02*
G37*
G36*
X281795D02*
X278358D01*
X278429Y409106D01*
X278829Y408140D01*
X279465Y407311D01*
X280294Y406675D01*
X281259Y406275D01*
X281795Y406205D01*
Y409642D01*
D02*
G37*
G36*
X249232D02*
X245795D01*
Y406205D01*
X246331Y406275D01*
X247297Y406675D01*
X248126Y407311D01*
X248762Y408140D01*
X249162Y409106D01*
X249232Y409642D01*
D02*
G37*
G36*
X244795D02*
X241358D01*
X241429Y409106D01*
X241829Y408140D01*
X242465Y407311D01*
X243294Y406675D01*
X244259Y406275D01*
X244795Y406205D01*
Y409642D01*
D02*
G37*
G36*
X260673D02*
X257205D01*
Y406173D01*
X260673D01*
Y409642D01*
D02*
G37*
G36*
X256205D02*
X252736D01*
Y406173D01*
X256205D01*
Y409642D01*
D02*
G37*
G36*
X223673D02*
X220205D01*
Y406173D01*
X223673D01*
Y409642D01*
D02*
G37*
G36*
X219205D02*
X215736D01*
Y406173D01*
X219205D01*
Y409642D01*
D02*
G37*
G36*
X227453Y401953D02*
X224000D01*
Y398500D01*
X227453D01*
Y401953D01*
D02*
G37*
G36*
X223000D02*
X219547D01*
Y398500D01*
X223000D01*
Y401953D01*
D02*
G37*
G36*
X227453Y397500D02*
X224000D01*
Y394047D01*
X227453D01*
Y397500D01*
D02*
G37*
G36*
X223000D02*
X219547D01*
Y394047D01*
X223000D01*
Y397500D01*
D02*
G37*
G36*
X117500Y391054D02*
X116573Y390932D01*
X115709Y390574D01*
X114967Y390005D01*
X114398Y389263D01*
X114040Y388400D01*
X113918Y387472D01*
X114040Y386545D01*
X114398Y385682D01*
X114967Y384940D01*
X115709Y384370D01*
X116573Y384013D01*
X117500Y383891D01*
X118427Y384013D01*
X119291Y384370D01*
X120033Y384940D01*
X120602Y385682D01*
X120960Y386545D01*
X121082Y387472D01*
X120960Y388400D01*
X120602Y389263D01*
X120033Y390005D01*
X119291Y390574D01*
X118427Y390932D01*
X117500Y391054D01*
D02*
G37*
G36*
X188496Y387883D02*
X187620Y387768D01*
X186804Y387430D01*
X186104Y386892D01*
X185566Y386192D01*
X185228Y385376D01*
X185113Y384500D01*
X185228Y383624D01*
X185465Y383053D01*
X121253Y318841D01*
X120791Y319032D01*
Y320307D01*
X113886D01*
Y313402D01*
X120791D01*
Y315734D01*
X120850D01*
X121279Y315820D01*
X121642Y316062D01*
X187049Y381469D01*
X187620Y381232D01*
X188496Y381117D01*
X189372Y381232D01*
X190188Y381570D01*
X190888Y382108D01*
X191426Y382808D01*
X191764Y383624D01*
X191879Y384500D01*
X191764Y385376D01*
X191426Y386192D01*
X190888Y386892D01*
X190188Y387430D01*
X189372Y387768D01*
X188496Y387883D01*
D02*
G37*
G36*
X157000D02*
X156124Y387768D01*
X155308Y387430D01*
X154608Y386892D01*
X154070Y386192D01*
X153732Y385376D01*
X153617Y384500D01*
X153732Y383624D01*
X154070Y382808D01*
X154608Y382108D01*
X155308Y381570D01*
X156124Y381232D01*
X157000Y381117D01*
X157876Y381232D01*
X158692Y381570D01*
X159392Y382108D01*
X159930Y382808D01*
X160268Y383624D01*
X160383Y384500D01*
X160268Y385376D01*
X159930Y386192D01*
X159392Y386892D01*
X158692Y387430D01*
X157876Y387768D01*
X157000Y387883D01*
D02*
G37*
G36*
X314551Y385551D02*
X307449D01*
Y378449D01*
X314551D01*
Y385551D01*
D02*
G37*
G36*
X294953Y379953D02*
X291500D01*
Y376500D01*
X294953D01*
Y379953D01*
D02*
G37*
G36*
X290500D02*
X287047D01*
Y376500D01*
X290500D01*
Y379953D01*
D02*
G37*
G36*
X311500Y375921D02*
Y372500D01*
X314921D01*
X314851Y373032D01*
X314453Y373993D01*
X313819Y374819D01*
X312993Y375453D01*
X312032Y375851D01*
X311500Y375921D01*
D02*
G37*
G36*
X310500D02*
X309968Y375851D01*
X309007Y375453D01*
X308181Y374819D01*
X307547Y373993D01*
X307149Y373032D01*
X307079Y372500D01*
X310500D01*
Y375921D01*
D02*
G37*
G36*
X281000Y379582D02*
X280073Y379460D01*
X279209Y379102D01*
X278467Y378533D01*
X277898Y377791D01*
X277540Y376927D01*
X277418Y376000D01*
X277540Y375073D01*
X277898Y374209D01*
X278467Y373467D01*
X279209Y372898D01*
X280073Y372540D01*
X281000Y372418D01*
X281927Y372540D01*
X282791Y372898D01*
X283533Y373467D01*
X284102Y374209D01*
X284460Y375073D01*
X284582Y376000D01*
X284460Y376927D01*
X284102Y377791D01*
X283533Y378533D01*
X282791Y379102D01*
X281927Y379460D01*
X281000Y379582D01*
D02*
G37*
G36*
X294953Y375500D02*
X291500D01*
Y372047D01*
X294953D01*
Y375500D01*
D02*
G37*
G36*
X290500D02*
X287047D01*
Y372047D01*
X290500D01*
Y375500D01*
D02*
G37*
G36*
X372500Y373921D02*
Y370500D01*
X375921D01*
X375851Y371032D01*
X375453Y371993D01*
X374819Y372819D01*
X373993Y373453D01*
X373032Y373851D01*
X372500Y373921D01*
D02*
G37*
G36*
X255000Y374060D02*
Y370500D01*
X258560D01*
X258485Y371068D01*
X258073Y372063D01*
X257417Y372917D01*
X256563Y373573D01*
X255568Y373985D01*
X255000Y374060D01*
D02*
G37*
G36*
X254000D02*
X253432Y373985D01*
X252437Y373573D01*
X251583Y372917D01*
X250927Y372063D01*
X250515Y371068D01*
X250440Y370500D01*
X254000D01*
Y374060D01*
D02*
G37*
G36*
X371500Y373921D02*
X370968Y373851D01*
X370007Y373453D01*
X369181Y372819D01*
X368547Y371993D01*
X368149Y371032D01*
X368079Y370500D01*
X371500D01*
Y373921D01*
D02*
G37*
G36*
X314921Y371500D02*
X311500D01*
Y368079D01*
X312032Y368149D01*
X312993Y368547D01*
X313819Y369181D01*
X314453Y370007D01*
X314851Y370968D01*
X314921Y371500D01*
D02*
G37*
G36*
X310500D02*
X307079D01*
X307149Y370968D01*
X307547Y370007D01*
X308181Y369181D01*
X309007Y368547D01*
X309968Y368149D01*
X310500Y368079D01*
Y371500D01*
D02*
G37*
G36*
X375921Y369500D02*
X372500D01*
Y366079D01*
X373032Y366149D01*
X373993Y366547D01*
X374819Y367181D01*
X375453Y368007D01*
X375851Y368968D01*
X375921Y369500D01*
D02*
G37*
G36*
X371500D02*
X368079D01*
X368149Y368968D01*
X368547Y368007D01*
X369181Y367181D01*
X370007Y366547D01*
X370968Y366149D01*
X371500Y366079D01*
Y369500D01*
D02*
G37*
G36*
X258560D02*
X255000D01*
Y365940D01*
X255568Y366015D01*
X256563Y366427D01*
X257417Y367083D01*
X258073Y367937D01*
X258485Y368932D01*
X258560Y369500D01*
D02*
G37*
G36*
X254000D02*
X250440D01*
X250515Y368932D01*
X250927Y367937D01*
X251583Y367083D01*
X252437Y366427D01*
X253432Y366015D01*
X254000Y365940D01*
Y369500D01*
D02*
G37*
G36*
X243500Y401582D02*
X242573Y401460D01*
X241709Y401102D01*
X240967Y400533D01*
X240398Y399791D01*
X240040Y398927D01*
X239918Y398000D01*
X240040Y397073D01*
X240398Y396209D01*
X240967Y395467D01*
X241709Y394898D01*
X242573Y394540D01*
X243500Y394418D01*
X244427Y394540D01*
X245098Y394818D01*
X250208Y389708D01*
X250571Y389465D01*
X251000Y389380D01*
X296110D01*
X296294Y388937D01*
X296790Y388290D01*
X297437Y387794D01*
X297880Y387610D01*
Y374000D01*
X297965Y373571D01*
X298208Y373208D01*
X307818Y363598D01*
X307540Y362927D01*
X307418Y362000D01*
X307540Y361073D01*
X307818Y360402D01*
X303708Y356292D01*
X303465Y355929D01*
X303380Y355500D01*
Y307500D01*
X303465Y307071D01*
X303708Y306708D01*
X307818Y302598D01*
X307540Y301927D01*
X307418Y301000D01*
X307540Y300073D01*
X307898Y299209D01*
X308467Y298467D01*
X309209Y297898D01*
X310073Y297540D01*
X311000Y297418D01*
X311927Y297540D01*
X312791Y297898D01*
X313533Y298467D01*
X314102Y299209D01*
X314460Y300073D01*
X314582Y301000D01*
X314460Y301927D01*
X314102Y302791D01*
X313533Y303533D01*
X312791Y304102D01*
X311927Y304460D01*
X311000Y304582D01*
X310073Y304460D01*
X309402Y304182D01*
X305620Y307964D01*
Y355036D01*
X309402Y358818D01*
X310073Y358540D01*
X311000Y358418D01*
X311927Y358540D01*
X312791Y358898D01*
X313533Y359467D01*
X314102Y360209D01*
X314460Y361073D01*
X314582Y362000D01*
X314460Y362927D01*
X314102Y363791D01*
X313533Y364533D01*
X312791Y365102D01*
X311927Y365460D01*
X311000Y365582D01*
X310073Y365460D01*
X309402Y365182D01*
X300120Y374464D01*
Y387610D01*
X300563Y387794D01*
X301210Y388290D01*
X301706Y388937D01*
X302019Y389691D01*
X302125Y390500D01*
X302019Y391309D01*
X301706Y392063D01*
X301210Y392710D01*
X300563Y393206D01*
X299809Y393519D01*
X299000Y393625D01*
X298191Y393519D01*
X297437Y393206D01*
X296790Y392710D01*
X296294Y392063D01*
X296110Y391620D01*
X251464D01*
X246682Y396402D01*
X246960Y397073D01*
X247082Y398000D01*
X246960Y398927D01*
X246602Y399791D01*
X246033Y400533D01*
X245291Y401102D01*
X244427Y401460D01*
X243500Y401582D01*
D02*
G37*
G36*
X372000Y363582D02*
X371073Y363460D01*
X370209Y363102D01*
X369467Y362533D01*
X368898Y361791D01*
X368540Y360927D01*
X368418Y360000D01*
X368540Y359073D01*
X368898Y358209D01*
X369467Y357467D01*
X370209Y356898D01*
X371073Y356540D01*
X372000Y356418D01*
X372927Y356540D01*
X373791Y356898D01*
X374533Y357467D01*
X375102Y358209D01*
X375460Y359073D01*
X375582Y360000D01*
X375460Y360927D01*
X375102Y361791D01*
X374533Y362533D01*
X373791Y363102D01*
X372927Y363460D01*
X372000Y363582D01*
D02*
G37*
G36*
X285161Y350204D02*
Y346882D01*
X288483D01*
X288417Y347388D01*
X288028Y348326D01*
X287410Y349131D01*
X286605Y349749D01*
X285668Y350137D01*
X285161Y350204D01*
D02*
G37*
G36*
X284161D02*
X283655Y350137D01*
X282718Y349749D01*
X281912Y349131D01*
X281295Y348326D01*
X280906Y347388D01*
X280840Y346882D01*
X284161D01*
Y350204D01*
D02*
G37*
G36*
X288483Y345882D02*
X285161D01*
Y342560D01*
X285668Y342627D01*
X286605Y343015D01*
X287410Y343633D01*
X288028Y344438D01*
X288417Y345376D01*
X288483Y345882D01*
D02*
G37*
G36*
X284161D02*
X280840D01*
X280906Y345376D01*
X281295Y344438D01*
X281912Y343633D01*
X282718Y343015D01*
X283655Y342627D01*
X284161Y342560D01*
Y345882D01*
D02*
G37*
G36*
X229063Y333508D02*
X225500D01*
Y330145D01*
X229063D01*
Y333508D01*
D02*
G37*
G36*
X224500D02*
X220937D01*
Y330145D01*
X224500D01*
Y333508D01*
D02*
G37*
G36*
X265732Y336063D02*
X261000D01*
Y327689D01*
X265732D01*
Y336063D01*
D02*
G37*
G36*
X260000D02*
X255268D01*
Y327689D01*
X260000D01*
Y336063D01*
D02*
G37*
G36*
X265732Y326689D02*
X261000D01*
Y318315D01*
X265732D01*
Y326689D01*
D02*
G37*
G36*
X260000D02*
X255268D01*
Y318315D01*
X260000D01*
Y326689D01*
D02*
G37*
G36*
X314551Y324551D02*
X307449D01*
Y317449D01*
X314551D01*
Y324551D01*
D02*
G37*
G36*
X311500Y314921D02*
Y311500D01*
X314921D01*
X314851Y312032D01*
X314453Y312993D01*
X313819Y313819D01*
X312993Y314453D01*
X312032Y314851D01*
X311500Y314921D01*
D02*
G37*
G36*
X310500D02*
X309968Y314851D01*
X309007Y314453D01*
X308181Y313819D01*
X307547Y312993D01*
X307149Y312032D01*
X307079Y311500D01*
X310500D01*
Y314921D01*
D02*
G37*
G36*
X237669Y312417D02*
X235811D01*
Y310500D01*
X237669D01*
Y312417D01*
D02*
G37*
G36*
X233500Y401582D02*
X232573Y401460D01*
X231709Y401102D01*
X230967Y400533D01*
X230398Y399791D01*
X230040Y398927D01*
X229918Y398000D01*
X230040Y397073D01*
X230398Y396209D01*
X230967Y395467D01*
X231709Y394898D01*
X232573Y394540D01*
X233500Y394418D01*
X234427Y394540D01*
X235098Y394818D01*
X254708Y375208D01*
X255071Y374965D01*
X255500Y374880D01*
X267620D01*
X267898Y374209D01*
X268467Y373467D01*
X269209Y372898D01*
X269880Y372620D01*
Y312964D01*
X265793Y308876D01*
X265331Y309068D01*
Y309283D01*
X255669D01*
Y302620D01*
X238710D01*
X238518Y303082D01*
X240792Y305356D01*
X241035Y305719D01*
X241120Y306147D01*
Y366000D01*
X241035Y366429D01*
X240792Y366792D01*
X239287Y368297D01*
X239594Y369037D01*
X239721Y370000D01*
X239594Y370963D01*
X239222Y371860D01*
X238631Y372631D01*
X237860Y373222D01*
X236963Y373594D01*
X236000Y373721D01*
X235037Y373594D01*
X234140Y373222D01*
X233369Y372631D01*
X232778Y371860D01*
X232406Y370963D01*
X232279Y370000D01*
X232406Y369037D01*
X232778Y368140D01*
X233369Y367369D01*
X234140Y366778D01*
X235037Y366406D01*
X236000Y366279D01*
X236963Y366406D01*
X237703Y366713D01*
X238880Y365536D01*
Y306611D01*
X235691Y303422D01*
X232714D01*
Y307181D01*
X232953Y307583D01*
X234811D01*
Y310000D01*
Y312417D01*
X232953D01*
Y312016D01*
X229732D01*
Y307984D01*
X230475D01*
Y303422D01*
X229493D01*
Y299578D01*
X230333D01*
Y293760D01*
X229626D01*
Y288690D01*
X229126Y288483D01*
X227279Y290329D01*
Y293760D01*
X226620D01*
Y318893D01*
X228662D01*
Y325781D01*
X229063D01*
Y329145D01*
X225000D01*
X220937D01*
Y325781D01*
X221338D01*
Y323120D01*
X215007D01*
Y323922D01*
X210352D01*
Y361768D01*
X214796Y366213D01*
X215537Y365906D01*
X216500Y365779D01*
X217463Y365906D01*
X218360Y366278D01*
X219131Y366869D01*
X219722Y367640D01*
X220094Y368537D01*
X220221Y369500D01*
X220094Y370463D01*
X219722Y371360D01*
X219131Y372131D01*
X218360Y372722D01*
X217463Y373094D01*
X216500Y373221D01*
X215537Y373094D01*
X214640Y372722D01*
X213869Y372131D01*
X213278Y371360D01*
X212906Y370463D01*
X212779Y369500D01*
X212906Y368537D01*
X213213Y367796D01*
X208440Y363024D01*
X208197Y362660D01*
X208112Y362232D01*
Y323922D01*
X207225D01*
Y320078D01*
X215007D01*
Y320880D01*
X221338D01*
Y318893D01*
X224380D01*
Y293760D01*
X223721D01*
Y290329D01*
X222237Y288846D01*
X221776Y289038D01*
Y290102D01*
X220094D01*
Y287043D01*
X221309D01*
Y278201D01*
X221499Y277743D01*
X223861Y275381D01*
X224319Y275191D01*
X226681D01*
X227139Y275381D01*
X229501Y277743D01*
X229691Y278201D01*
Y287333D01*
X229691Y287445D01*
X229918Y287445D01*
X233185D01*
Y293760D01*
X232573D01*
Y299578D01*
X237275D01*
Y300380D01*
X255669D01*
Y292339D01*
X259380D01*
Y280780D01*
X259465Y280351D01*
X259708Y279988D01*
X281555Y258141D01*
X281298Y257520D01*
X281179Y256618D01*
X281298Y255717D01*
X281645Y254877D01*
X282199Y254156D01*
X282920Y253602D01*
X283760Y253254D01*
X284661Y253136D01*
X285563Y253254D01*
X286403Y253602D01*
X287124Y254156D01*
X287677Y254877D01*
X287935Y255498D01*
X295118D01*
X295547Y255583D01*
X295910Y255826D01*
X305902Y265818D01*
X306573Y265540D01*
X307500Y265418D01*
X308427Y265540D01*
X309291Y265898D01*
X310033Y266467D01*
X310602Y267209D01*
X310960Y268073D01*
X311082Y269000D01*
X310960Y269927D01*
X310602Y270791D01*
X310033Y271533D01*
X309291Y272102D01*
X308427Y272460D01*
X307500Y272582D01*
X306573Y272460D01*
X305709Y272102D01*
X304967Y271533D01*
X304398Y270791D01*
X304040Y269927D01*
X303918Y269000D01*
X304040Y268073D01*
X304318Y267402D01*
X294654Y257738D01*
X287935D01*
X287677Y258359D01*
X287124Y259081D01*
X286403Y259634D01*
X285563Y259982D01*
X284661Y260101D01*
X283760Y259982D01*
X283139Y259725D01*
X261620Y281243D01*
Y292339D01*
X265331D01*
Y305247D01*
X271792Y311708D01*
X272035Y312071D01*
X272120Y312500D01*
Y372620D01*
X272791Y372898D01*
X273533Y373467D01*
X274102Y374209D01*
X274460Y375073D01*
X274582Y376000D01*
X274460Y376927D01*
X274102Y377791D01*
X273533Y378533D01*
X272791Y379102D01*
X271927Y379460D01*
X271000Y379582D01*
X270073Y379460D01*
X269209Y379102D01*
X268467Y378533D01*
X267898Y377791D01*
X267620Y377120D01*
X255964D01*
X236682Y396402D01*
X236960Y397073D01*
X237082Y398000D01*
X236960Y398927D01*
X236602Y399791D01*
X236033Y400533D01*
X235291Y401102D01*
X234427Y401460D01*
X233500Y401582D01*
D02*
G37*
G36*
X237669Y309500D02*
X235811D01*
Y307583D01*
X237669D01*
Y309500D01*
D02*
G37*
G36*
X314921Y310500D02*
X311500D01*
Y307079D01*
X312032Y307149D01*
X312993Y307547D01*
X313819Y308181D01*
X314453Y309007D01*
X314851Y309968D01*
X314921Y310500D01*
D02*
G37*
G36*
X310500D02*
X307079D01*
X307149Y309968D01*
X307547Y309007D01*
X308181Y308181D01*
X309007Y307547D01*
X309968Y307149D01*
X310500Y307079D01*
Y310500D01*
D02*
G37*
G36*
X333000Y427221D02*
X332037Y427094D01*
X331140Y426722D01*
X330369Y426131D01*
X329778Y425360D01*
X329406Y424463D01*
X329279Y423500D01*
X329406Y422537D01*
X329778Y421640D01*
X330369Y420869D01*
X331140Y420278D01*
X331880Y419971D01*
Y312000D01*
X331965Y311571D01*
X332208Y311208D01*
X334665Y308752D01*
X334481Y308309D01*
X334375Y307500D01*
X334481Y306691D01*
X334794Y305937D01*
X335290Y305290D01*
X335937Y304794D01*
X336691Y304481D01*
X337500Y304375D01*
X338309Y304481D01*
X339063Y304794D01*
X339710Y305290D01*
X340206Y305937D01*
X340519Y306691D01*
X340625Y307500D01*
X340519Y308309D01*
X340206Y309063D01*
X339710Y309710D01*
X339063Y310206D01*
X338309Y310519D01*
X337500Y310625D01*
X336691Y310519D01*
X336248Y310335D01*
X334120Y312464D01*
Y419971D01*
X334860Y420278D01*
X335631Y420869D01*
X336222Y421640D01*
X336594Y422537D01*
X336721Y423500D01*
X336594Y424463D01*
X336222Y425360D01*
X335631Y426131D01*
X334860Y426722D01*
X333963Y427094D01*
X333000Y427221D01*
D02*
G37*
G36*
X372500Y296921D02*
Y293500D01*
X375921D01*
X375851Y294032D01*
X375453Y294993D01*
X374819Y295819D01*
X373993Y296453D01*
X373032Y296851D01*
X372500Y296921D01*
D02*
G37*
G36*
X371500D02*
X370968Y296851D01*
X370007Y296453D01*
X369181Y295819D01*
X368547Y294993D01*
X368149Y294032D01*
X368079Y293500D01*
X371500D01*
Y296921D01*
D02*
G37*
G36*
X221776Y294161D02*
X220094D01*
Y291102D01*
X221776D01*
Y294161D01*
D02*
G37*
G36*
X219094D02*
X217413D01*
Y291102D01*
X219094D01*
Y294161D01*
D02*
G37*
G36*
X375921Y292500D02*
X372500D01*
Y289079D01*
X373032Y289149D01*
X373993Y289547D01*
X374819Y290181D01*
X375453Y291007D01*
X375851Y291968D01*
X375921Y292500D01*
D02*
G37*
G36*
X371500D02*
X368079D01*
X368149Y291968D01*
X368547Y291007D01*
X369181Y290181D01*
X370007Y289547D01*
X370968Y289149D01*
X371500Y289079D01*
Y292500D01*
D02*
G37*
G36*
X311000Y294582D02*
X310073Y294460D01*
X309209Y294102D01*
X308467Y293533D01*
X307898Y292791D01*
X307540Y291927D01*
X307418Y291000D01*
X307540Y290073D01*
X307898Y289209D01*
X308467Y288467D01*
X309209Y287898D01*
X310073Y287540D01*
X311000Y287418D01*
X311927Y287540D01*
X312791Y287898D01*
X313533Y288467D01*
X314102Y289209D01*
X314460Y290073D01*
X314582Y291000D01*
X314460Y291927D01*
X314102Y292791D01*
X313533Y293533D01*
X312791Y294102D01*
X311927Y294460D01*
X311000Y294582D01*
D02*
G37*
G36*
X219094Y290102D02*
X217413D01*
Y287043D01*
X219094D01*
Y290102D01*
D02*
G37*
G36*
X117339Y289628D02*
X116437Y289510D01*
X115597Y289162D01*
X114876Y288608D01*
X114323Y287887D01*
X113975Y287047D01*
X113856Y286146D01*
X113975Y285244D01*
X114323Y284404D01*
X114876Y283683D01*
X115597Y283130D01*
X116437Y282782D01*
X117339Y282663D01*
X118240Y282782D01*
X119080Y283130D01*
X119801Y283683D01*
X120354Y284404D01*
X120702Y285244D01*
X120821Y286146D01*
X120702Y287047D01*
X120354Y287887D01*
X119801Y288608D01*
X119080Y289162D01*
X118240Y289510D01*
X117339Y289628D01*
D02*
G37*
G36*
X372000Y286582D02*
X371073Y286460D01*
X370209Y286102D01*
X369467Y285533D01*
X368898Y284791D01*
X368540Y283927D01*
X368418Y283000D01*
X368540Y282073D01*
X368898Y281209D01*
X369467Y280467D01*
X370209Y279898D01*
X371073Y279540D01*
X372000Y279418D01*
X372927Y279540D01*
X373791Y279898D01*
X374533Y280467D01*
X375102Y281209D01*
X375460Y282073D01*
X375582Y283000D01*
X375460Y283927D01*
X375102Y284791D01*
X374533Y285533D01*
X373791Y286102D01*
X372927Y286460D01*
X372000Y286582D01*
D02*
G37*
G36*
X318000Y272921D02*
Y269500D01*
X321421D01*
X321351Y270032D01*
X320953Y270993D01*
X320319Y271819D01*
X319493Y272453D01*
X318532Y272851D01*
X318000Y272921D01*
D02*
G37*
G36*
X317000D02*
X316468Y272851D01*
X315507Y272453D01*
X314681Y271819D01*
X314047Y270993D01*
X313649Y270032D01*
X313579Y269500D01*
X317000D01*
Y272921D01*
D02*
G37*
G36*
X372000Y276582D02*
X371073Y276460D01*
X370209Y276102D01*
X369467Y275533D01*
X368898Y274791D01*
X368540Y273927D01*
X368418Y273000D01*
X368540Y272073D01*
X368898Y271209D01*
X369467Y270467D01*
X370209Y269898D01*
X371073Y269540D01*
X372000Y269418D01*
X372927Y269540D01*
X373791Y269898D01*
X374533Y270467D01*
X375102Y271209D01*
X375460Y272073D01*
X375582Y273000D01*
X375460Y273927D01*
X375102Y274791D01*
X374533Y275533D01*
X373791Y276102D01*
X372927Y276460D01*
X372000Y276582D01*
D02*
G37*
G36*
X327500Y272582D02*
X326573Y272460D01*
X325709Y272102D01*
X324967Y271533D01*
X324398Y270791D01*
X324040Y269927D01*
X323918Y269000D01*
X324040Y268073D01*
X324398Y267209D01*
X324967Y266467D01*
X325709Y265898D01*
X326573Y265540D01*
X327500Y265418D01*
X328427Y265540D01*
X329291Y265898D01*
X330033Y266467D01*
X330602Y267209D01*
X330960Y268073D01*
X331082Y269000D01*
X330960Y269927D01*
X330602Y270791D01*
X330033Y271533D01*
X329291Y272102D01*
X328427Y272460D01*
X327500Y272582D01*
D02*
G37*
G36*
X321421Y268500D02*
X318000D01*
Y265079D01*
X318532Y265149D01*
X319493Y265547D01*
X320319Y266181D01*
X320953Y267007D01*
X321351Y267968D01*
X321421Y268500D01*
D02*
G37*
G36*
X317000D02*
X313579D01*
X313649Y267968D01*
X314047Y267007D01*
X314681Y266181D01*
X315507Y265547D01*
X316468Y265149D01*
X317000Y265079D01*
Y268500D01*
D02*
G37*
G36*
X321953Y251953D02*
X318500D01*
Y248500D01*
X321953D01*
Y251953D01*
D02*
G37*
G36*
X317500D02*
X314047D01*
Y248500D01*
X317500D01*
Y251953D01*
D02*
G37*
G36*
X107000Y252129D02*
X106061Y252006D01*
X105185Y251643D01*
X104434Y251066D01*
X103857Y250315D01*
X103494Y249439D01*
X103371Y248500D01*
X103494Y247561D01*
X103857Y246685D01*
X104434Y245934D01*
X105185Y245357D01*
X106061Y244994D01*
X107000Y244871D01*
X107939Y244994D01*
X108815Y245357D01*
X109566Y245934D01*
X110143Y246685D01*
X110506Y247561D01*
X110629Y248500D01*
X110506Y249439D01*
X110143Y250315D01*
X109566Y251066D01*
X108815Y251643D01*
X107939Y252006D01*
X107000Y252129D01*
D02*
G37*
G36*
X338000Y251582D02*
X337073Y251460D01*
X336209Y251102D01*
X335467Y250533D01*
X334898Y249791D01*
X334540Y248927D01*
X334418Y248000D01*
X334540Y247073D01*
X334898Y246209D01*
X335467Y245467D01*
X336209Y244898D01*
X337073Y244540D01*
X338000Y244418D01*
X338927Y244540D01*
X339791Y244898D01*
X340533Y245467D01*
X341102Y246209D01*
X341460Y247073D01*
X341582Y248000D01*
X341460Y248927D01*
X341102Y249791D01*
X340533Y250533D01*
X339791Y251102D01*
X338927Y251460D01*
X338000Y251582D01*
D02*
G37*
G36*
X321953Y247500D02*
X318500D01*
Y244047D01*
X321953D01*
Y247500D01*
D02*
G37*
G36*
X317500D02*
X314047D01*
Y244047D01*
X317500D01*
Y247500D01*
D02*
G37*
G36*
X426500Y250129D02*
X425561Y250006D01*
X424685Y249643D01*
X423934Y249066D01*
X423357Y248315D01*
X422994Y247439D01*
X422871Y246500D01*
X422994Y245561D01*
X423357Y244685D01*
X423934Y243934D01*
X424685Y243357D01*
X425561Y242994D01*
X426500Y242871D01*
X427439Y242994D01*
X428315Y243357D01*
X429066Y243934D01*
X429643Y244685D01*
X430006Y245561D01*
X430129Y246500D01*
X430006Y247439D01*
X429643Y248315D01*
X429066Y249066D01*
X428315Y249643D01*
X427439Y250006D01*
X426500Y250129D01*
D02*
G37*
%LPD*%
G36*
X229043Y287650D02*
Y278201D01*
X226681Y275839D01*
X224319D01*
X221957Y278201D01*
Y287650D01*
X224319Y290012D01*
X226681D01*
X229043Y287650D01*
D02*
G37*
D16*
X374000Y467000D02*
X386500Y479500D01*
X374000Y430384D02*
Y467000D01*
X348000Y451000D02*
X382500Y485500D01*
X348000Y429884D02*
Y451000D01*
X368000Y490500D02*
X368500D01*
X360000Y498500D02*
X368000Y490500D01*
X348000Y426031D02*
X353916Y420116D01*
X348000Y426031D02*
Y426116D01*
X353916Y420116D02*
X358616D01*
X254500Y397000D02*
X305500D01*
X253500Y398000D02*
X254500Y397000D01*
X317000Y358000D02*
Y385500D01*
X305500Y397000D02*
X317000Y385500D01*
X333000Y312000D02*
Y423500D01*
X342500Y404151D02*
X342500Y285000D01*
X356500Y271000D01*
X342500Y253500D02*
Y275500D01*
X319402Y298598D02*
X342500Y275500D01*
X319402Y298598D02*
Y430598D01*
X333000Y312000D02*
X337500Y307500D01*
X352000Y360000D02*
X372000Y380000D01*
X352000Y283000D02*
Y360000D01*
X371500Y410420D02*
Y410551D01*
X380449Y419500D01*
X380547D01*
X379000Y406000D02*
X383500Y410500D01*
Y419500D01*
Y438500D01*
X367384Y420000D02*
X373092Y425708D01*
X373176D02*
X373750Y426281D01*
Y426366D01*
Y420250D02*
Y426281D01*
Y426366D02*
X374000Y426616D01*
X348000Y420000D02*
Y426031D01*
X373092Y425708D02*
X373176D01*
X362500Y420000D02*
X367384D01*
X358616Y420116D02*
X358732Y420000D01*
X342500Y404151D02*
Y449500D01*
X383500Y438500D02*
X419000Y474000D01*
X299000Y441500D02*
X299098D01*
X306500Y434098D01*
Y434000D02*
Y434098D01*
X306000Y424000D02*
X306500D01*
X302142Y427858D02*
X306000Y424000D01*
X306500Y443500D02*
Y444000D01*
Y443500D02*
X319402Y430598D01*
X323449Y394949D02*
Y437000D01*
X306500Y453949D02*
Y454000D01*
Y453949D02*
X323449Y437000D01*
X302000Y455000D02*
Y479500D01*
X297500Y450500D02*
X302000Y455000D01*
Y479500D02*
X306500Y484000D01*
X286500Y458000D02*
X298000Y469500D01*
Y485500D01*
X306500Y494000D01*
X216616Y498500D02*
X360000D01*
X206500Y488384D02*
X216616Y498500D01*
X299000Y374000D02*
Y390500D01*
Y374000D02*
X311000Y362000D01*
X251000Y390500D02*
X299000D01*
X243500Y398000D02*
X251000Y390500D01*
X304500Y307500D02*
X311000Y301000D01*
X304500Y355500D02*
X311000Y362000D01*
X304500Y307500D02*
Y355500D01*
X310000Y383000D02*
X311000Y384000D01*
Y352000D02*
X317000Y358000D01*
X286476Y436524D02*
Y450972D01*
X295949Y441500D01*
X286476Y450972D02*
Y451000D01*
X295949Y441500D02*
X296047D01*
X296000Y453500D02*
X297500Y452000D01*
X284500Y453500D02*
X296000D01*
X283524Y452524D02*
X284500Y453500D01*
X276524Y444000D02*
X283524Y451000D01*
X261437Y444000D02*
X276524D01*
X255807Y438370D02*
X261437Y444000D01*
X255807Y438370D02*
Y438370D01*
X286476Y436524D02*
X286500Y436500D01*
X286250Y436750D02*
X286476Y436524D01*
X267250Y436750D02*
X286250D01*
X246000Y469000D02*
Y480189D01*
X241000Y485189D02*
X246000Y480189D01*
X372500Y379000D02*
X373000Y379500D01*
X233500Y398000D02*
X255500Y376000D01*
X271000D01*
X209232Y362232D02*
X216500Y369500D01*
X209232Y322000D02*
Y362232D01*
X256705Y427858D02*
X282295D01*
X182116Y433061D02*
X197177Y418000D01*
X251000D01*
X182116Y433061D02*
Y436500D01*
X219705Y427858D02*
X245295D01*
X255807Y438370D01*
X260500Y280780D02*
X284661Y256618D01*
X260500Y280780D02*
Y300811D01*
X295118Y256618D02*
X307500Y269000D01*
X284661Y256618D02*
X295118D01*
X310000Y383000D02*
X311000Y382000D01*
X120850Y316854D02*
X188496Y384500D01*
X117339Y316854D02*
X120850D01*
X112744Y447000D02*
X131244Y465500D01*
X107000Y447000D02*
X112744D01*
X111756Y465500D02*
X112000Y465744D01*
Y482500D01*
X251937Y439968D02*
X262469Y450500D01*
X222000Y439968D02*
X251937D01*
X249532Y461500D02*
X268000D01*
X238531Y450500D02*
X249532Y461500D01*
X217500Y488384D02*
X221116Y492000D01*
X237811Y485189D02*
X241000D01*
X235000Y488000D02*
X237811Y485189D01*
X231000Y488000D02*
X235000D01*
X283500Y493000D02*
X286500Y490000D01*
X257441Y493000D02*
X283500D01*
X256000Y491559D02*
X257441Y493000D01*
X268000Y461500D02*
X286500Y480000D01*
X409000Y454000D02*
X419000Y464000D01*
X409000Y387000D02*
Y454000D01*
X372000Y350000D02*
X409000Y387000D01*
X352000Y283000D02*
X372000Y263000D01*
X342500Y253500D02*
X348000Y248000D01*
X372000Y251000D02*
Y263000D01*
X362500Y241500D02*
X372000Y251000D01*
X333500Y241500D02*
X362500D01*
X271000Y312500D02*
Y376000D01*
X260500Y302000D02*
X271000Y312500D01*
X260500Y300811D02*
Y302000D01*
X236000Y370000D02*
X240000Y366000D01*
Y306147D02*
Y366000D01*
X235353Y301500D02*
X240000Y306147D01*
X183555Y417000D02*
X188496Y412059D01*
X117500Y417000D02*
X183555D01*
X170500Y489000D02*
X177500Y482000D01*
X138500Y489000D02*
X170500D01*
X132000Y482500D02*
X138500Y489000D01*
X328000Y247000D02*
Y248000D01*
Y247000D02*
X333500Y241500D01*
X356500Y270000D02*
Y271000D01*
Y270000D02*
X357500Y269000D01*
X282295Y427858D02*
X302142D01*
X283524Y451000D02*
Y452524D01*
X297500Y450500D02*
Y452000D01*
X221116Y492000D02*
X248000D01*
X255500Y468500D02*
Y485941D01*
X216500Y445469D02*
X222000Y439968D01*
X216500Y445469D02*
Y462000D01*
X231000Y480000D02*
Y484232D01*
X229000Y478000D02*
X231000Y480000D01*
X229000Y474500D02*
Y478000D01*
X221500Y474500D02*
Y483000D01*
X219884Y484616D02*
X221500Y483000D01*
X217500Y484616D02*
X219884D01*
X214000Y474500D02*
Y480500D01*
X209884Y484616D02*
X214000Y480500D01*
X206500Y484616D02*
X209884D01*
X202000Y474500D02*
X206000D01*
X196500Y480000D02*
X202000Y474500D01*
X196500Y480000D02*
Y484616D01*
X255500Y485941D02*
X256000Y486441D01*
X188645Y454000D02*
X194000D01*
X200500Y447500D01*
Y441500D02*
Y447500D01*
X195500Y436500D02*
X200500Y441500D01*
X185884Y436500D02*
X195500D01*
X235353Y301500D02*
X259811D01*
X235268D02*
X235353D01*
X224645Y322000D02*
X225000Y322355D01*
X213000Y322000D02*
X224645D01*
X225000Y322355D02*
X225500Y321855D01*
Y291587D02*
Y321855D01*
X231500Y301500D02*
X231594Y301594D01*
X231453Y301453D02*
X231500Y301500D01*
X231594Y309906D02*
X231689Y310000D01*
X231594Y301594D02*
Y309906D01*
X231453Y290650D02*
Y301453D01*
X231405Y290602D02*
X231453Y290650D01*
X259811Y301500D02*
X260500Y300811D01*
D26*
X235311Y310000D02*
D03*
X231689D02*
D03*
D45*
X333000Y423500D02*
D03*
X392500Y424000D02*
D03*
X254500Y370000D02*
D03*
X236000D02*
D03*
X216500Y369500D02*
D03*
D52*
X284661Y256618D02*
D03*
Y346382D02*
D03*
X117339Y286146D02*
D03*
D53*
Y316854D02*
D03*
D60*
X306500Y414000D02*
D03*
X311000Y321000D02*
D03*
X419000Y494000D02*
D03*
X311000Y382000D02*
D03*
X117500Y417000D02*
D03*
X372000Y380000D02*
D03*
Y263000D02*
D03*
D61*
X306500Y434000D02*
D03*
Y444000D02*
D03*
Y454000D02*
D03*
Y464000D02*
D03*
Y474000D02*
D03*
Y484000D02*
D03*
Y494000D02*
D03*
Y424000D02*
D03*
X311000Y311000D02*
D03*
Y301000D02*
D03*
Y291000D02*
D03*
X419000Y474000D02*
D03*
Y464000D02*
D03*
Y454000D02*
D03*
Y444000D02*
D03*
Y434000D02*
D03*
Y424000D02*
D03*
Y414000D02*
D03*
Y484000D02*
D03*
X311000Y352000D02*
D03*
Y362000D02*
D03*
Y372000D02*
D03*
X206500Y462000D02*
D03*
X253500Y398000D02*
D03*
X243500D02*
D03*
X233500D02*
D03*
X347500Y269000D02*
D03*
X337500D02*
D03*
X327500D02*
D03*
X317500D02*
D03*
X307500D02*
D03*
X348000Y248000D02*
D03*
X338000D02*
D03*
X328000D02*
D03*
X281000Y376000D02*
D03*
X271000D02*
D03*
X117500Y387472D02*
D03*
X372000Y350000D02*
D03*
Y360000D02*
D03*
Y370000D02*
D03*
Y293000D02*
D03*
Y283000D02*
D03*
Y273000D02*
D03*
D62*
X107000Y248500D02*
D03*
X426500Y246500D02*
D03*
X428000Y495000D02*
D03*
X106500Y493500D02*
D03*
D63*
X238531Y450500D02*
D03*
D64*
X250500D02*
D03*
X262469D02*
D03*
D65*
X216500Y462000D02*
D03*
X223500Y398000D02*
D03*
X357500Y269000D02*
D03*
X318000Y248000D02*
D03*
X291000Y376000D02*
D03*
D66*
X286500Y470000D02*
D03*
Y480000D02*
D03*
Y490000D02*
D03*
D67*
X245295Y427858D02*
D03*
X219705D02*
D03*
X245295Y410142D02*
D03*
X282295Y427858D02*
D03*
X256705D02*
D03*
X282295Y410142D02*
D03*
D68*
X219705D02*
D03*
X256705D02*
D03*
D69*
X188496Y412059D02*
D03*
Y384500D02*
D03*
X157000D02*
D03*
Y412059D02*
D03*
D70*
X166055Y447000D02*
D03*
X107000D02*
D03*
D71*
X112000Y482500D02*
D03*
X157500Y482000D02*
D03*
D72*
X132000Y482500D02*
D03*
X177500Y482000D02*
D03*
D73*
X386500Y479500D02*
D03*
X382500Y485500D02*
D03*
X368500Y490500D02*
D03*
X305500Y397000D02*
D03*
X337500Y307500D02*
D03*
X371500Y410420D02*
D03*
X379000Y406000D02*
D03*
X373750Y420250D02*
D03*
X348000Y420000D02*
D03*
X299000Y390500D02*
D03*
X286500Y458000D02*
D03*
X267250Y436750D02*
D03*
X286500Y436500D02*
D03*
X246000Y469000D02*
D03*
X251000Y418000D02*
D03*
X342500Y449500D02*
D03*
X323449Y394949D02*
D03*
X248000Y492000D02*
D03*
X255500Y468500D02*
D03*
X200500Y447500D02*
D03*
X229000Y474500D02*
D03*
X221500D02*
D03*
X214000D02*
D03*
X206000D02*
D03*
D74*
X383500Y419500D02*
D03*
X380547D02*
D03*
X299000Y441500D02*
D03*
X296047D02*
D03*
X286476Y451000D02*
D03*
X283524D02*
D03*
D75*
X231000Y484232D02*
D03*
Y488000D02*
D03*
X217500Y488384D02*
D03*
Y484616D02*
D03*
X206500Y488384D02*
D03*
Y484616D02*
D03*
X196500Y488384D02*
D03*
Y484616D02*
D03*
X348000Y426116D02*
D03*
Y429884D02*
D03*
X374000Y426616D02*
D03*
Y430384D02*
D03*
D76*
X181355Y454000D02*
D03*
X188645D02*
D03*
D77*
X182116Y436500D02*
D03*
X185884D02*
D03*
X362500Y420000D02*
D03*
X358732D02*
D03*
X213000Y322000D02*
D03*
X209232D02*
D03*
X235268Y301500D02*
D03*
X231500D02*
D03*
D78*
X256000Y486441D02*
D03*
Y491559D02*
D03*
D79*
X294519Y450500D02*
D03*
X297500D02*
D03*
D80*
X241000Y488811D02*
D03*
Y485189D02*
D03*
D81*
X111756Y465500D02*
D03*
X131244D02*
D03*
D82*
X225000Y329645D02*
D03*
Y322355D02*
D03*
D83*
X219595Y290602D02*
D03*
X231405D02*
D03*
D84*
X225500Y291587D02*
D03*
D85*
X260500Y327189D02*
D03*
Y300811D02*
D03*
M02*
