G04*
G04 #@! TF.GenerationSoftware,Altium Limited,Altium Designer,20.0.2 (26)*
G04*
G04 Layer_Color=255*
%FSLAX25Y25*%
%MOIN*%
G70*
G01*
G75*
%ADD17R,0.05118X0.02362*%
%ADD18R,0.03150X0.02362*%
%ADD19R,0.01575X0.05315*%
%ADD20R,0.08268X0.06299*%
%ADD21R,0.07087X0.07480*%
%ADD22R,0.07480X0.07480*%
%ADD23R,0.02756X0.04724*%
%ADD24R,0.05906X0.03543*%
%ADD25R,0.02756X0.02756*%
%ADD26R,0.02717X0.02835*%
%ADD27R,0.02717X0.02835*%
%ADD28R,0.02953X0.03347*%
%ADD29R,0.04331X0.07480*%
%ADD45C,0.06181*%
%ADD52C,0.05709*%
%ADD53R,0.05709X0.05709*%
%ADD60R,0.05906X0.05906*%
%ADD61C,0.05906*%
%ADD62C,0.06000*%
%ADD63R,0.07736X0.07736*%
%ADD64C,0.07736*%
%ADD65R,0.05906X0.05906*%
%ADD66C,0.04996*%
%ADD67C,0.05937*%
%ADD68R,0.05937X0.05937*%
%ADD69C,0.05512*%
%ADD70C,0.04724*%
%ADD71C,0.07087*%
%ADD72R,0.07087X0.07087*%
D17*
X191102Y441595D02*
D03*
Y453406D02*
D03*
D18*
X192087Y447500D02*
D03*
D19*
X210961Y483968D02*
D03*
X213520D02*
D03*
X208402D02*
D03*
X216079D02*
D03*
X205842D02*
D03*
D20*
X223165Y484461D02*
D03*
X198756D02*
D03*
D21*
X225921Y494500D02*
D03*
X196000D02*
D03*
D22*
X215685D02*
D03*
X206236D02*
D03*
D23*
X261343Y479205D02*
D03*
X251500D02*
D03*
X241657D02*
D03*
D24*
X329441Y492410D02*
D03*
Y486504D02*
D03*
Y480598D02*
D03*
Y474693D02*
D03*
Y468787D02*
D03*
Y462882D02*
D03*
Y456976D02*
D03*
Y451071D02*
D03*
Y445165D02*
D03*
X398339D02*
D03*
Y451071D02*
D03*
Y456976D02*
D03*
Y462882D02*
D03*
Y468787D02*
D03*
Y474693D02*
D03*
Y480598D02*
D03*
Y486504D02*
D03*
Y492410D02*
D03*
D25*
X367669Y468000D02*
D03*
X372000D02*
D03*
Y472331D02*
D03*
X367669D02*
D03*
X363339D02*
D03*
Y468000D02*
D03*
Y463669D02*
D03*
X367669D02*
D03*
X372000D02*
D03*
D26*
X294500Y419000D02*
D03*
X298122D02*
D03*
D27*
X295000Y436500D02*
D03*
X298858D02*
D03*
D28*
X371921Y433000D02*
D03*
X367000D02*
D03*
X332039D02*
D03*
X336961D02*
D03*
D29*
X357921D02*
D03*
X348079D02*
D03*
D45*
X333000Y423500D02*
D03*
X392500Y424000D02*
D03*
X254500Y370000D02*
D03*
X236000D02*
D03*
X216500Y369500D02*
D03*
D52*
X284661Y256618D02*
D03*
Y346382D02*
D03*
X117339Y286146D02*
D03*
D53*
Y316854D02*
D03*
D60*
X306500Y414000D02*
D03*
X311000Y321000D02*
D03*
X419000Y494000D02*
D03*
X311000Y382000D02*
D03*
X117500Y417000D02*
D03*
X372000Y380000D02*
D03*
Y263000D02*
D03*
D61*
X306500Y434000D02*
D03*
Y444000D02*
D03*
Y454000D02*
D03*
Y464000D02*
D03*
Y474000D02*
D03*
Y484000D02*
D03*
Y494000D02*
D03*
Y424000D02*
D03*
X311000Y311000D02*
D03*
Y301000D02*
D03*
Y291000D02*
D03*
X419000Y474000D02*
D03*
Y464000D02*
D03*
Y454000D02*
D03*
Y444000D02*
D03*
Y434000D02*
D03*
Y424000D02*
D03*
Y414000D02*
D03*
Y484000D02*
D03*
X311000Y352000D02*
D03*
Y362000D02*
D03*
Y372000D02*
D03*
X206500Y462000D02*
D03*
X253500Y398000D02*
D03*
X243500D02*
D03*
X233500D02*
D03*
X347500Y269000D02*
D03*
X337500D02*
D03*
X327500D02*
D03*
X317500D02*
D03*
X307500D02*
D03*
X348000Y248000D02*
D03*
X338000D02*
D03*
X328000D02*
D03*
X281000Y376000D02*
D03*
X271000D02*
D03*
X117500Y387472D02*
D03*
X372000Y350000D02*
D03*
Y360000D02*
D03*
Y370000D02*
D03*
Y293000D02*
D03*
Y283000D02*
D03*
Y273000D02*
D03*
D62*
X107000Y248500D02*
D03*
X426500Y246500D02*
D03*
X428000Y495000D02*
D03*
X106500Y493500D02*
D03*
D63*
X238531Y450500D02*
D03*
D64*
X250500D02*
D03*
X262469D02*
D03*
D65*
X216500Y462000D02*
D03*
X223500Y398000D02*
D03*
X357500Y269000D02*
D03*
X318000Y248000D02*
D03*
X291000Y376000D02*
D03*
D66*
X286500Y470000D02*
D03*
Y480000D02*
D03*
Y490000D02*
D03*
D67*
X245295Y427858D02*
D03*
X219705D02*
D03*
X245295Y410142D02*
D03*
X282295Y427858D02*
D03*
X256705D02*
D03*
X282295Y410142D02*
D03*
D68*
X219705D02*
D03*
X256705D02*
D03*
D69*
X188496Y412059D02*
D03*
Y384500D02*
D03*
X157000D02*
D03*
Y412059D02*
D03*
D70*
X166055Y447000D02*
D03*
X107000D02*
D03*
D71*
X112000Y482500D02*
D03*
X157500Y482000D02*
D03*
D72*
X132000Y482500D02*
D03*
X177500Y482000D02*
D03*
M02*
