G04*
G04 #@! TF.GenerationSoftware,Altium Limited,Altium Designer,20.0.2 (26)*
G04*
G04 Layer_Color=16711935*
%FSLAX25Y25*%
%MOIN*%
G70*
G01*
G75*
%ADD11C,0.01181*%
%ADD13C,0.00787*%
%ADD14C,0.00394*%
%ADD15C,0.00500*%
%ADD93C,0.00197*%
D11*
X216866Y478850D02*
G03*
X216866Y478850I-394J0D01*
G01*
D13*
X214193Y410142D02*
G03*
X214193Y410142I-394J0D01*
G01*
X251193D02*
G03*
X251193Y410142I-394J0D01*
G01*
D14*
X187362Y442283D02*
G03*
X187362Y442283I-1969J0D01*
G01*
X222252Y284894D02*
G03*
X222252Y284894I-1969J0D01*
G01*
X379957Y420583D02*
X384090D01*
X379957Y418417D02*
X384090D01*
Y420583D01*
X379957Y418417D02*
Y420583D01*
X299590Y440417D02*
Y442583D01*
X295457Y440417D02*
Y442583D01*
X299590D01*
X295457Y440417D02*
X299590D01*
X257772Y485653D02*
Y492346D01*
X254228Y485653D02*
Y492346D01*
Y485653D02*
X257772D01*
X254228Y492346D02*
X257772D01*
X287067Y449917D02*
Y452083D01*
X282933Y449917D02*
Y452083D01*
X287067D01*
X282933Y449917D02*
X287067D01*
X182146Y447500D02*
X186083D01*
X184114Y445532D02*
Y449469D01*
X189134Y438543D02*
Y456457D01*
X179095Y438543D02*
Y456457D01*
Y438543D02*
X189134D01*
X179095Y456457D02*
X189134D01*
X109098Y460382D02*
Y470618D01*
X133902Y460382D02*
Y470618D01*
X109098Y460382D02*
X133902D01*
X109098Y470618D02*
X133902D01*
X294862Y435417D02*
Y437583D01*
X298996Y435417D02*
Y437583D01*
X294862D02*
X298996D01*
X294862Y435417D02*
X298996D01*
X366114Y431228D02*
X372807D01*
X366114Y434772D02*
X372807D01*
Y431228D02*
Y434772D01*
X366114Y431228D02*
Y434772D01*
X331153Y434772D02*
X337846D01*
X331153Y431228D02*
X337846D01*
X331153D02*
Y434772D01*
X337846Y431228D02*
Y434772D01*
X225500Y281646D02*
Y285583D01*
X223532Y283614D02*
X227468D01*
X216543Y288634D02*
X234457D01*
X216543Y278594D02*
X234457D01*
X216543D02*
Y288634D01*
X234457Y278594D02*
Y288634D01*
X142507Y495599D02*
X143209Y496189D01*
X142000Y495599D02*
X142507D01*
X143210Y496189D02*
X144244D01*
X102000Y466556D02*
X142000D01*
X102000Y498445D02*
X142000D01*
Y466556D02*
Y498445D01*
X102000Y466556D02*
Y498445D01*
X144244Y493379D02*
Y496189D01*
X144244Y493379D02*
X144244Y493379D01*
X143209Y493379D02*
X144245D01*
X142000Y493969D02*
X142507D01*
X143209Y493378D01*
X188007Y495099D02*
X188709Y495689D01*
X187500Y495099D02*
X188007D01*
X188710Y495689D02*
X189744D01*
X147500Y466056D02*
X187500D01*
X147500Y497945D02*
X187500D01*
Y466056D02*
Y497945D01*
X147500Y466056D02*
Y497945D01*
X189744Y492879D02*
Y495689D01*
X189744Y492879D02*
X189744Y492879D01*
X188709Y492879D02*
X189744D01*
X187500Y493469D02*
X188007D01*
X188709Y492878D01*
D15*
X196197Y483083D02*
X225724D01*
X196197D02*
Y500209D01*
Y505370D01*
X225724D01*
Y500209D02*
Y505370D01*
Y483083D02*
Y500209D01*
X196197D02*
X225724D01*
X182811D02*
X196197D01*
X220689Y407189D02*
Y430811D01*
Y407189D02*
X244311D01*
Y430811D01*
X220689D02*
X244311D01*
X257689Y407189D02*
Y430811D01*
Y407189D02*
X281311D01*
Y430811D01*
X257689D02*
X281311D01*
X102079Y437157D02*
X170976D01*
X102079D02*
Y456843D01*
X170976Y437157D02*
Y456843D01*
X102079D02*
X170976D01*
D93*
X194646Y437461D02*
Y457539D01*
X175354Y437461D02*
Y457539D01*
Y437461D02*
X194646D01*
X175354Y457539D02*
X194646D01*
X215461Y294146D02*
X235539D01*
X215461Y274854D02*
X235539D01*
X215461D02*
Y294146D01*
X235539Y274854D02*
Y294146D01*
M02*
