G04*
G04 #@! TF.GenerationSoftware,Altium Limited,Altium Designer,20.0.2 (26)*
G04*
G04 Layer_Color=32768*
%FSLAX25Y25*%
%MOIN*%
G70*
G01*
G75*
%ADD13C,0.00787*%
%ADD14C,0.00394*%
%ADD93C,0.00197*%
D13*
X276992Y498760D02*
X296008D01*
Y461240D02*
Y498760D01*
X276992Y461240D02*
X296008D01*
X276992D02*
Y498760D01*
X206213Y366783D02*
Y429776D01*
X139284Y366783D02*
X206213D01*
X139284D02*
Y429776D01*
X206213D01*
D14*
X382024Y418417D02*
Y420583D01*
X380941Y419500D02*
X383106D01*
X296441Y441500D02*
X298606D01*
X297524Y440417D02*
Y442583D01*
X231532Y310984D02*
X235469D01*
X231532Y309016D02*
Y310984D01*
Y309016D02*
X235469D01*
Y310984D01*
X254228Y489000D02*
X257772D01*
X256000Y487228D02*
Y490772D01*
X283917Y451000D02*
X286083D01*
X285000Y449917D02*
Y452083D01*
X240016Y485032D02*
Y488969D01*
Y485032D02*
X241984D01*
Y488969D01*
X240016D02*
X241984D01*
X119532Y465500D02*
X123468D01*
X121500Y463531D02*
Y467469D01*
X229988Y463276D02*
X271012D01*
Y443669D02*
Y463276D01*
X229988Y443669D02*
X271012D01*
X229988D02*
Y463276D01*
Y457291D02*
X235972Y463276D01*
X233587Y485012D02*
Y498988D01*
Y485012D02*
X269413D01*
Y498988D01*
X233587D02*
X269413D01*
X328457Y441622D02*
X399323D01*
Y520362D01*
X328457D02*
X399323D01*
X328457Y441622D02*
Y520362D01*
X294342Y419984D02*
X298280D01*
Y418016D02*
Y419984D01*
X294342Y418016D02*
X298280D01*
X294342D02*
Y419984D01*
X295847Y436500D02*
X298012D01*
X296929Y435417D02*
Y437583D01*
X369461Y431228D02*
Y434772D01*
X367689Y433000D02*
X371232D01*
X334500Y431228D02*
Y434772D01*
X332728Y433000D02*
X336272D01*
X244161Y330339D02*
X276839D01*
X244161Y305831D02*
Y330339D01*
Y305831D02*
X252331Y297661D01*
X268669D01*
X276839Y305831D01*
Y330339D01*
X105886Y426842D02*
X129114D01*
X105886Y377630D02*
Y426842D01*
Y377630D02*
X129114D01*
Y426842D01*
X120031Y482500D02*
X123969D01*
X122000Y480532D02*
Y484469D01*
X165532Y482000D02*
X169468D01*
X167500Y480031D02*
Y483968D01*
D93*
X379071Y421075D02*
X384976D01*
X379071Y417925D02*
X384976D01*
Y421075D01*
X379071Y417925D02*
Y421075D01*
X300476Y439925D02*
Y443075D01*
X294571Y439925D02*
Y443075D01*
X300476D01*
X294571Y439925D02*
X300476D01*
X258165Y484866D02*
Y493134D01*
X253835Y484866D02*
Y493134D01*
Y484866D02*
X258165D01*
X253835Y493134D02*
X258165D01*
X287953Y449425D02*
Y452575D01*
X282047Y449425D02*
Y452575D01*
X287953D01*
X282047Y449425D02*
X287953D01*
X191472Y480327D02*
X230449D01*
X191472D02*
Y506354D01*
X230449D01*
Y480327D02*
Y506354D01*
X106736Y459201D02*
Y471799D01*
X136264Y459201D02*
Y471799D01*
X106736Y459201D02*
X136264D01*
X106736Y471799D02*
X136264D01*
X292598Y434138D02*
Y438862D01*
X301260Y434138D02*
Y438862D01*
X292598D02*
X301260D01*
X292598Y434138D02*
X301260D01*
X365130Y430835D02*
X373791D01*
X365130Y435165D02*
X373791D01*
Y430835D02*
Y435165D01*
X365130Y430835D02*
Y435165D01*
X330169Y435165D02*
X338831D01*
X330169Y430835D02*
X338831D01*
X330169D02*
Y435165D01*
X338831Y430835D02*
Y435165D01*
X215752Y431811D02*
X249248D01*
Y406189D02*
Y431811D01*
X215752Y406189D02*
X249248D01*
X215752D02*
Y431811D01*
X252752D02*
X286248D01*
Y406189D02*
Y431811D01*
X252752Y406189D02*
X286248D01*
X252752D02*
Y431811D01*
X101094Y436173D02*
X171961D01*
Y457827D01*
X101094Y436173D02*
Y457827D01*
X171961D01*
X101607Y466161D02*
Y498839D01*
Y466162D02*
X144637D01*
X101607Y498839D02*
X144637D01*
Y466162D02*
Y498839D01*
X147107Y465661D02*
Y498339D01*
Y465662D02*
X190137D01*
X147107Y498339D02*
X190137D01*
Y465662D02*
Y498339D01*
M02*
