G04*
G04 #@! TF.GenerationSoftware,Altium Limited,Altium Designer,20.0.2 (26)*
G04*
G04 Layer_Color=128*
%FSLAX25Y25*%
%MOIN*%
G70*
G01*
G75*
%ADD26R,0.02717X0.02835*%
%ADD74R,0.01968X0.01772*%
%ADD75R,0.02648X0.02816*%
%ADD76R,0.05727X0.06127*%
%ADD77R,0.02816X0.02648*%
%ADD78R,0.03150X0.02362*%
%ADD79R,0.02029X0.01860*%
%ADD80R,0.02835X0.02717*%
%ADD81R,0.08071X0.10433*%
%ADD82R,0.06127X0.05727*%
%ADD83R,0.02362X0.05118*%
%ADD84R,0.02362X0.03150*%
%ADD85R,0.08465X0.15748*%
G36*
X229043Y287650D02*
Y278201D01*
X226681Y275839D01*
X224319D01*
X221957Y278201D01*
Y287650D01*
X224319Y290012D01*
X226681D01*
X229043Y287650D01*
D02*
G37*
D26*
X235311Y310000D02*
D03*
X231689D02*
D03*
D74*
X383500Y419500D02*
D03*
X380547D02*
D03*
X299000Y441500D02*
D03*
X296047D02*
D03*
X286476Y451000D02*
D03*
X283524D02*
D03*
D75*
X231000Y484232D02*
D03*
Y488000D02*
D03*
X217500Y488384D02*
D03*
Y484616D02*
D03*
X206500Y488384D02*
D03*
Y484616D02*
D03*
X196500Y488384D02*
D03*
Y484616D02*
D03*
X348000Y426116D02*
D03*
Y429884D02*
D03*
X374000Y426616D02*
D03*
Y430384D02*
D03*
D76*
X181355Y454000D02*
D03*
X188645D02*
D03*
D77*
X182116Y436500D02*
D03*
X185884D02*
D03*
X362500Y420000D02*
D03*
X358732D02*
D03*
X213000Y322000D02*
D03*
X209232D02*
D03*
X235268Y301500D02*
D03*
X231500D02*
D03*
D78*
X256000Y486441D02*
D03*
Y491559D02*
D03*
D79*
X294519Y450500D02*
D03*
X297500D02*
D03*
D80*
X241000Y488811D02*
D03*
Y485189D02*
D03*
D81*
X111756Y465500D02*
D03*
X131244D02*
D03*
D82*
X225000Y329645D02*
D03*
Y322355D02*
D03*
D83*
X219595Y290602D02*
D03*
X231405D02*
D03*
D84*
X225500Y291587D02*
D03*
D85*
X260500Y327189D02*
D03*
Y300811D02*
D03*
M02*
