M48
;Layer_Color=9474304
;FILE_FORMAT=2:5
INCH,TZ
;TYPE=PLATED
T1F00S00C0.02800
T2F00S00C0.02913
T3F00S00C0.03000
T4F00S00C0.03346
T5F00S00C0.03543
T6F00S00C0.03740
T7F00S00C0.03937
T8F00S00C0.04016
T9F00S00C0.05118
T10F00S00C0.05157
%
T01
X337500Y307500
X305500Y397000
X299000Y390500
X286500Y436500
X267250Y436750
X251000Y418000
X255500Y468500
X286500Y458000
X200500Y447500
X342500Y449500
X348000Y420000
X373750Y420250
X371500Y410420
X379000Y406000
X323449Y394949
X368500Y490500
X382500Y485500
X386500Y479500
X246000Y469000
X229000Y474500
X221500
X214000
X206000
X248000Y492000
T02
X286500Y470000
Y480000
Y490000
T03
X426500Y246500
X107000Y248500
X428000Y495000
X106500Y493500
T04
X107000Y447000
X166055
T05
X318000Y248000
X328000
X338000
X348000
X347500Y269000
X357500
X372000Y273000
Y283000
Y293000
Y263000
X337500Y269000
X327500
X317500
X307500
X311000Y291000
Y301000
Y311000
Y321000
Y352000
Y362000
Y372000
Y382000
X291000Y376000
X281000
X271000
X253500Y398000
X243500
X233500
X223500
X188496Y384500
Y412059
X157000
Y384500
X206500Y462000
X216500
X306500Y464000
Y454000
Y444000
Y434000
Y424000
Y414000
X372000Y380000
Y370000
Y360000
Y350000
X419000Y414000
Y424000
Y434000
Y444000
Y454000
Y464000
Y474000
Y484000
Y494000
X306500
Y484000
Y474000
T06
X284661Y256618
X117339Y286146
Y316854
X284661Y346382
T07
X117500Y387472
Y417000
X219705Y410142
Y427858
X245295
X256705
Y410142
X245295
X282295
Y427858
T08
X216500Y369500
X236000Y370000
X254500
X333000Y423500
X392500Y424000
T09
X157500Y482000
X177500
X132000Y482500
X112000
T10
X238531Y450500
X250500
X262469
M30
